<svg width="79" height="81" viewBox="0 0 79 81" fill="none" xmlns="http://www.w3.org/2000/svg">
<g clip-path="url(#clip0_10_2)">
<path d="M39.4998 81.0002C39.2622 81.0002 39.0247 80.9803 38.7894 80.9406C38.5136 80.8938 35.9879 80.4403 32.3284 78.8908C30.2012 77.9905 28.0994 76.8919 26.0804 75.6264C23.568 74.0513 21.1749 72.2096 18.9681 70.1519C13.3985 64.96 8.97429 58.3922 5.81783 50.6309C3.97271 46.0939 2.5475 41.0954 1.58223 35.7737C0.532452 29.987 0 23.6714 0 17.0034C0 15.3391 0.989285 13.8312 2.52303 13.1587L31.7034 0.360051C33.8425 -0.578267 36.3424 0.38257 37.2877 2.50604C38.2329 4.62951 37.265 7.11108 35.1258 8.0494L8.50056 19.7274C8.74877 30.1743 10.4373 39.383 13.5297 47.1338C16.1631 53.7338 19.8199 59.3001 24.3985 63.6773C28.4633 67.5635 32.5374 69.7938 35.2397 70.9807C37.0653 71.7826 38.5327 72.2321 39.3935 72.4595C40.2609 72.1871 41.7435 71.662 43.5895 70.7705C46.318 69.4529 50.4317 67.0376 54.5352 63.0132C59.144 58.4929 62.8223 52.8829 65.4672 46.3385C68.552 38.7061 70.2406 29.7654 70.4972 19.7265L60.9589 15.5427L39.9455 52.474C39.2947 53.6181 38.1426 54.3939 36.8313 54.5714C35.52 54.7489 34.2006 54.3078 33.2647 53.3788L22.2251 42.4201C20.5717 40.7788 20.5717 38.1171 22.2251 36.4758C23.8785 34.8345 26.5599 34.8345 28.2133 36.4758L35.3122 43.5227L55.4725 8.09135C56.5436 6.20897 58.8785 5.43977 60.8708 6.31362L76.4774 13.1587C78.0112 13.8312 79.0004 15.3391 79.0004 17.0034C79.0004 29.3931 77.041 40.4406 73.1759 49.8379C70.0275 57.4941 65.6197 64.0729 60.0759 69.392C50.5154 78.5645 40.8369 80.8068 40.4299 80.8977C40.1243 80.9662 39.8125 81.0002 39.5007 81.0002H39.4998Z" fill="#E84E0F"/>
</g>
<defs>
<clipPath id="clip0_10_2">
<rect width="79" height="81" fill="white"/>
</clipPath>
</defs>
</svg>
