<svg width="95" height="90" viewBox="0 0 95 90" fill="none" xmlns="http://www.w3.org/2000/svg">
<path fill-rule="evenodd" clip-rule="evenodd" d="M47.9495 89.6227C41.5036 88.6524 36.0786 85.6727 31.6802 80.6854C33.2074 80.3997 34.71 80.0711 36.1677 79.723C37.7592 80.5139 39.6237 80.753 41.3869 80.4915C45.2865 79.9169 48.946 76.6984 48.3213 72.4551C47.7014 68.2115 43.2831 66.1871 39.3785 66.764C36.8301 67.1371 34.3778 68.6195 33.1628 70.8331C30.8922 71.3606 28.4723 71.8234 26.0575 72.1115C25.7252 71.4401 25.405 70.7537 25.0956 70.0497C15.5924 65.9232 14.3754 46.0942 19.7951 45.8851C18.865 21.9817 28.2489 9.97296 47.9495 9.85852C67.6443 9.97296 77.0311 21.9817 76.1009 45.8851C81.5207 46.0942 80.3037 65.9232 70.8034 70.0497C65.7355 81.5686 58.1143 88.0905 47.9495 89.6227Z" fill="#E84E0F"/>
<path fill-rule="evenodd" clip-rule="evenodd" d="M47.4974 0C59.2913 0 69.9618 5.01089 77.6823 13.1164C85.3736 21.1873 90.1293 32.3234 90.1293 44.6158C90.1293 45.256 90.1173 45.8915 90.0925 46.5244L91.7303 47.1597C93.6831 47.9167 95.4178 49.4702 94.9108 51.4928L91.688 64.4058C91.1836 66.4283 89.4142 67.2799 87.3493 67.5823L82.9159 68.2354C80.846 68.5381 79.4144 65.9645 79.7382 63.8994L82.1431 48.2987C82.3947 46.6659 83.7391 45.1568 85.2598 44.9681V44.6158C85.2598 33.6088 81.0174 23.6543 74.1614 16.462C67.3379 9.29937 57.9098 4.86678 47.4976 4.86678C37.0855 4.86678 27.6652 9.29937 20.8389 16.462C13.9829 23.6543 9.74125 33.6088 9.74125 44.6158V44.9681C11.262 45.1571 12.6085 46.6659 12.8572 48.2987L15.2647 63.8994C15.5856 65.9645 14.149 68.5381 12.0842 68.2354L9.86479 67.9054C9.74073 68.5457 9.69841 69.1463 9.72102 69.707C9.7954 71.4495 10.5852 72.8318 12.0019 73.8367C13.5326 74.9216 15.7893 75.5988 18.6816 75.8422C23.1547 76.2241 29.0441 75.5665 36.0318 73.797C36.0368 72.1417 37.6913 70.6102 39.9278 70.2826C42.3285 69.9327 44.4853 71.0967 44.7487 72.8835C45.0123 74.6756 43.2773 76.4102 40.8797 76.7604C39.2596 76.9985 37.751 76.5444 36.8563 75.6731C29.4909 77.5644 23.2588 78.264 18.517 77.8624C15.2595 77.5867 12.6624 76.7827 10.8286 75.4846C8.88573 74.1047 7.8018 72.2013 7.69772 69.7939C7.66802 69.1061 7.72242 68.3769 7.8591 67.6125L7.65304 67.5826C5.58532 67.2802 3.81592 66.4286 3.31154 64.406L0.0889326 51.4928C-0.417549 49.4702 1.31926 47.9167 3.27001 47.1597L4.90984 46.5218C4.88224 45.8889 4.87015 45.2534 4.87015 44.6155C4.87015 32.3231 9.62587 21.1873 17.3172 13.1161C25.0385 5.01089 35.709 0 47.4974 0Z" fill="#E84E0F"/>
</svg>
