<svg width="95" height="100" viewBox="0 0 95 100" fill="none" xmlns="http://www.w3.org/2000/svg">
<path d="M95 21.2818C95 20.0131 94.2307 18.87 93.0528 18.3878L48.6934 0.234644C47.9287 -0.0782145 47.0713 -0.0782145 46.3066 0.234644L1.9472 18.3878C0.769263 18.8698 0 20.0131 0 21.2818V78.7182C0 79.9869 0.769067 81.13 1.9472 81.6122L46.3066 99.7654C47.0631 100.075 47.9134 100.082 48.6895 99.7652C48.7274 99.7527 47.0479 100.439 93.0528 81.6122C94.2309 81.1302 95 79.9869 95 78.7182V21.2818ZM47.5 36.3158L31.1553 29.6271L66.478 14.2773L83.9158 21.4134L47.5 36.3158ZM6.2813 26.2124L20.383 31.9833V48.2644C20.383 49.9922 21.7892 51.393 23.5237 51.393C25.2581 51.393 26.6643 49.9922 26.6643 48.2644V34.5538L44.3593 41.7951V92.2038L6.2813 76.6211V26.2124ZM47.5 6.51077L58.3875 10.9663L23.0647 26.3161L11.0841 21.4132L47.5 6.51077ZM50.6407 41.7951L88.7187 26.2124V76.6211L50.6407 92.2038V41.7951Z" fill="#E84E0F"/>
</svg>
