<svg width="25" height="25" viewBox="0 0 25 25" fill="none" xmlns="http://www.w3.org/2000/svg">
<path d="M11.8965 15.2761C12.0575 15.4327 12.2732 15.5204 12.4978 15.5204C12.7224 15.5204 12.9382 15.4327 13.0991 15.2761L16.1164 12.3321C16.2037 12.2547 16.2744 12.1604 16.3241 12.0549C16.3739 11.9494 16.4018 11.8349 16.406 11.7183C16.4102 11.6017 16.3907 11.4854 16.3487 11.3766C16.3067 11.2678 16.243 11.1686 16.1616 11.0851C16.0801 11.0016 15.9825 10.9355 15.8748 10.8908C15.767 10.8461 15.6513 10.8237 15.5346 10.825C15.418 10.8264 15.3028 10.8514 15.1961 10.8985C15.0894 10.9457 14.9933 11.014 14.9138 11.0993L13.3621 12.6123V6.03468C13.3621 5.80604 13.2712 5.58677 13.1096 5.4251C12.9479 5.26343 12.7286 5.17261 12.5 5.17261C12.2714 5.17261 12.0521 5.26343 11.8904 5.4251C11.7287 5.58677 11.6379 5.80604 11.6379 6.03468V12.6123L10.0862 11.0993C9.92044 10.9524 9.70446 10.8749 9.48308 10.8829C9.2617 10.8909 9.0519 10.9839 8.89721 11.1424C8.74252 11.301 8.65481 11.513 8.65228 11.7345C8.64974 11.9561 8.73258 12.17 8.88361 12.3321L11.8965 15.2761Z" fill="#E5E5E5"/>
<path d="M17.3448 14.3409C17.1162 14.3409 16.8969 14.4317 16.7353 14.5934C16.5736 14.755 16.4828 14.9743 16.4828 15.2029V16.065C16.4816 16.3775 16.3567 16.6768 16.1353 16.8973C15.914 17.1179 15.6142 17.2417 15.3017 17.2417H9.69827C9.54317 17.2417 9.3896 17.2112 9.24631 17.1518C9.10302 17.0925 8.97282 17.0055 8.86315 16.8958C8.75348 16.7861 8.66649 16.6559 8.60713 16.5127C8.54778 16.3694 8.51723 16.2158 8.51723 16.0607V15.1986C8.51723 14.97 8.42641 14.7507 8.26474 14.589C8.10307 14.4274 7.8838 14.3365 7.65516 14.3365C7.42653 14.3365 7.20726 14.4274 7.04559 14.589C6.88392 14.7507 6.79309 14.97 6.79309 15.1986V16.0607C6.79423 16.8308 7.10068 17.5691 7.64526 18.1137C8.18984 18.6583 8.92812 18.9647 9.69827 18.9659H15.3017C16.0719 18.9647 16.8102 18.6583 17.3547 18.1137C17.8993 17.5691 18.2058 16.8308 18.2069 16.0607V15.1986C18.2058 14.9707 18.1144 14.7526 17.9529 14.5918C17.7914 14.4311 17.5727 14.3409 17.3448 14.3409Z" fill="#E5E5E5"/>
<path d="M12.5 0C10.0278 0 7.61101 0.733114 5.55539 2.10664C3.49977 3.48016 1.89761 5.43239 0.951514 7.71648C0.00541612 10.0006 -0.242126 12.5139 0.24019 14.9387C0.722507 17.3634 1.91302 19.5907 3.66118 21.3389C5.40934 23.087 7.63663 24.2776 10.0614 24.7599C12.4862 25.2422 14.9995 24.9947 17.2836 24.0486C19.5677 23.1025 21.5199 21.5003 22.8934 19.4447C24.267 17.3891 25.0001 14.9723 25.0001 12.5C25.0001 9.18482 23.6831 6.00538 21.3389 3.66117C18.9947 1.31696 15.8153 0 12.5 0ZM12.5 23.2759C10.3688 23.2759 8.28536 22.6439 6.51327 21.4599C4.74119 20.2758 3.36001 18.5928 2.54441 16.6238C1.72881 14.6547 1.51541 12.4881 1.9312 10.3978C2.34699 8.30744 3.3733 6.38736 4.88033 4.88033C6.38737 3.37329 8.30745 2.34699 10.3978 1.9312C12.4881 1.51541 14.6548 1.72881 16.6238 2.54441C18.5928 3.36001 20.2758 4.74118 21.4599 6.51327C22.6439 8.28535 23.2759 10.3688 23.2759 12.5C23.2759 13.9151 22.9972 15.3164 22.4557 16.6238C21.9141 17.9312 21.1204 19.1191 20.1197 20.1197C19.1191 21.1204 17.9312 21.9141 16.6238 22.4557C15.3164 22.9972 13.9151 23.2759 12.5 23.2759Z" fill="#E5E5E5"/>
</svg>
