<?xml version="1.0" encoding="utf-8"?>
<!-- Generator: Adobe Illustrator 27.0.0, SVG Export Plug-In . SVG Version: 6.00 Build 0)  -->
<svg width="300" height="147" version="1.1" id="svg2041" xmlns:svg="http://www.w3.org/2000/svg"
	 xmlns="http://www.w3.org/2000/svg" xmlns:xlink="http://www.w3.org/1999/xlink" x="0px" y="0px" viewBox="0 0 694.35 341.19"
	 style="enable-background:new 0 0 694.35 341.19;" xml:space="preserve">
<style type="text/css">
	.st0{fill:#FFFFFF;}
</style>
<g id="layer1" transform="translate(-8.479224,-404.6258)">
	<g id="g2058" transform="translate(7.081015,7.088444)">
		<path id="path26" class="st0" d="M218.57,618.42h43.17v14.1H241.2v99.1h-22.63V618.42"/>
		<path id="path28" class="st0" d="M287.33,689.13l3.88-56.6h1.3l3.88,56.6H287.33z M262.26,731.63h22.16l2.1-30.07h10.67
			l2.11,30.07h22.15l-11.8-113.21h-35.58L262.26,731.63"/>
		<path id="path30" class="st0" d="M353.86,692.01v21.34c0,2.88,2.23,3.71,3.53,3.71c2.13,0,3.62-1.76,3.62-3.71V687
			c0-3.53-0.65-7.42-9.09-7.42h-9.19v-12.43h9.56c6.4,0,8.72-1.48,8.72-8.44v-22.46c0-1.95-1.48-3.71-3.62-3.71
			c-1.3,0-3.53,0.74-3.53,3.71v18.47h-22.64v-16.05c0-7.89,0.93-20.23,16.8-20.23h18.74c15.87,0,16.89,12.34,16.89,20.23v18.09
			c0,12.34-8.63,15.68-15.4,15.4v1.11c15.22-0.37,15.4,11.32,15.4,15.31v22.83c0,7.98-1.02,20.23-16.89,20.23h-18.74
			c-15.87,0-16.8-12.25-16.8-20.23v-19.39H353.86"/>
		<path id="path32" class="st0" d="M398.49,618.42h52.43v113.21h-22.64v-99.1h-7.15v99.1h-22.64V618.42"/>
		<path id="path34" class="st0" d="M488.41,680.69v-48.16h2.97c2.41,0,4.18,2.04,4.18,5.66v36.84c0,3.62-1.76,5.66-4.18,5.66H488.41
			z M465.77,731.63h22.64v-38.51h12.99c15.78,0,16.8-12.25,16.8-20.23v-34.24c0-7.89-1.02-20.23-16.8-20.23h-35.63V731.63"/>
		<path id="path36" class="st0" d="M562.83,713.35c0,1.95-1.48,3.71-3.62,3.71c-1.3,0-3.53-0.84-3.53-3.71v-77.11
			c0-2.97,2.23-3.71,3.53-3.71c2.13,0,3.62,1.76,3.62,3.71V713.35z M533.05,711.4c0,7.98,1.02,20.23,16.8,20.23h18.84
			c15.78,0,16.8-12.25,16.8-20.23v-72.75c0-7.89-1.02-20.23-16.8-20.23h-18.84c-15.78,0-16.8,12.34-16.8,20.23V711.4"/>
		<path id="path38" class="st0" d="M659.15,618.42h29.51v113.21h-22.64v-70.99h-0.84l-11.69,70.99H635.4l-11.6-70.99h-0.84v70.99
			h-22.64V618.42h29.42l14.75,79.62L659.15,618.42"/>
		<path id="path40" class="st0" d="M189.22,463.64c-6.93-30.34-24.3-55.03-26.7-59.02c-3.79,5.66-17.64,27.47-24.68,51.59
			c-7.69,27-8.82,50.94-6.17,74.42c2.64,23.57,12.59,47.79,12.59,47.79c5.29,12.62,13.21,26.26,18.37,32.94
			c7.56-9.84,24.94-39.16,30.36-77.39C196.02,512.64,196.15,493.99,189.22,463.64z M162.53,603.76c-3.41-6.4-8.69-18.56-9.2-37.49
			c-0.13-18.19,7.17-33.87,9.31-37.12c1.9,3.25,8.19,16.89,8.95,35.54C172.09,582.88,166.04,597.27,162.53,603.76z M187.21,515.14
			c-0.26,11.6-1.64,23.85-3.41,31.18c0.63-12.62-0.88-30.34-3.78-44.26c-2.9-13.83-11.09-37.03-17.63-47.7
			c-6.04,10.21-13.48,30.25-17.38,47.6c-3.92,17.35-4.03,38.42-4.03,44.73c-1.04-5.29-3.64-24.31-2.9-43.34
			c0.61-15.68,4.29-31.92,6.3-39.34c7.68-24.78,16.38-40.64,18.01-43.15c1.63,2.51,12.58,22.09,18.26,42.59
			C186.31,483.97,187.45,503.64,187.21,515.14"/>
		<path id="path42" class="st0" d="M174.28,618.42h-52.7v35.35c0.05,0,0.08-0.09,0.13-0.09c12.42-12.43,32.55-12.43,44.98,0
			c12.42,12.34,12.42,32.48,0,44.91c-0.06,0.09-0.11,0.09-0.17,0.19l0,0c-0.06,0-0.13,0.09-0.19,0.19
			c-12.39,12.25-28.57,18.37-44.75,18.37c-16.26,0-32.52-6.12-44.91-18.56c-21.86-21.81-24.45-55.68-7.79-80.36
			c2.25-3.34,4.83-6.5,7.79-9.47c12.4-12.43,28.65-18.56,44.91-18.56v-85c-62.47,0-113.11,50.57-113.11,113.02
			s50.64,113.12,113.11,113.12c32.57,0,61.91-13.83,82.55-35.82v-77.3H174.28"/>
	</g>
</g>
</svg>
