<svg width="331" height="443" viewBox="0 0 331 443" fill="none" xmlns="http://www.w3.org/2000/svg">
<path fill-rule="evenodd" clip-rule="evenodd" d="M74 0V221.569L48.0286 263.979L28.6215 295.439L4.60716 334.511L0 342V0H74Z" fill="#E84E0F"/>
<path fill-rule="evenodd" clip-rule="evenodd" d="M221.088 404.392L220.843 404.88L198.861 369.16L194.627 362.284L177.489 334.376L153.43 295.32L151.273 291.821L147.202 285.19L134.094 263.831L108 221.48L147.202 157.322L151.273 150.772L153.186 147.64L194.627 80.2681L198.576 73.7994L221.088 37.2252L237.982 9.80467L244.006 0H330.959L324.69 9.80467L294.973 58.0957L285.366 73.7994L281.336 80.2681L239.936 147.64L237.982 150.772L221.088 178.274L194.79 221.48L220.843 263.872L221.088 264.319L237.982 291.821L240.139 295.32L264.198 334.335L281.336 362.244L285.57 369.16L294.973 384.416L307.552 404.798L324.69 432.789L331 443H244.251L220.843 404.88L221.088 404.392Z" fill="#E84E0F"/>
</svg>
