<svg width="189" height="31" fill="none" xmlns="http://www.w3.org/2000/svg"><g clip-path="url(#clip0_7_727)" fill="#fff"><path fill-rule="evenodd" clip-rule="evenodd" d="M5.146 0v15.499L3.34 18.465l-1.35 2.2L.32 23.4l-.32.524V0h5.146zm10.292 28.298l-.017.034-1.53-2.5-.296-.48-1.193-1.953-1.676-2.733-.15-.245-.284-.464-.913-1.495L7.562 15.5l2.73-4.49.284-.458.133-.22 2.886-4.714.275-.453 1.568-2.56L16.615.687l.42-.686h6.056l-.437.686-2.07 3.38-.669 1.098-.28.453-2.884 4.714-.136.22-1.177 1.924-1.831 3.024 1.814 2.966.017.031 1.177 1.925.15.245 1.676 2.73 1.194 1.953.294.484.655 1.067.877 1.427 1.193 1.958.44.715h-6.042l-1.63-2.668.016-.034zM59.207.006v5.167H43.741l-3.088-1.97L35.65.006h23.556zm0 13.004v5.162H43.772V13.01h15.435zm0 12.823V31H35.552l8.169-5.167h15.486zM151.449.006v5.167h-15.464L127.893.006h23.556z"/><path d="M151.449 13.01h-15.436v5.164h15.436V13.01z"/><path fill-rule="evenodd" clip-rule="evenodd" d="M151.449 25.833V31h-23.655l8.168-5.167h15.487zM76.925 27.74l.732-.461 1.86-1.179.368-.23.06-.037h7.27V31H71.779v-.003l.006-.006.726-.458.97-.612.033-.02.392-.248 1.162-.734 1.33-.846.425-.267.102-.066zm0-19.532V22.8l-.555.888-.5.797-.357.567-.49.78-.706 1.124-.53.849-.726 1.153-.292.467-.142.227-.842 1.338-.006.006V.006l1.097 1.745.845 1.35.08.124.309.49.663 1.065.184.293 1.163 1.845.422.677.383.613zm38.294 17.625V31H99.784v-.003l.005-.006.726-.458.97-.612.034-.02.391-.248 1.163-.734 1.329-.846.429-.267.099-.066.731-.461 1.86-1.179.369-.23.059-.037h7.27zM104.93 8.208V22.8l-.559.888-.496.797-.357.567-.491.78-.706 1.124-.53.849-.726 1.153-.292.467-.142.227-.844 1.338-.003.006V.006l1.097 1.745.845 1.35.079.124.309.49.664 1.065.184.293 1.163 1.845.422.677.383.613zm80.934 7.419a8.814 8.814 0 01-.797.868 9.53 9.53 0 01-2.177 1.583c-.199.108-1.259.606-1.421.606l.525.86.706 1.147 2.314 3.787.844 1.38.009.012 2.169 3.538.967 1.595h-6.022l-.976-1.606-1.284-2.1-.882-1.439-.851-1.397-2.31-3.77-1.098-1.793-.116-.194-.465-.754-1.483-2.426-.717-1.17h4.678c.431 0 .845-.06 1.236-.17l.015-.004a4.556 4.556 0 001.99-1.187h.003a4.607 4.607 0 001.094-1.805h.003a4.722 4.722 0 00.218-1.412c0-.048 0-.1-.002-.145a4.551 4.551 0 00-1.313-3.077h-.003a4.56 4.56 0 00-2.104-1.219h-.003a4.917 4.917 0 00-.425-.088h-.003a4.45 4.45 0 00-.587-.054h-.003c-.036-.003-.076-.003-.113-.003-.037 0-.079 0-.116.003l-10.182-.015-.122-.202-.15-.245-.471-.768-1.151-1.88-1.267-2.077h15.401a8.69 8.69 0 011.296.242c.176.042.354.09.53.145.105.034.213.068.318.105a9.55 9.55 0 014.239 2.95c.019.022.036.048.059.076.414.51.78 1.07 1.083 1.666a9.552 9.552 0 011.055 4.384c0 .054 0 .103-.003.157 0 .21-.011.415-.031.623-.02.288-.057.567-.105.849a9.368 9.368 0 01-1.128 3.148c-.233.41-.499.803-.789 1.17l-.082.106z"/></g><defs><clipPath id="clip0_7_727"><path fill="#fff" d="M0 0h189v31H0z"/></clipPath></defs></svg>