<svg width="154" height="72" viewBox="0 0 154 72" fill="none" xmlns="http://www.w3.org/2000/svg">
<g clip-path="url(#clip0_2039_45)">
<path d="M92.7858 28.2152H86.1016V23.958H104.254V28.2152H97.6046V47.9853H92.7858V28.2152Z" fill="white"/>
<path d="M117.185 40.5014L112.502 32.6078V47.9853H107.855V23.958H112.502L118.745 34.5647L124.989 23.958H129.503V47.9853H124.852V32.6078L120.17 40.5014H117.185Z" fill="white"/>
<path d="M148.708 23.958L143.756 31.6814L139.106 23.958H134.188V25.5714L140.768 35.4911L133.506 46.3719V47.9853H138.122L143.655 39.4048L149.115 47.9853H154V46.3719L146.672 35.4565L153.324 25.5714V23.958H148.708Z" fill="white"/>
<path d="M72.3557 34.0102C72.3557 33.8715 72.3335 33.736 72.3239 33.5974C72.289 33.0774 72.2478 32.5575 72.1907 32.047C72.1748 31.8895 72.1526 31.7319 72.1336 31.5807C72.0702 31.0828 72.0035 30.5912 71.9211 30.0996C71.8988 29.9515 71.8671 29.8034 71.8417 29.6522C71.7529 29.1574 71.6577 28.6659 71.5467 28.1806L71.5086 28.001H58.965L59.019 28.168C59.2759 28.9148 59.5012 29.6774 59.6852 30.4525C59.7264 30.6322 59.7708 30.8118 59.8121 30.9945C59.8533 31.1773 59.8755 31.3097 59.9041 31.4767C59.9485 31.6941 59.9866 31.9084 60.0215 32.1289C60.0468 32.2676 60.0659 32.4094 60.0881 32.5512C60.123 32.8064 60.1547 33.0617 60.1864 33.3169C60.1864 33.4272 60.2086 33.5407 60.2213 33.6541C60.253 33.9692 60.2784 34.3032 60.2975 34.6341V34.7759C60.3165 35.1729 60.326 35.5731 60.326 35.9765C60.326 49.2143 49.524 59.9471 36.1969 59.9502C31.4669 59.9502 26.8384 58.57 22.8919 55.9798H36.1874C47.3002 55.9798 56.3098 47.0306 56.3098 35.9922C56.3098 33.2413 55.7387 30.5219 54.6316 28.001H45.1906C49.6446 32.9167 49.2417 40.4889 44.2928 44.913C42.069 46.9014 39.1821 47.9948 36.1937 47.9854H2.06207C8.71455 66.7188 29.3985 76.5503 48.2583 69.9424C62.7529 64.866 72.4413 51.2531 72.4255 35.9859C72.4255 35.321 72.4064 34.6624 72.3715 34.0102" fill="white"/>
<path d="M36.2 0.00945337C16.1982 0.0189067 -0.00951295 16.1306 4.18919e-06 35.9984C4.18919e-06 38.6674 0.30138 41.3301 0.894615 43.933H13.435C9.00639 31.4451 15.6081 17.7566 28.1803 13.3576C35.2991 10.8682 43.1824 11.8293 49.486 15.9541H36.2127C25.0967 15.9604 16.0871 24.9159 16.0935 35.9575C16.0935 38.7021 16.6645 41.4152 17.7685 43.933H27.219C22.765 39.0172 23.1679 31.4451 28.1168 27.0209C30.3375 25.0357 33.2243 23.9391 36.2127 23.9485H70.3317C65.2083 9.59202 51.5353 0 36.2 0" fill="white"/>
</g>
<defs>
<clipPath id="clip0_2039_45">
<rect width="154" height="72" fill="white"/>
</clipPath>
</defs>
</svg>
