<svg width="116" height="104" viewBox="0 0 116 104" fill="none" xmlns="http://www.w3.org/2000/svg">
<g clip-path="url(#clip0_2039_42)">
<path d="M86.0556 98.0749L90.9862 103.703H87.7834L83.9697 99.3649V103.703H81.3149V93.2078H83.9697V97.0169L87.7198 93.2078H90.8591L86.0549 98.0749H86.0556ZM6.61572 96.043C8.55358 96.043 9.43875 95.112 9.43875 93.7154C9.43875 92.3188 8.55358 91.3877 6.61572 91.3877H2.78116V96.043H6.61572ZM6.70019 88.8911C10.0294 88.8911 12.2206 90.6046 12.2206 93.7154C12.2206 96.8262 10.0294 98.5404 6.70019 98.5404H2.78116V103.703H0V88.8911H6.70019ZM18.4977 101.503C20.0565 101.503 21.5107 100.381 21.5107 98.4556C21.5107 96.5296 20.0565 95.4086 18.4977 95.4086C16.9389 95.4086 15.4848 96.5303 15.4848 98.4556C15.4848 100.381 16.9389 101.503 18.4977 101.503ZM18.4977 92.9112C21.3634 92.9112 24.2073 94.7734 24.2073 98.4556C24.2073 102.138 21.3634 103.999 18.4977 103.999C15.6321 103.999 12.7881 102.138 12.7881 98.4556C12.7881 94.7734 15.6321 92.9112 18.4977 92.9112ZM30.9855 101.503C29.3841 101.503 28.2044 100.339 28.2044 98.4556C28.2044 96.5724 29.426 95.4086 30.9855 95.4086C31.9335 95.4086 32.7551 95.8531 33.4086 96.8472L35.6843 95.5355C34.9255 93.9061 33.2822 92.9119 31.0072 92.9119C28.0361 92.9119 25.5084 95.1127 25.5084 98.4556C25.5084 101.798 27.9105 104 31.0072 104C33.2403 104 34.7363 102.984 35.7897 101.186L33.5984 99.9798C32.966 100.869 32.2923 101.503 30.9862 101.503M59.2527 99.1546C59.1263 100.763 58.8094 101.123 58.2621 101.123C57.8881 101.123 57.7119 101.081 57.4556 101.014L57.4686 103.729C57.4686 103.729 57.7986 103.831 58.4094 103.831C60.6635 103.831 61.5068 102.371 61.7176 99.2604L61.9703 95.5993H64.9616V103.683H67.6164V93.2085H59.6945L59.2519 99.1546H59.2527ZM54.356 97.0597C54.1033 95.7479 53.1135 94.9438 51.6384 94.9438C50.2478 94.9438 49.1944 95.8748 48.8147 97.0597H54.356ZM51.7222 92.9127C54.7142 92.9127 56.821 95.0924 56.821 98.1604V99.0915H48.7721C48.9403 100.7 50.0782 101.715 51.6377 101.715C53.0492 101.715 53.6391 101.102 54.2925 100.276L56.3993 101.334C55.3459 103.133 53.8918 104.001 51.5951 104.001C48.6876 104.001 46.2227 101.779 46.2227 98.4563C46.2227 95.1337 48.6883 92.9127 51.7215 92.9127M77.2349 97.0597C76.9822 95.7479 75.9916 94.9438 74.5173 94.9438C73.1267 94.9438 72.0733 95.8748 71.6935 97.0597H77.2349ZM74.601 92.9127C77.593 92.9127 79.6998 95.0924 79.6998 98.1604V99.0915H71.6509C71.8191 100.7 72.957 101.715 74.5165 101.715C75.9281 101.715 76.5179 101.102 77.1714 100.276L79.2782 101.334C78.2248 103.133 76.7706 104.001 74.474 104.001C71.5664 104.001 69.1015 101.779 69.1015 98.4563C69.1015 95.1337 71.5664 92.9127 74.6003 92.9127M36.6143 95.5362H39.7326V103.704H42.3874V95.5362H45.5057V93.2085H36.6143V95.5362ZM96.2561 101.503C97.8149 101.503 99.269 100.382 99.269 98.4563C99.269 96.5303 97.8149 95.4093 96.2561 95.4093C94.6973 95.4093 93.2432 96.5311 93.2432 98.4563C93.2432 100.381 94.6973 101.503 96.2561 101.503ZM96.2561 92.9119C99.1217 92.9119 101.966 94.7741 101.966 98.4563C101.966 102.138 99.1217 104.001 96.2561 104.001C93.3905 104.001 90.5465 102.138 90.5465 98.4563C90.5465 94.7741 93.3905 92.9119 96.2561 92.9119ZM112.529 93.2063L109.648 100.557L106.766 93.2063H103.296V103.683H105.82V97.0503L108.617 103.683H110.677L113.474 97.0503V103.683H115.998V93.2063H112.528H112.529Z" fill="white"/>
<path d="M55.8448 54.2613L84.1762 25.9857L58.2325 0L43.5447 14.7215C39.155 19.1165 39.7484 21.9924 39.7484 27.8957V68.2838C39.7484 71.4055 42.3267 74.0747 45.575 74.0747H75.5836L74.7389 73.227L55.8441 54.262L55.8448 54.2613ZM45.5793 73.578C41.3426 73.578 40.6596 69.423 42.4639 67.6218L55.4838 54.6224C55.4896 54.6166 74.3887 73.578 74.3887 73.578H45.5793Z" fill="white"/>
</g>
<defs>
<clipPath id="clip0_2039_42">
<rect width="116" height="104" fill="white"/>
</clipPath>
</defs>
</svg>
