<svg width="86" height="66" viewBox="0 0 86 66" fill="none" xmlns="http://www.w3.org/2000/svg">
<path d="M25.9133 11.5179C24.6242 7.13776 21.1249 7.61783 18.7323 9.65788C12.8386 15.1178 5.16454 26.578 10.076 43.0798C14.1893 57.0598 31.3047 66 31.3047 66H11.3527C11.3527 66 1.05059 54.4198 0.129647 40.7999C-1.03677 23.58 5.83976 12.7198 13.8208 5.64001C21.3107 -1.02007 28.4323 -3 28.4323 -3L43 44.8688L57.5677 -3C57.5677 -3 64.6893 -1.02006 72.1792 5.64001C80.1602 12.7198 87.0368 23.58 85.8704 40.7999C84.9494 54.4198 74.6473 66 74.6473 66H54.6953C54.6953 66 71.8093 57.0598 75.924 43.0798C80.8355 26.5798 73.1614 15.1197 67.2677 9.65788C64.8733 7.61783 61.374 7.13776 60.0867 11.5179C55.6664 25.4979 43.0018 65.5535 43.0018 65.5535C43.0018 65.5535 30.3373 25.4845 25.917 11.5179H25.9133Z" fill="white"/>
</svg>
