<svg width="172" height="162" viewBox="0 0 172 162" fill="none" xmlns="http://www.w3.org/2000/svg">
<path fill-rule="evenodd" clip-rule="evenodd" d="M126.014 43.5703C124.434 42.3698 122.498 41.5366 120.748 40.6204C119.93 40.2018 118.081 38.8077 117.529 38.3259C115.783 36.7897 114.731 35.1667 112.652 33.9819C112.652 33.9819 113.108 33.6581 113.561 33.4646C115.101 32.8051 116.843 32.7972 118.343 32.1022C116.43 29.247 113.061 29.6379 110.894 27.5962C112.18 27.8371 113.878 27.691 115.184 27.5686C117.585 27.3395 117.958 26.4984 119.089 24.8121C119.418 24.3224 119.867 23.8367 120.26 23.5721C122.049 22.3913 126.661 22.96 128.677 22.96C126.891 22.0083 124.105 20.2312 122.049 20.0455C114.097 19.0741 111.053 21.8345 105.791 19.2004C105.211 18.9753 108.346 17.0995 110.243 17.0324C109.858 16.7757 107.501 15.9582 106.628 15.978C104.552 16.0293 103.537 16.7441 101.949 17.8775C101.949 16.3768 102.048 15.279 103.533 14.3233C104.441 13.7428 106.247 13.3281 106.93 12.8384C107.604 12.3488 108.307 11.014 108.553 10.2636C108.807 9.5133 108.763 7.59403 108.763 7.59403C107.731 8.8617 106.941 9.83712 105.247 10.1688C105.247 10.1688 98.4688 11.4484 96.8418 12.017C95.2187 12.5817 93.4448 14.3273 93.4448 14.3273C93.4448 14.3273 93.2027 14.0271 93.1829 13.2728C93.163 12.5265 96.7505 6.01045 96.2743 6.31058C95.802 6.61071 93.6154 7.25046 92.3058 7.70066C91.0042 8.15086 88.7581 8.62475 86.1032 9.80948C83.4364 10.9942 81.9085 13.5927 81.6665 13.2373C81.4204 12.874 80.8172 12.1473 80.7061 10.9982C80.591 9.84897 81.6863 7.94945 82.1228 6.91084C83.0515 4.69145 83.4483 2.01001 81.7816 0.0078125C81.1744 0.473806 75.313 6.60676 74.1145 8.66029C72.9121 10.7217 71.2057 15.2869 71.2057 15.2869L69.2056 21.3645C69.2056 21.3645 68.6024 20.8393 68.2373 20.2943C67.8801 19.7454 68.0666 17.6011 68.0666 17.6011C68.5548 14.3786 68.6222 10.4532 65.6538 8.20615C64.7847 7.54665 63.6339 7.62563 63.6339 7.62563C63.6339 7.62563 64.4196 8.70373 64.3522 10.0899C64.2887 11.4602 63.8998 12.8898 63.8998 12.8898L62.3878 18.9753C61.102 23.8999 61.6179 26.7432 61.4433 26.7235C59.1456 26.4865 57.3836 24.4567 56.9114 22.34C56.6852 21.3014 56.6852 17.763 56.6852 17.763C54.1136 21.5423 52.6889 23.9828 53.4747 28.5677C54.0184 31.7349 55.8042 35.06 57.4193 37.8402C58.2487 39.2777 58.8519 41.8367 58.8519 41.8367C57.8797 40.8692 56.9709 40.0359 55.4589 40.0359C53.2445 40.0359 50.1253 41.967 48.2046 40.8139C48.0419 40.7151 47.4903 40.49 47.4903 40.49C47.4903 40.49 47.78 41.1377 47.9387 41.3944C50.0063 44.6998 52.6175 44.1153 55.7486 45.612C57.4431 46.4018 58.3956 46.9942 59.5861 48.5225C58.7289 48.096 56.4391 48.4119 55.5819 48.72C54.1573 49.2215 52.9707 50.3115 51.423 50.8209C48.9586 51.6423 45.4704 51.3145 43.0972 50.2048C42.5456 49.9481 41.4106 49.2649 41.4106 49.2649C41.4106 49.2649 41.6051 49.8534 41.867 50.3352C42.125 50.8209 43.9465 53.3523 44.5338 53.9328C46.6331 56.0219 48.8435 56.8828 51.677 57.2263C56.5026 57.4475 60.6893 56.5036 65.3086 57.3685C66.8721 57.6647 68.6897 58.6993 68.6897 58.6993C63.7529 60.1566 65.6141 62.913 59.5147 64.0425C63.6815 65.9144 66.9158 65.2588 70.9001 64.0425C73.6582 63.2013 76.6861 63.1697 76.6861 63.1697C74.8804 63.999 72.547 65.5589 71.4874 67.2215C68.904 71.2654 65.9475 73.4887 61.1457 74.0535C62.9434 76.8692 68.5746 75.637 71.0311 74.9341C73.932 74.1048 76.6662 72.6989 78.7973 70.5624C79.2219 70.1438 80.4918 68.8406 80.9442 68.3549C81.4006 67.8692 82.1228 67.2215 82.8292 66.7358C83.5475 66.25 84.8412 65.6972 85.5278 65.5431C86.2103 65.3773 87.8414 65.6063 87.8414 65.6063L87.7104 65.7011C87.5755 65.7998 87.1548 66.5462 86.8294 67.028C85.7659 68.6234 85.3254 70.7915 85.2023 72.6713C85.1388 73.6783 84.8412 75.3606 84.8412 75.3606C87.4128 72.9477 89.0954 68.4576 92.3257 66.8424C92.8416 66.5817 93.4646 66.6133 93.4646 66.6133C93.3019 69.7963 91.2542 72.5015 91.2542 75.6884C91.2542 82.1807 97.4608 83.3654 97.4291 83.1403C97.187 81.3909 97.2624 78.1803 97.687 76.4664C98.4569 73.4176 100.096 70.3808 101.036 67.2965C101.497 65.784 101.437 63.7858 101.235 62.2377C102.104 62.1193 104.346 66.254 104.223 66.7713C104.223 65.6577 104.925 63.6634 105.033 62.3325C105.152 60.9424 104.854 59.1653 104.449 57.8305C106.124 58.4348 107.314 59.2957 108.418 60.6818C108.902 61.2979 109.652 62.3641 110.073 63.0473C111.033 64.5796 111.831 66.799 113.39 67.7823C114.148 68.2443 115.493 68.0548 116.351 67.9442C115.589 67.2412 114.906 66.7753 114.466 65.8038C113.612 63.9438 113.434 60.82 113.434 58.7072C113.434 55.2913 112.676 51.8635 110.922 48.9174C111.815 49.0241 112.624 49.2452 113.358 49.7902C113.743 50.0785 114.696 50.8367 115.216 50.5366C114.251 49.6638 114.565 47.9578 114.077 46.781C113.91 46.394 113.358 45.1618 113.358 45.1618C114.065 45.2803 114.795 45.8371 115.442 46.1294C116.914 46.8047 118.922 46.9903 120.513 47.0692C123.137 47.2114 125.803 47.1877 128.184 48.3685C128.45 48.4988 129.585 49.4387 129.585 49.4387C129.585 48.7397 129.589 48.0249 129.355 47.3694C128.752 45.6594 127.375 44.6248 126.01 43.5703H126.014ZM85.9444 60.7015C74.4757 60.7015 65.1736 51.433 65.1736 39.9925C65.1736 28.5519 74.4717 19.2913 85.9444 19.2913C97.4172 19.2913 106.715 28.5598 106.715 39.9925C106.715 51.4251 97.4212 60.7015 85.9444 60.7015Z" fill="white"/>
<path fill-rule="evenodd" clip-rule="evenodd" d="M0.400818 104.521V132.006H10.9727V124.073H16.7786C19.6319 124.033 21.9217 123.524 23.6479 122.537C25.3782 121.549 26.6282 120.317 27.3981 118.844C28.168 117.367 28.545 115.882 28.537 114.374C28.545 112.672 28.1243 111.076 27.287 109.583C26.4457 108.095 25.144 106.886 23.382 105.958C21.6161 105.03 19.3541 104.548 16.5841 104.521H0.400818ZM10.6949 110.879H12.9887C14.957 110.918 16.2746 111.29 16.9452 111.985C17.6199 112.68 17.9294 113.454 17.8858 114.299C17.85 115.393 17.5246 116.182 16.9055 116.668C16.2904 117.154 15.6079 117.458 14.8499 117.576C14.0919 117.687 13.4848 117.738 13.0244 117.719H10.6949V110.879Z" fill="white"/>
<path fill-rule="evenodd" clip-rule="evenodd" d="M34.4818 104.521L24.8107 132.006H35.3905L37.2438 126.075H45.5338L47.4228 132.006H58.5543L48.7284 104.521H34.4818ZM41.4662 111.037L44.3473 119.642H38.4661L41.3114 111.037H41.4702H41.4662Z" fill="white"/>
<path fill-rule="evenodd" clip-rule="evenodd" d="M72.4557 104.051C67.5507 104.09 63.7648 105.37 61.106 107.874C58.4471 110.373 57.0978 113.837 57.0661 118.268C57.0978 122.691 58.4471 126.154 61.106 128.658C63.7648 131.165 67.5507 132.437 72.4557 132.484C77.3607 132.437 81.1466 131.165 83.8054 128.658C86.4643 126.158 87.8136 122.694 87.8413 118.268C87.8136 113.841 86.4643 110.377 83.8054 107.874C81.1466 105.37 77.3607 104.094 72.4557 104.051ZM72.4557 110.642C73.7653 110.681 74.7256 111.128 75.3368 111.981C75.944 112.83 76.3329 113.845 76.4995 115.01C76.6662 116.182 76.7416 117.264 76.7218 118.264C76.7416 119.259 76.6662 120.345 76.4995 121.514C76.3329 122.687 75.9479 123.694 75.3368 124.547C74.7256 125.396 73.7653 125.842 72.4557 125.885C71.1501 125.846 70.1897 125.4 69.5786 124.547C68.9674 123.694 68.5785 122.683 68.4119 121.514C68.2452 120.345 68.1698 119.259 68.1896 118.264C68.1698 117.264 68.2452 116.182 68.4119 115.01C68.5785 113.841 68.9635 112.83 69.5786 111.981C70.1897 111.132 71.1501 110.685 72.4557 110.642Z" fill="white"/>
<path fill-rule="evenodd" clip-rule="evenodd" d="M92.9765 104.521V132.006H117.363V125.53H103.548V121.249H116.493V114.966H103.548V110.997H117.085V104.521H92.9765Z" fill="white"/>
<path fill-rule="evenodd" clip-rule="evenodd" d="M124.137 115.282V120.894H133.693C133.645 121.17 133.435 121.66 133.046 122.359C132.661 123.058 131.974 123.721 130.978 124.341C129.986 124.961 128.565 125.293 126.704 125.336C126.438 125.36 125.716 125.313 124.541 125.178C123.371 125.048 121.942 124.681 120.271 124.077V131.379C121.371 131.663 122.597 131.916 123.958 132.133C125.319 132.354 126.732 132.469 128.208 132.476C132.137 132.425 135.316 131.71 137.744 130.32C140.173 128.93 141.943 127.157 143.054 125.005C144.165 122.849 144.717 120.601 144.697 118.264C144.721 116.885 144.507 115.389 144.054 113.77C143.602 112.158 142.78 110.61 141.582 109.141C140.387 107.664 138.685 106.456 136.479 105.516C134.268 104.568 131.427 104.082 127.931 104.051C127.149 104.043 126.184 104.082 125.038 104.173C123.887 104.264 122.498 104.469 120.867 104.793L120.275 104.912V112.17C121.633 111.641 122.875 111.293 124.01 111.132C125.145 110.97 125.962 110.899 126.47 110.914C128.228 110.942 129.605 111.214 130.605 111.732C131.605 112.249 132.332 112.841 132.796 113.521C133.256 114.196 133.554 114.78 133.697 115.282H124.141H124.137Z" fill="white"/>
<path fill-rule="evenodd" clip-rule="evenodd" d="M170.861 124.077C169.456 124.519 168.321 124.807 167.46 124.949C166.595 125.088 165.912 125.151 165.416 125.143C163.234 125.103 161.587 124.677 160.484 123.863C159.376 123.058 158.642 122.102 158.273 121.008C157.904 119.914 157.737 118.919 157.765 118.031C157.797 116.005 158.472 114.358 159.805 113.082C161.138 111.811 162.94 111.155 165.226 111.116C166.293 111.12 167.293 111.226 168.23 111.424C169.163 111.621 170.016 111.874 170.79 112.174V104.916L170.159 104.797C169.524 104.667 168.635 104.509 167.496 104.335C166.357 104.161 164.996 104.067 163.412 104.051C159.333 104.094 156.055 104.801 153.594 106.164C151.134 107.53 149.352 109.283 148.257 111.436C147.162 113.588 146.626 115.863 146.646 118.264C146.65 121.052 147.285 123.504 148.547 125.637C149.809 127.761 151.662 129.428 154.11 130.636C156.559 131.845 159.567 132.457 163.135 132.48C164.135 132.484 165.277 132.413 166.559 132.255C167.837 132.097 169.274 131.805 170.869 131.383V124.077H170.861Z" fill="white"/>
<path fill-rule="evenodd" clip-rule="evenodd" d="M71.3882 76.1901C69.2453 76.8022 66.0229 77.4657 63.4275 76.9088V84.2897H56.3558V74.7803H45.7839V102.266H56.3558V92.1326H63.4275V102.266H73.9995V75.2621C73.1701 75.6135 72.3049 75.9216 71.3882 76.1822V76.1901Z" fill="white"/>
<path fill-rule="evenodd" clip-rule="evenodd" d="M94.6909 83.6499C92.921 82.7456 89.9526 80.5104 89.9526 75.6925C89.9526 75.3844 89.9724 75.0804 90.0042 74.7842H87.1112C86.6826 75.3331 86.2302 75.8544 85.7421 76.3085L82.8967 78.9781L83.5634 75.1435C83.5634 75.1435 83.5872 75.0014 83.6229 74.7842H76.317V82.9154H85.6309V102.274H96.2029V84.2699C95.6433 84.1041 95.0996 83.8553 94.6948 83.6499H94.6909Z" fill="white"/>
<path fill-rule="evenodd" clip-rule="evenodd" d="M23.6003 90.4937H23.4415V74.7842H12.8696V102.274H25.2194L32.2078 86.8763H32.3666V102.274H42.9385V74.7842H30.5887L23.6003 90.4937Z" fill="white"/>
<path fill-rule="evenodd" clip-rule="evenodd" d="M98.953 76.7825C98.7109 77.7658 98.5958 79.3099 98.5958 80.7158C98.5958 81.549 98.6355 82.3231 98.7149 82.9115H105.513V74.7803H99.576C99.334 75.4516 99.1236 76.1151 98.957 76.7785L98.953 76.7825Z" fill="white"/>
<path fill-rule="evenodd" clip-rule="evenodd" d="M161.238 79.8509C160.4 78.3621 159.095 77.1536 157.333 76.2217C155.567 75.2936 153.305 74.8158 150.535 74.7842H134.355V102.274H144.923V94.3401H150.729C153.579 94.3006 155.872 93.7912 157.599 92.8039C159.325 91.8167 160.575 90.5885 161.349 89.1115C162.119 87.6385 162.5 86.1457 162.484 84.6411C162.492 82.9391 162.071 81.3397 161.234 79.8509H161.238ZM151.836 84.5622C151.801 85.6561 151.475 86.4459 150.86 86.9356C150.241 87.4213 149.558 87.7254 148.801 87.8399C148.043 87.9584 147.435 88.0058 146.975 87.9821H144.65V81.1462H146.939C148.908 81.1857 150.225 81.5569 150.9 82.2519C151.574 82.9509 151.884 83.717 151.836 84.5661V84.5622Z" fill="white"/>
<path fill-rule="evenodd" clip-rule="evenodd" d="M118.426 91.5086H131.367V85.2335H118.426V81.2607H131.958V74.7842H107.85V102.27H132.236V95.7973H118.426V91.5086Z" fill="white"/>
<path fill-rule="evenodd" clip-rule="evenodd" d="M77.0552 57.3015C75.9757 56.1207 75.5035 54.395 75.6662 52.8035C78.6425 54.1027 81.4244 54.8333 84.6865 55.1097C85.2024 55.1137 85.7183 55.1255 86.2421 55.1374C86.2421 55.5915 86.0913 58.8851 86.3016 59.4261C86.1786 59.4261 86.0556 59.434 85.9286 59.434C82.734 59.434 79.718 58.6639 77.0512 57.3015H77.0552ZM86.3969 59.4261C86.5596 58.8653 86.4127 55.5876 86.4127 55.1374C87.5239 55.0781 88.6231 54.9913 89.7224 54.8412C90.147 55.1769 90.5597 55.4178 91.1114 55.2993C91.1272 55.1492 91.1471 55.011 91.1669 54.8649C90.9963 54.8017 90.8177 54.7425 90.6471 54.6793V54.6398C91.2622 54.5213 91.8614 54.3515 92.4606 54.1896C92.5678 54.1896 92.5876 54.2686 92.6432 54.3515C93.4157 54.1725 93.8311 54.083 93.8893 54.083C94.1274 54.2054 94.3933 53.7789 94.3933 53.5617C94.4687 53.4195 95.306 53.147 95.4846 53.072C95.2862 53.5933 95.4727 53.4037 95.5044 53.8381C95.5163 53.8342 95.5282 53.8263 95.5401 53.8184C95.5401 53.5024 95.552 53.4353 95.7028 53.1826C95.7425 53.1747 95.7901 53.1747 95.8338 53.1747C95.9092 53.3287 95.7822 54.0079 95.7663 54.1659C95.6235 54.8728 95.4528 55.7653 95.0163 56.3498C94.4131 56.6538 93.8139 56.9619 93.2186 57.2659C93.0083 57.4989 93.0995 57.4279 93.0718 57.653C93.0321 57.6727 92.9924 57.6964 92.9527 57.7201C93.4408 57.957 94.0401 57.187 94.3139 57.3212C94.1234 57.5029 93.925 57.6648 93.7107 57.8149C91.4606 58.7942 88.9882 59.3629 86.3929 59.4222L86.3969 59.4261ZM94.1869 57.6056C97.695 55.9706 100.644 53.3208 102.644 50.043C102.886 49.2058 102.933 48.3054 102.945 47.4366C102.925 47.4366 102.917 47.4445 102.91 47.4485C101.735 48.807 100.501 49.9483 99.0641 51.0185C99.0932 51.0237 99.1461 51.004 99.2228 50.9592C99.2228 50.9592 99.2427 50.9948 99.2467 51.0185C99.1937 51.058 99.0694 51.1251 98.8736 51.2199C98.8736 51.2199 98.8657 51.2041 98.9173 51.1251C98.0006 51.7214 97.0481 52.2743 96.0838 52.7837C96.0282 53.0088 96.0203 53.1786 96.191 53.3287C95.8616 53.6249 95.7822 54.8925 95.6354 55.4059C95.5798 55.5678 95.3496 56.022 95.3496 56.172C95.9052 55.6587 96.5045 54.9202 97.191 54.5845C97.5878 54.8057 97.9291 54.2093 98.1117 53.8618C98.2863 53.7118 98.7268 53.4472 98.7506 53.2221C98.9331 53.1036 99.1236 52.9812 99.3141 52.8666C99.3141 53.0009 99.0641 53.1786 99.1712 53.3247C100.116 53.3247 100.556 52.1005 100.909 51.4608C100.929 51.5832 100.913 51.7372 101.088 51.6266C101.124 51.6859 101.009 51.832 101.08 51.8991C100.894 52.4638 99.7983 53.3445 99.3816 53.8184C97.9014 55.169 96.4172 56.1286 94.6829 57.1593C94.5639 57.2975 94.3575 57.4555 94.179 57.6095L94.1869 57.6056ZM67.0071 44.8026C68.3682 50.0865 71.916 54.5174 76.6266 57.0764C75.6583 55.8522 75.4797 54.2883 75.4797 52.7245C74.0788 51.986 72.7256 51.1646 71.4835 50.1813C71.4398 50.1694 71.3962 50.1615 71.3565 50.1536C71.0271 49.6363 70.1421 48.6609 70.2731 48.0369C70.5588 47.8315 70.4596 47.8315 70.4001 47.4603C70.8128 47.8947 71.297 48.3449 71.6303 48.8425C71.7255 49.2532 71.8168 49.6639 71.9121 50.0786C71.8248 50.0904 71.7374 50.1023 71.6501 50.1141C72.8645 51.0422 74.1225 51.8438 75.4916 52.527C75.5868 50.8802 75.8805 49.3164 76.2059 47.6973C76.1107 47.6894 76.0154 47.6815 75.9242 47.6815C75.694 47.9461 75.4083 47.8947 75.1106 47.796C75.0868 47.5433 75.063 47.2945 75.0392 47.0417C75.4254 47.0917 75.653 47.1154 75.7218 47.1128C76.1186 46.6705 76.1186 46.7811 76.0511 46.2637C76.1107 46.1848 76.1702 46.1137 76.2377 46.0387C76.321 46.1729 76.4043 46.2993 76.4916 46.4375H76.5274C76.5829 46.2282 76.6385 46.0229 76.698 45.8135C76.698 45.1422 76.3964 45.2212 75.8289 45.0395C75.7138 44.846 75.5948 44.6604 75.4837 44.4669C75.4162 43.9496 75.4241 43.6731 75.1424 43.2743C75.1067 42.7609 75.0749 42.2515 75.0471 41.746C75.1424 41.6117 75.2416 41.4814 75.3368 41.3511C75.3249 40.8772 75.3011 40.7508 75.5749 40.3638C75.9718 40.7271 76.6028 40.502 77.0432 40.7745C77.3726 41.7183 78.4124 42.3581 78.5354 43.373C78.374 43.4862 78.2179 43.6034 78.0671 43.7245C77.8687 44.2971 77.7219 44.3287 78.1187 44.7473C78.0115 44.8737 77.7774 45.0395 77.7774 45.2133C77.9917 45.3357 78.1901 46.011 78.2933 46.2558C77.8885 46.2558 78.079 46.0308 77.7417 46.4454C77.5552 46.3269 77.0472 45.9241 76.8369 45.9241C76.7099 46.4612 76.6067 46.5955 76.9004 47.0575C76.7615 47.1365 76.6305 47.2194 76.4956 47.2984C76.0988 49.0518 75.7178 50.825 75.6702 52.6257C79.0394 54.237 82.5435 54.932 86.254 54.9755C86.2461 52.8785 86.2461 50.7855 86.2381 48.6964C86.2064 48.6964 86.1746 48.7003 86.1349 48.7043C86.0794 48.8109 86.0159 48.9254 85.9564 49.04C85.8571 49.0518 85.7659 49.0637 85.6706 49.0755C85.6032 48.6964 85.5278 48.3252 85.4563 47.95C85.5119 47.8315 85.5278 47.7131 85.5317 47.5867C85.5992 47.5867 85.6667 47.5985 85.7381 47.6143C85.8929 47.9895 85.9365 47.9342 86.373 48.0014C86.3056 48.0645 86.2381 48.1277 86.1746 48.1988C86.1746 48.3686 86.3572 48.495 86.5199 48.495C86.5358 48.6964 86.6826 49.273 87.0358 48.9254C87.0358 48.7517 87.0358 48.574 87.0358 48.4042C87.3691 48.2107 87.4683 47.8236 87.639 47.4801C87.7937 47.3379 87.9604 47.1878 88.1271 47.0496C88.2144 47.0733 88.3176 47.1075 88.4366 47.1523C88.4525 47.4327 88.1588 48.0053 88.266 48.1791C88.3573 48.187 88.4525 48.187 88.5517 48.2028C88.762 48.6372 88.6906 48.6845 89.147 48.7043C89.1113 49.0123 88.6192 49.2848 88.3969 49.4546C88.2938 49.9799 88.6231 50.122 88.5517 50.6038C88.4763 50.5841 88.2104 50.0549 88.0239 50.2444C87.9604 50.5446 87.7422 50.7104 87.4128 50.663C87.4326 49.9088 87.2778 49.8851 86.7223 49.3164C86.6707 49.19 86.5437 48.7872 86.4127 48.7596C86.4127 50.8289 86.4127 52.9022 86.4207 54.9755C87.4604 54.9202 88.4882 54.8254 89.516 54.6832C89.0121 54.2923 88.5081 53.8974 88.0041 53.5064C88.6231 53.5459 88.9565 53.7868 89.4962 54.0869C89.6391 54.1067 90.0915 54.1304 90.1907 54.2251C90.155 54.2765 90.155 54.3476 90.1907 54.3949C90.2595 54.3976 90.3256 54.391 90.3891 54.3752C90.3891 54.4265 90.397 54.4818 90.405 54.5371C91.0796 54.3752 91.7661 54.2212 92.4328 54.0316C92.3971 53.9724 92.3574 53.9092 92.3178 53.8579C92.3733 53.767 92.4289 53.6841 92.4884 53.6012H92.5598C93.2821 53.9842 94.0917 52.9575 94.4448 52.4401C94.6631 52.3019 94.8734 52.5626 95.0441 52.6929C94.8218 52.835 94.7068 53.0444 94.6075 53.2813C95.0599 53.0838 95.4925 52.8877 95.9052 52.6929C95.8933 51.5239 95.7901 50.3906 95.6433 49.2374C95.6195 49.2374 95.5997 49.2374 95.5758 49.2453C95.5243 49.0479 95.5243 49.0795 95.2941 49.0637C95.2703 49.0202 95.2544 48.9768 95.2425 48.9333C95.433 48.882 95.306 48.3291 95.2941 48.2225C95.3377 48.1988 95.3814 48.187 95.4251 48.1672C95.4251 47.9777 95.2544 46.6429 95.0401 46.3783C95.0123 46.5757 94.9885 46.7732 94.9687 46.9706C94.925 46.9075 94.8814 46.8561 94.8417 46.8008C94.8933 46.6666 94.9488 46.4257 95.048 46.3269C94.925 45.857 94.806 45.3831 94.6909 44.9171H94.6671C94.6472 45.4739 94.2861 45.7859 94.3694 46.3309C94.1551 46.6666 93.9409 47.0022 93.7345 47.3379C93.5361 47.4603 93.3377 47.5788 93.1472 47.7052C93.0757 47.6499 93.048 47.642 92.9567 47.642C92.9064 47.7262 92.8548 47.8368 92.8019 47.9737C92.5757 48.0922 92.1709 48.2225 92.0717 48.4476C92.0479 48.4121 92.0241 48.3686 92.0043 48.341C91.782 48.341 91.5638 48.4437 91.3534 48.5068C91.1114 48.3449 90.7582 48.0369 90.4724 47.9895C90.1192 48.1554 89.7542 48.3212 89.3851 48.4476C89.3772 48.4871 89.3771 48.5266 89.3692 48.5661C89.2105 48.5542 89.0517 48.5424 88.897 48.5305C88.7422 48.2186 88.7541 48.0487 88.4287 48.029C88.4962 47.7842 88.7105 47.3142 88.5914 47.0654C88.3692 46.9667 88.143 46.868 87.9207 46.7692C87.8612 46.6942 87.6787 46.3704 87.6033 46.5955C87.6628 46.7258 87.9287 46.939 87.9445 47.0062C87.5239 47.3971 87.3612 47.6775 87.1151 48.2028C86.754 48.3884 86.877 48.3963 86.877 48.8386H86.7183C86.6866 48.5332 86.6627 48.3673 86.6469 48.341C86.5516 48.3291 86.4445 48.341 86.377 48.2699C86.3797 48.2541 86.4762 48.1619 86.6667 47.9935V47.9342C86.5119 47.8157 86.1865 47.8118 85.996 47.7842C85.9445 47.6815 85.9008 47.5749 85.8571 47.4761C85.8294 47.4761 85.7936 47.4682 85.7659 47.4603C85.8571 47.4406 86.5318 47.4208 86.5715 47.4011C86.5715 47.0812 86.1429 46.8561 85.8532 46.9075C84.8531 47.4485 84.2499 46.2519 83.3412 46.1808C83.1904 46.09 83.0435 45.9952 82.8927 45.9004C82.853 45.7267 82.8332 45.6069 82.8332 45.5411C83.0105 45.5463 83.1136 45.5411 83.1427 45.5253C83.1427 45.3318 83.0396 45.158 83.0197 44.9724C83.2499 44.7236 83.4364 44.6723 83.1983 44.4037C82.8491 44.1826 82.4919 43.9654 82.1467 43.7442C82.1467 43.6415 82.1467 43.5468 82.1546 43.448C82.0752 43.373 82.0038 43.3059 81.9363 43.2387C82.0157 42.7806 82.1824 42.9149 82.6943 42.8478C83.0792 42.7214 83.3927 42.3857 83.7975 42.3304C83.8134 42.3041 83.8412 42.0277 83.8809 41.5011C84.4722 41.3708 84.4126 41.4616 84.5555 40.8851C85.0436 40.8495 85.1865 40.9917 85.2698 40.5218C85.377 40.4665 85.4881 40.3835 85.6032 40.3835C85.7421 40.5376 85.877 40.6876 86.0119 40.8495C86.2222 41.7144 86.2183 41.509 87.1548 41.7815C87.3612 41.9474 87.5596 42.1211 87.7699 42.287C88.0953 42.2317 88.4287 42.1804 88.7541 42.133C89.0517 42.2159 89.3414 42.3028 89.6391 42.3897C90.1669 42.3897 90.909 41.6472 91.2622 41.2721C91.2503 41.1576 91.1352 40.9838 91.1431 40.9127C91.2661 40.8811 91.4011 40.8574 91.532 40.8377C91.6153 40.739 92.5281 39.8228 92.5281 39.7477C92.1312 39.3331 92.2344 39.3133 91.7066 39.4871C91.6934 39.4687 91.6722 39.3449 91.6431 39.1159C92.2622 38.9421 91.8257 38.3261 91.8257 37.9074C91.8759 37.8785 91.9897 37.785 92.167 37.6271H92.7741C92.9726 37.8324 93.171 38.0378 93.3694 38.2431H94.0718C94.1274 38.3103 94.1909 38.3774 94.2464 38.4406H94.3377C94.4647 38.2471 94.5837 38.0615 94.7068 37.8759C94.7306 37.9206 94.8337 38.2655 95.0163 38.9105C94.6155 39.3291 94.6512 39.2501 94.925 39.7675C94.7226 39.8465 94.671 40.3085 94.6512 40.5099C94.179 40.6007 94.3615 41.0391 94.1869 41.4458C93.8575 41.8526 93.8813 41.7618 94.0599 42.2515C95.0838 45.5253 96.0084 48.9057 96.0719 52.3612C96.2664 52.2624 96.4648 52.1677 96.6632 52.0768C96.6632 52.0768 96.4687 52.1848 96.0798 52.4007V52.61C98.7744 51.2396 100.961 49.4902 102.906 47.2076C102.906 47.1404 102.906 47.0773 102.913 47.0101C102.457 42.2238 100.239 37.4059 96.81 33.9939C96.4211 33.6977 96.0322 33.4055 95.6393 33.1172C95.3536 32.4695 94.8853 32.1497 94.3456 31.66C94.1472 31.9759 94.3456 32.7381 94.7306 32.8289C94.7068 32.8842 94.6869 32.9395 94.675 32.9987C94.5123 32.9711 94.3298 33.1527 94.1909 33.2357C94.1988 33.3107 94.2028 33.3976 94.2107 33.4766C94.0321 33.6622 93.8535 33.8517 93.6789 34.0452C93.6789 34.7087 93.6908 35.3761 93.6988 36.0435C93.7821 36.1027 93.8972 36.0553 93.9964 36.0435C94.044 36.1027 94.0996 36.1619 94.1591 36.2212H94.3417C94.429 36.1027 94.4964 35.925 94.552 35.7828C94.5996 35.7868 94.6552 35.7947 94.7107 35.7986C94.7068 35.8816 94.6195 35.9211 94.675 36.0119C94.8099 36.0474 94.9488 36.0751 95.0877 36.1106C95.2623 36.4502 95.4449 36.7859 95.6274 37.1334C95.679 37.9074 95.8814 38.8078 95.56 39.5187C95.2425 39.5187 95.1909 39.4318 95.1195 39.7438C94.8496 39.2738 94.8179 39.3607 95.1869 38.9698C95.1552 38.5275 95.0004 37.9825 94.802 37.5836H94.6949C94.556 37.7929 94.4171 38.0022 94.2782 38.2194C94.2266 38.1681 94.1869 38.1207 94.1432 38.0773H93.4527C93.2464 37.868 93.044 37.6587 92.8376 37.4573C92.159 37.4573 92.167 37.4059 91.6471 37.8403C91.6471 38.1207 91.782 38.4998 91.8138 38.8039C91.5439 39.0448 91.1828 38.9619 90.8534 39.0487C90.028 39.6214 89.9248 39.3647 88.9605 39.4042C88.8308 39.4805 88.7501 39.5226 88.7184 39.5305C88.3771 39.1751 88.2581 39.1435 87.766 39.0408C87.512 39.2778 87.5437 39.5266 87.5437 39.8504C87.127 39.8425 86.758 39.8386 86.3532 39.7556C86.0635 39.7951 85.75 40.036 85.4762 40.1545C85.4087 40.0795 85.3412 40.0044 85.2817 39.9373C84.9642 39.9373 84.9285 39.8425 84.7023 39.6174C84.4484 39.5226 84.2579 39.6174 84.0952 39.3884C84.0079 39.3884 83.9761 39.4042 83.9007 39.4318C83.8174 39.183 83.6547 38.4603 83.488 38.2945C83.4324 38.2945 83.2406 38.3274 82.9126 38.3932C82.9007 38.1799 82.6189 38.1799 82.4483 38.1207C82.3689 37.8759 82.3173 37.7403 82.2935 37.7139C82.2697 37.6876 81.6916 37.6679 80.5593 37.6547C80.5117 37.7258 80.5236 37.8324 80.5236 37.9153C80.345 37.939 80.2736 37.9035 80.2458 38.0812C80.1624 38.0852 80.1307 38.0931 80.0632 38.1325C80.0712 38.2471 80.087 38.3655 80.1069 38.484C80.0275 38.4761 79.9561 38.4722 79.8847 38.4643C79.71 38.0536 79.6267 38.1325 79.1703 38.097C78.9878 37.8601 78.7973 37.6231 78.6108 37.3862C78.3965 37.3941 78.079 37.3427 77.8925 37.4375C77.7219 37.2677 77.4004 37.635 77.2575 37.7337C77.2575 38.0022 77.2972 38.3261 77.2139 38.5827C77.1901 38.5748 77.161 38.5472 77.1266 38.4998C76.9718 38.4998 76.6543 38.8078 76.5948 38.9658C76.5829 39.2857 76.575 39.6135 76.567 39.9412C76.5154 39.9412 76.4678 39.9491 76.4242 39.9531C75.9519 39.1554 75.5154 38.5906 75.444 37.6587H75.5868C75.7297 37.477 75.686 37.2519 75.9122 37.1097C76.825 36.8254 76.8686 37.169 76.2694 35.9763C76.3091 35.5933 76.4639 35.3919 76.2297 35.0838C76.2496 35.0365 76.2694 34.9851 76.2932 34.9417C76.8567 35.1668 76.7813 34.2427 76.8051 33.8794C77.1504 33.7727 77.4957 33.6701 77.8449 33.5713C78.1425 33.366 77.9719 32.821 77.9481 32.5525C78.1504 32.6315 78.3965 32.7697 78.6187 32.7697C78.9164 32.4577 79.214 32.1457 79.5156 31.8377C79.4322 32.2879 79.4402 32.2918 79.0751 32.5999C79.0751 32.7697 79.1108 32.975 79.1862 33.1251C79.2219 33.1251 79.2537 33.1251 79.2934 33.133C79.3529 33.0461 79.4203 32.9592 79.4878 32.8723C79.5394 32.9987 79.595 33.1251 79.6505 33.2515C79.6862 33.2515 79.718 33.2515 79.7497 33.2554C79.8132 33.1409 79.8727 33.0224 79.9323 32.9118C80.0037 32.8987 80.1069 32.8921 80.2418 32.8921C80.2458 33.0264 80.218 33.1685 80.3807 33.1685C80.472 33.0461 80.5593 32.9276 80.6506 32.8052C80.6638 33.0158 80.6783 33.1304 80.6942 33.1488C81.0117 33.1369 81.6903 33.058 81.7935 33.0619C81.7538 33.1251 81.7339 33.2001 81.7935 33.2594C81.9125 33.2594 82.0197 33.2594 82.1308 33.2278C83.1943 31.4467 84.2817 29.7012 85.4762 27.9992C85.5238 27.9755 85.623 28.0268 85.6349 28.0663C85.3492 28.4691 85.0635 28.8719 84.7857 29.2866C84.4444 29.7999 82.1109 33.1488 82.3173 33.4568C82.4879 33.4292 82.611 33.2831 82.7419 33.1685C82.8504 33.2975 83.0197 33.5213 83.2499 33.8399C83.3967 33.8596 83.4483 33.7648 83.5475 33.674C83.5475 33.5397 83.4959 33.4608 83.4404 33.3423C83.4404 32.9948 83.738 32.7144 83.9999 32.5327C84.0396 32.5525 84.0872 32.5762 84.1388 32.5999C84.0118 33.0619 83.8848 33.5318 83.7658 34.0018C83.738 34.0294 83.3927 34.1716 83.2499 34.2466C83.2499 34.4243 83.4483 34.5744 83.619 34.5744C83.7142 34.4599 84.1348 33.8794 84.2658 33.8794C84.2618 33.986 84.2618 34.1045 84.2618 34.219C84.3849 34.3414 84.5912 34.4362 84.5912 34.1913C84.5595 34.1756 84.5317 34.1598 84.5079 34.1479C84.5158 34.0294 84.5277 33.9149 84.5357 33.8004C84.4126 33.7333 84.2817 33.6701 84.1587 33.6029C84.1428 33.3581 84.2023 33.0303 84.3571 32.8447C84.3571 33.1804 84.3809 33.1488 84.6904 33.3107C84.7354 33.2817 84.7658 33.2501 84.7817 33.2159C84.738 33.129 84.6904 33.0461 84.6507 32.9592C84.7896 32.821 84.996 33.0185 85.127 33.0935C85.0635 33.2712 84.8928 33.6345 85.2341 33.6345C85.5397 33.3265 85.3055 32.9197 85.1666 32.6472C85.1706 32.6315 85.1785 32.6196 85.1904 32.6078C85.6905 32.4814 85.7063 32.5762 85.7778 32.0904C85.9087 32.0114 86.0397 31.9364 86.1786 31.8574C86.1826 30.6293 86.1905 29.4011 86.1945 28.169H86.3492C86.3492 29.3853 86.3572 30.5977 86.3691 31.814C86.5675 31.8021 86.8016 31.8811 86.8016 31.6442C86.885 31.6047 86.9207 31.5218 86.9485 31.4349C86.9617 31.4428 87.0133 31.4467 87.1032 31.4467C87.1866 31.6995 87.389 31.4388 87.5636 31.4388C88.012 31.6955 87.6429 32.0233 87.4366 32.3827C87.6668 32.5367 87.9128 32.513 87.9644 32.1576C88.008 32.2128 88.0517 32.2681 88.1033 32.3274H88.2025C88.4565 31.9325 88.7541 32.2721 89.0875 31.9996C89.0875 31.893 89.0557 31.8337 89.0756 31.739C88.3692 30.4989 87.631 29.2708 86.8532 28.0702C86.8638 28.0518 86.9114 28.0229 86.9961 27.9834C87.7898 29.1957 88.5954 30.4358 89.2462 31.7232C89.4446 31.893 89.8692 32.4024 90.2026 32.2365C90.2145 32.1141 90.1629 31.9996 90.1312 31.8851C90.3931 31.9048 90.4963 31.7311 90.6788 31.5533C90.6629 31.3717 90.5796 31.3164 90.4764 31.1584C90.532 31.04 90.8455 30.9017 90.9606 30.8307C91.0002 30.8583 91.036 30.8899 91.0836 30.9215C91.1894 30.911 91.3521 30.8807 91.5717 30.8307C91.663 30.6648 91.7503 30.4989 91.8455 30.341C92.1551 30.3449 92.4567 30.5108 92.4289 30.1317C90.8494 29.0417 89.143 28.2677 87.3334 27.6556C87.3453 27.6003 87.3652 27.549 87.385 27.5016C89.2105 28.1137 90.8852 28.8877 92.4924 29.9579C92.4963 29.8868 92.5043 29.8157 92.5122 29.7486C92.6921 29.717 92.8072 29.6881 92.8575 29.6617C92.8575 29.6222 92.8575 29.5867 92.8654 29.5591C92.7424 29.4801 92.6273 29.405 92.5122 29.334C92.6829 28.789 93.0916 28.4178 93.6631 28.3309C93.6869 28.2914 93.6869 28.2282 93.667 28.1808C93.6154 28.165 93.5361 28.165 93.5043 28.1137C93.54 28.0623 93.5678 28.015 93.6035 27.9636C93.7305 27.9636 93.9766 28.2045 94.0758 28.2835C93.9647 28.3941 93.9012 28.5283 93.8297 28.6784C93.7543 28.6666 93.6393 28.6192 93.5758 28.6784C93.5758 28.7139 93.5837 28.7455 93.5877 28.789C93.7107 28.8719 93.8297 28.9548 93.9567 29.0338C94.0229 29.2339 94.0678 29.3458 94.0917 29.3695C94.2742 29.3734 94.4726 29.3774 94.6631 29.3932C94.6829 29.4406 94.6552 29.4485 94.6274 29.484C94.6274 29.8276 95.1155 30.4042 95.2981 30.7043C95.1711 30.7885 95.097 30.8478 95.0758 30.882C95.1592 31.2927 95.052 32.2365 95.7663 32.1102C95.8457 32.1576 95.929 32.2089 96.0203 32.2602C96.0124 32.3076 96.0084 32.359 96.0005 32.4064C96.4648 32.8052 96.5084 33.0382 96.7029 33.6187C99.8538 36.8728 101.945 40.7311 102.874 45.1619C103.017 46.1097 103.092 46.8601 103.116 46.9232C104.112 45.5134 104.846 44.1431 105.314 42.5121C105.422 41.6867 105.477 40.8456 105.477 39.9926C105.477 35.2339 103.743 30.8662 100.878 27.4779C99.08 26.7907 97.187 26.6367 95.2782 26.5656C95.3655 26.6288 95.4489 26.692 95.5401 26.7631C95.3616 26.7631 95.1869 26.5656 94.9528 26.5656C94.9528 26.7631 95.1631 26.9803 95.2623 27.1422C95.1036 27.1067 94.9488 27.0593 94.7901 27.0593C94.7742 27.079 94.7584 27.0988 94.7464 27.1264C94.7755 27.1738 94.8298 27.2304 94.9092 27.2962C94.8655 27.3594 94.8536 27.3752 94.8536 27.4621C94.7901 27.4502 94.7306 27.4423 94.675 27.4384C94.5639 27.3634 93.6353 26.4709 93.6154 27.0079C93.7292 27.2343 93.7887 27.3713 93.794 27.4186C93.7226 27.4186 93.6988 27.4186 93.6512 27.466C93.4924 27.2251 93.3337 26.9842 93.171 26.7433H93.0519C93.0387 26.767 93.0255 26.9132 93.0122 27.1817C92.9448 27.237 92.8733 27.3002 92.8019 27.3594C92.4646 27.2172 92.04 26.8974 91.7781 26.6367C90.2978 26.7196 88.8176 26.9447 87.3532 27.158C87.3294 27.1225 87.3096 27.079 87.2858 27.0474C87.2937 27.0395 87.2977 27.0237 87.3096 27.0119C88.7859 26.7512 90.274 26.5775 91.7741 26.4551C91.6669 26.1589 91.536 25.918 91.3733 25.6494C91.5677 25.3572 92.8972 25.2506 93.2424 25.0255C93.2424 24.9623 93.2424 24.9031 93.2503 24.8438C93.3773 24.9978 93.5043 25.1479 93.6273 25.3019C93.6591 25.4441 93.667 25.5823 93.7742 25.6889C93.7583 25.764 93.6948 25.764 93.6393 25.8193C93.6393 25.8508 93.6392 25.8745 93.6472 25.9022C93.6789 25.9259 94.1393 26.0812 95.0282 26.3682C96.5918 26.459 98.1117 26.5617 99.6475 26.8974C100.1 27.0198 100.465 27.1462 100.628 27.1856C98.9054 25.2387 96.8061 23.6315 94.4369 22.4862C94.2107 22.4941 93.9766 22.5336 93.7543 22.6007C93.8099 22.6244 93.8655 22.6521 93.921 22.6797C93.7543 22.6916 93.3099 22.577 93.2107 22.7784C93.0956 22.7627 92.9845 22.8298 92.8813 22.8732C92.9051 22.9048 92.9408 22.9404 92.9726 22.9799C92.9435 22.9799 91.7992 22.506 89.5399 21.5582C88.3215 21.3607 87.0993 21.1633 85.877 20.9698C85.9841 20.9619 86.0953 20.9619 86.2064 20.9619C86.2064 20.8236 86.2064 20.6815 86.2064 20.5472C86.1191 20.5472 86.0318 20.5393 85.9405 20.5393C82.8094 20.5393 79.845 21.2817 77.2179 22.5928C79.5751 22.6718 81.6784 23.9276 83.6348 25.1321C83.861 25.1163 84.0555 24.9623 84.2817 25.0373C84.2301 25.061 84.1825 25.0808 84.1348 25.1084V25.215C84.2618 25.2901 84.4325 25.2585 84.5753 25.294C84.1587 25.6613 84.8333 26.1668 85.0317 26.0365C85.0238 25.8864 85.0635 25.7798 84.9087 25.7403C85 25.531 85.0396 25.527 85.2698 25.4322C85.2658 25.3849 85.2619 25.3533 85.2619 25.3098C85.1944 25.2782 85.1349 25.2427 85.0754 25.2111C85.0992 25.1598 85.127 25.1045 85.1547 25.0492C85.2659 25.0413 85.3492 25.0571 85.4246 24.9741C85.459 25.0479 85.4762 25.0992 85.4762 25.1282C85.4325 25.1558 85.3889 25.1835 85.3492 25.2071C85.3333 25.4638 85.3849 25.4322 85.504 25.6336C85.4643 25.6731 85.4722 25.7442 85.496 25.7877C85.5595 25.7877 85.623 25.7877 85.6905 25.7916C85.7143 25.8351 85.7421 25.8706 85.7778 25.8864C85.7778 25.8864 85.7698 25.8943 85.7619 25.9061C85.6627 25.8706 85.5913 25.8193 85.4801 25.8429C85.4762 25.8864 85.4722 25.9338 85.4643 25.9772C85.3849 25.9693 85.3452 25.9654 85.2897 26.0207C85.2897 26.0404 85.2897 26.0641 85.2976 26.0838C85.2063 26.1036 85.115 26.1194 85.0277 26.1431C85.2381 26.3168 85.4524 26.4906 85.6587 26.6723C85.6071 26.6999 85.5595 26.7275 85.5159 26.7591C85.2897 26.5656 84.6746 25.9417 84.4682 25.9417C84.4682 26.0246 84.4801 26.0523 84.5198 26.1233C84.3531 26.4314 83.9563 26.2497 83.9563 26.4985C84.0118 26.538 84.0753 26.5775 84.1388 26.6209C84.0753 26.6486 84.0118 26.6604 84.0118 26.7433C84.7949 26.8987 85.1997 26.9856 85.2262 27.004C85.1984 27.0395 85.1785 27.079 85.1508 27.1225C84.6269 27.0395 84.2737 26.8974 83.7856 27.0751C83.7936 27.0079 83.8055 26.9447 83.8174 26.8776C83.6507 26.8579 83.5197 26.8855 83.3729 26.8697C83.357 26.8829 83.3412 26.9197 83.3253 26.9803C83.2142 26.9368 83.1229 26.9053 82.9999 26.9053C82.9245 27.0514 83.107 27.158 83.2142 27.2212C83.1943 27.2646 83.1824 27.312 83.1665 27.3555C83.0078 27.2765 82.9919 27.1856 82.9046 27.0514H82.7975C82.7816 27.0751 82.7618 27.0948 82.7499 27.1225C82.4721 26.9961 82.2419 26.7749 81.9601 26.9526C81.8887 26.6209 81.7736 26.8855 81.5474 26.8855V26.7868C81.5236 26.767 81.5038 26.7512 81.4839 26.7433C81.3755 26.7776 81.2855 26.7999 81.2141 26.8105C81.226 26.7275 81.226 26.692 81.1426 26.6723C81.1321 26.5985 81.1162 26.5433 81.095 26.5064C80.726 26.4709 80.3569 26.4393 79.9958 26.4116C79.9799 26.4432 79.9587 26.4695 79.9323 26.4906C79.9124 26.4551 79.8886 26.4235 79.8648 26.3958C77.0948 26.2418 73.6423 25.9851 71.0985 27.3555C68.1738 30.7517 66.4039 35.1628 66.4039 39.9728C66.4039 41.3155 66.5428 42.6345 66.8087 43.9061C66.9793 44.3445 67.1777 44.7749 67.4039 45.2133C67.4039 45.1501 67.273 44.6999 67.273 44.6288C68.1341 46.552 68.9238 48.5108 69.6778 50.4735C69.6937 50.5564 69.7096 50.6393 69.7294 50.7183C69.5548 50.3669 69.404 49.9917 69.273 49.6205C68.5984 48.4121 68.0785 47.176 67.5984 45.8728C67.388 45.5095 67.1936 45.1501 67.011 44.7828L67.0071 44.8026ZM73.8764 54.8649C73.428 54.4581 73.0867 54.233 72.8764 53.6683C72.9081 53.6736 73.0126 53.7341 73.1899 53.85C73.2693 53.7947 73.3605 53.8342 73.4598 53.8421C73.4862 53.8157 73.5047 53.7842 73.5153 53.7473C73.5629 53.7394 73.6026 53.7394 73.6463 53.7394C73.6807 53.771 73.7561 53.8881 73.8725 54.0909C73.7613 54.3318 73.9122 54.6121 73.8764 54.8649ZM90.3772 53.929C90.4367 53.925 90.524 53.9211 90.5439 53.85C90.3455 53.6367 90.3296 53.5735 90.3216 53.2774C90.0399 53.0523 89.77 52.9061 89.5002 53.1352C89.7661 53.6683 89.8097 53.7394 90.3772 53.929ZM92.9408 53.4748C93.2305 53.3366 93.5123 53.2023 93.802 53.0641C93.9885 52.7956 94.171 52.5231 94.3615 52.2664C94.7464 52.1756 94.7504 52.1005 95.0401 51.828C94.8576 51.8122 94.7901 51.8201 94.6671 51.6938C94.5044 51.7411 94.2623 52.1637 94.1512 52.3059C93.6631 52.5744 93.2583 53.0088 92.9408 53.4709V53.4748ZM82.8094 53.0917C82.8888 53.072 82.9721 53.068 83.0594 53.0522C83.0713 52.9654 83.0911 52.8785 83.1031 52.7956C82.98 52.6692 82.861 52.5428 82.7459 52.4204C82.73 52.5231 82.7155 52.7179 82.7022 53.0049C82.734 53.0325 82.7657 53.0602 82.8054 53.0917H82.8094ZM95.7465 53.0917C95.7862 53.072 95.8259 53.0562 95.8695 53.0444C95.8695 52.9891 95.8894 52.9377 95.8973 52.8864C95.8364 52.9022 95.7319 52.9496 95.5838 53.0286C95.6393 53.0483 95.6949 53.072 95.7505 53.0917H95.7465ZM89.4446 52.9456C89.4446 52.9456 89.4327 52.9101 89.4248 52.9061C89.4486 52.9009 89.4764 52.9075 89.5081 52.9259C89.5081 52.9259 89.4605 52.9338 89.4446 52.9496V52.9456ZM89.3533 52.839C89.147 52.7995 89.0081 52.7324 88.8255 52.6336C88.8255 52.5573 88.8507 52.4059 88.9009 52.1795C89.0279 52.3572 89.3018 52.6336 89.3533 52.839ZM71.6263 52.4164C71.416 52.3019 71.1898 52.1361 70.9517 52.1045C70.5826 51.6345 70.2136 51.1527 69.8921 50.6472C69.1103 48.5266 68.2532 46.4296 67.3245 44.3682C67.4198 44.4432 67.6063 44.6604 67.646 44.6841C67.9 44.5577 67.7016 43.9733 68.0428 43.9496C68.3048 44.613 68.5984 44.9842 69.0707 45.5371C69.5032 46.4849 69.6302 46.4296 69.3246 47.3379C69.3524 47.8355 69.3088 47.7802 69.8128 47.8789C69.8088 47.95 69.8009 48.025 69.7969 48.1001C69.6858 48.0527 69.4953 47.9026 69.3842 47.9737C69.4953 49.0953 70.3366 50.2563 71.1263 51.0027C71.3247 51.4647 71.4993 51.9228 71.6541 52.4086C71.6422 52.4125 71.6303 52.4164 71.6263 52.4243V52.4164ZM81.8768 52.4164C81.3173 51.9426 81.099 50.9711 80.8371 50.2839C80.7617 49.889 80.6982 49.506 80.6307 49.115C80.7101 48.7043 80.9958 48.3291 80.5077 48.2067C80.3926 48.2975 80.3688 48.4081 80.3132 48.5424C80.1902 48.5305 80.0712 48.5226 79.9561 48.5226C79.8886 48.4042 79.8212 48.2975 79.7616 48.183C79.8966 48.183 80.0831 48.0448 80.0831 47.9026C79.9918 47.8197 79.7656 47.8315 79.6465 47.8236C79.5989 47.7407 79.5354 47.6736 79.5354 47.5709C79.9085 47.2392 80.1624 47.7407 80.464 47.5393C80.464 47.1799 80.1982 46.868 80.1545 46.5086C80.3926 46.2795 80.4958 46.5441 80.7895 46.5441C81.103 46.2874 81.4284 46.0268 81.7538 45.7741C81.7538 45.6832 81.7538 45.6003 81.73 45.5095C81.8437 45.5042 81.9244 45.4924 81.972 45.4739C81.972 45.2607 81.7419 45.0632 81.603 44.9053C81.6585 44.7157 81.7141 44.5261 81.7697 44.3326C82.1639 44.2589 82.3848 44.2115 82.4324 44.1905C82.4364 44.1549 82.4403 44.1233 82.4562 44.0917C82.6824 44.23 82.9324 44.3642 83.1308 44.5419C83.1308 44.6644 82.9086 44.8421 82.8372 44.9289C82.898 45.1448 82.9324 45.287 82.9403 45.3555H82.6864C82.5872 45.4897 82.6943 45.857 82.7776 45.9913C83.0025 46.1282 83.1216 46.2045 83.1348 46.2203C83.0475 46.3309 82.9324 46.4257 82.9324 46.5678C83.5713 47.0536 84.1388 47.251 84.9047 47.5433C85.1389 47.5196 85.2103 47.3498 85.3373 47.1562C85.4008 47.1431 85.4643 47.1418 85.5278 47.1523C85.5198 47.2313 85.5198 47.3103 85.5198 47.3932C85.0833 47.4919 85.4841 48.9373 85.5119 49.0913C85.4563 49.0716 85.4206 48.9847 85.3968 48.9254H85.3095C84.7341 49.5455 84.1626 49.9246 83.4483 50.3827C83.0144 50.5064 82.7882 50.5775 82.7697 50.5959C82.6216 51.4858 82.5369 51.9623 82.5157 52.0255C82.2975 52.1519 82.0911 52.2782 81.8808 52.4007L81.8768 52.4164ZM88.9128 51.9781C88.9168 51.828 88.9287 51.7412 89.02 51.6187C89.0279 51.6372 88.9922 51.7569 88.9128 51.9781ZM90.9447 51.9781C90.9394 51.9044 90.9275 51.8438 90.909 51.7964C90.8177 51.7648 90.5201 51.7333 90.5121 51.7175C91.1656 51.2146 91.5016 50.95 91.5201 50.9237V50.3155C91.4196 50.1444 91.3667 50.0391 91.3614 49.9996C91.5042 50.0865 91.659 50.1694 91.8177 50.2602C91.8812 50.5406 91.9447 50.8171 92.0162 51.1053C91.7463 51.366 91.5042 51.8043 91.1034 51.7727C91.0505 51.8544 90.9963 51.9241 90.9407 51.982L90.9447 51.9781ZM90.3216 51.6464C90.2581 51.5595 90.1986 51.52 90.1113 51.4726C89.9367 50.6551 90.151 50.7025 90.9645 50.5959C91.1497 50.4906 91.2833 50.4221 91.3653 50.3906C91.3495 50.5446 91.3415 50.7025 91.3415 50.8724C91.0002 51.129 90.659 51.3857 90.3256 51.6464H90.3216ZM98.953 51.5792C98.9768 51.5358 99.0165 51.5082 99.0482 51.4726C99.0562 51.52 98.9887 51.5595 98.953 51.5792ZM88.8573 51.5358C88.762 51.2594 88.7105 51.0909 88.7025 51.0303C88.7859 51.1567 88.8732 51.2831 88.9605 51.4173C88.9287 51.4673 88.893 51.5068 88.8533 51.5358H88.8573ZM70.0072 51.2199C69.8564 50.9908 69.8445 50.9711 69.7969 50.8802C69.908 50.8526 69.8763 50.7618 69.9239 50.746C70.0072 50.9079 70.4993 51.4331 70.2096 51.5042C70.1421 51.4134 70.0707 51.3225 70.0032 51.2238L70.0072 51.2199ZM89.8772 51.3936C89.5676 51.133 89.2621 50.979 89.1113 51.3462C88.8732 50.9987 88.7369 50.7842 88.7025 50.7025C88.7859 50.2681 88.7819 50.2207 88.516 49.8811C88.5358 49.4665 88.8652 48.9807 89.27 49.3046C89.3176 49.4902 89.27 49.7271 89.3454 49.889C89.643 49.889 89.9208 49.6718 90.2224 49.6205C90.5121 49.889 90.7383 50.0233 90.7145 50.4735C90.0081 50.5446 89.7938 50.6117 89.9208 51.3936H89.8811H89.8772ZM99.3935 51.3423C99.3512 51.2844 99.3141 51.2462 99.2824 51.2278C99.3935 51.2225 99.498 51.2265 99.5959 51.2396C99.5244 51.2712 99.457 51.3028 99.3935 51.3423ZM100.461 51.2673C100.401 51.1606 100.346 51.0619 100.29 50.9632C100.096 50.9276 99.83 51.1172 99.6554 51.2001C99.8697 50.896 100.08 50.592 100.302 50.2918C100.493 50.1852 101.826 49.3756 101.973 49.4191C101.957 49.4454 101.949 49.4823 101.949 49.5297C102.044 49.6047 102.148 49.5928 102.263 49.581C102.017 49.8456 101.846 49.9285 101.517 50.0667C101.104 50.4182 100.933 50.9513 100.461 51.2633V51.2673ZM96.7386 50.7183C96.7386 50.5959 96.7386 50.5051 96.6553 50.4221C96.6923 50.38 96.7928 50.1997 96.9569 49.8811C97.0005 49.889 97.0442 49.9009 97.0918 49.9167C97.1354 50.0193 97.2386 50.1536 97.1712 50.2563C96.9132 50.2089 96.945 50.5367 96.941 50.7065C96.8696 50.7065 96.8061 50.7144 96.7426 50.7223L96.7386 50.7183ZM96.2425 50.6275C96.2981 50.5604 96.3576 50.4893 96.4211 50.4182C96.4291 50.4182 96.441 50.4182 96.4568 50.4221C96.3814 50.4893 96.31 50.5604 96.2465 50.6275H96.2425ZM70.9517 50.6078C70.4755 50.1655 69.4675 48.7635 69.6104 48.1909C69.7135 48.2422 69.785 48.3015 69.908 48.3015C69.9913 48.1949 69.9675 47.9026 69.9675 47.7684C69.949 47.7499 69.7969 47.7091 69.5112 47.6459C69.4953 47.2866 69.5945 47.0694 69.7135 46.7218C70.0072 47.1168 70.2096 47.3537 70.2969 47.8276C69.4715 48.4279 71.035 49.5968 71.2176 50.2563C71.0033 50.3629 71.0787 50.4537 70.9517 50.6117V50.6078ZM90.8931 50.4419C90.8058 49.8614 90.7225 49.8416 90.2462 49.4309C89.9843 49.4902 89.7343 49.6007 89.4843 49.6995C89.4724 49.5454 89.4645 49.3993 89.4486 49.2493C89.3573 49.1742 89.2502 49.0874 89.1906 48.9886C89.2383 48.9017 89.274 48.807 89.3295 48.728C89.401 48.7161 89.4764 48.7082 89.5557 48.6964C89.5914 48.6451 89.5756 48.574 89.5557 48.5266C89.6192 48.5187 89.6788 48.5068 89.7502 48.4989C89.9288 48.7991 90.02 48.8544 90.3256 49.0281C90.3256 49.1268 90.2581 49.1979 90.2701 49.3085C90.4486 49.427 91.3812 49.9206 91.2701 50.2484C91.1431 50.3076 91.0201 50.3708 90.8971 50.4419H90.8931ZM72.0946 50.0588C72.0033 49.6995 71.916 49.3401 71.8367 48.9807C72.0668 48.9807 72.3049 49.1861 72.551 49.2137C73.6661 49.0479 73.4598 49.0992 72.7613 48.2344C73.047 48.3528 73.6502 48.649 74.0907 48.8267C74.0352 49.3598 73.4161 49.6402 73.0073 49.9641C72.6978 49.9956 72.3922 50.0272 72.0946 50.0588ZM95.9886 49.8772V49.8061H96.0441C96.0203 49.8298 96.0044 49.8535 95.9886 49.8772ZM102.941 49.5494C103.064 48.7596 103.104 47.9974 103.124 47.1799C103.945 46.0702 104.612 44.9368 105.124 43.6652C104.715 45.7701 103.965 47.7486 102.937 49.5533L102.941 49.5494ZM90.7463 49.4388C90.2978 49.1505 90.5161 49.3203 90.5161 48.9649C90.3058 48.8504 89.9089 48.6924 89.9089 48.4081C90.6748 48.0685 90.4963 48.1238 91.2503 48.6095C91.2503 48.8504 90.8336 49.1742 90.7463 49.4388ZM91.9169 49.273C91.6868 49.0952 92.1432 48.9057 92.286 48.8504C92.2305 49.0281 92.167 49.1189 92.0479 49.2611C92.0043 49.2611 91.9606 49.2651 91.9169 49.273ZM95.5997 49.1466C95.5322 49.0044 95.4925 48.8978 95.5481 48.7477C95.5679 48.8741 95.5838 49.0084 95.5997 49.1466ZM96.2267 49.1268C96.2267 49.1268 96.1989 49.1031 96.191 49.0953C96.228 49.0821 96.2558 49.0781 96.2743 49.0834C96.2743 49.0834 96.2783 49.1071 96.2822 49.1229H96.2267V49.1268ZM72.4915 49.0558C71.5311 48.649 71.2335 48.1317 70.4834 47.2866C70.3961 46.6784 70.3538 46.3375 70.3564 46.2637C70.6541 46.1966 70.5549 46.0781 70.5668 45.7701C71.2493 45.7701 71.1223 45.5411 71.4954 44.8934C71.5112 44.8895 71.5311 44.8855 71.547 44.8855C71.5575 44.925 71.5761 45.2699 71.6025 45.9202C71.8128 46.3664 72.1105 46.7692 72.0629 47.2708C71.916 47.33 72.42 48.0724 72.5073 48.2028C72.7137 48.4476 72.92 48.6964 73.1264 48.9491C72.9121 48.9807 72.6978 49.0163 72.4915 49.0597V49.0558ZM74.4876 47.8513C73.7336 47.7328 73.1542 47.484 72.4438 47.176C72.4518 46.7969 72.4637 46.4217 72.4716 46.0426C73.0034 46.1334 73.1978 46.2835 73.3288 46.8166C73.5272 46.9469 73.8447 46.5955 74.0828 46.5955C74.3288 46.706 74.5828 46.8324 74.8328 46.9509C74.8725 47.1918 74.9241 47.4643 74.9003 47.7131C74.7495 47.7684 74.6344 47.8236 74.4836 47.8513H74.4876ZM80.2815 47.484C80.1029 47.3892 79.8926 47.251 79.6902 47.2194C79.6108 47.2905 79.5354 47.3616 79.46 47.4406C79.333 47.4011 79.1783 47.0299 79.1068 46.9114C78.71 46.7732 78.3171 46.6389 77.9242 46.5086C77.9242 46.1808 78.46 46.5915 78.46 46.2282C78.3594 45.9702 78.2404 45.6859 78.1028 45.3752C78.46 45.4858 78.964 45.7267 79.3251 45.7267C79.4005 45.6082 79.468 45.4897 79.5394 45.3634C80.349 45.2014 80.2656 45.5608 80.5831 44.85C80.6823 44.846 80.7815 44.8421 80.8847 44.8302C81.0315 44.617 81.095 44.5538 81.1069 44.2971C81.8649 44.1391 81.6943 44.0799 81.4561 44.7907C81.4522 44.85 81.4442 44.9132 81.4403 44.9684C81.4879 45.0277 81.8252 45.3752 81.7974 45.4344C81.7339 45.387 81.6387 45.2488 81.5474 45.3357C81.5514 45.4542 81.6228 45.6358 81.5712 45.7346C81.3054 45.9399 81.0434 46.1453 80.7815 46.3546C80.5831 46.3901 80.4283 46.2243 80.218 46.2243C79.7775 46.7258 80.1505 46.8522 80.3132 47.488H80.2775L80.2815 47.484ZM84.9682 47.4129C84.2817 47.1325 83.6904 46.9825 83.1229 46.5165C83.5356 45.9557 84.3372 46.8285 84.6944 47.0931C84.8492 47.101 84.996 47.1128 85.1468 47.1247C85.127 47.2431 85.0397 47.33 84.9643 47.4129H84.9682ZM85.6865 47.2668C85.5674 46.8561 86.3453 47.2194 86.377 47.2352C86.1429 47.2431 85.9127 47.255 85.6865 47.2668ZM70.289 47.2352C69.8128 46.5757 69.5588 46.2124 69.2175 45.4581C69.0786 44.9961 68.9437 44.534 68.8087 44.0759C68.8048 43.5428 68.8008 43.0215 68.7929 42.4963C68.8921 42.4252 68.9913 42.3581 69.0905 42.291C69.158 42.3699 69.1738 42.3857 69.277 42.3976C69.3961 42.1093 69.5072 41.825 69.6223 41.5446C69.6937 41.5999 69.7215 41.6157 69.8088 41.6354C69.8921 41.5288 69.9755 41.4261 70.0548 41.3234C70.7162 42.258 71.1118 42.807 71.2414 42.9702C71.3287 42.9781 71.42 42.986 71.5152 42.9978C71.5152 43.2387 71.5827 43.4678 71.5986 43.7087C71.5668 43.8351 71.5152 44.6841 71.3763 44.767C71.2136 45.0474 71.0509 45.3278 70.8961 45.6161C70.7453 45.6161 70.5985 45.6161 70.4517 45.62C70.3644 45.7109 70.3961 45.9636 70.3921 46.09C70.2969 46.0939 70.2334 46.0939 70.1739 46.1532C70.2585 46.8351 70.2982 47.1957 70.2929 47.2352H70.289ZM75.6225 46.9627C75.0471 46.864 74.6027 46.6587 74.0669 46.4217C73.8606 46.4533 73.6621 46.5757 73.4717 46.6587C73.3169 46.0821 72.9597 45.9794 72.4319 45.8807C72.3367 45.4028 72.2414 44.9211 72.1462 44.4432C72.1621 44.2023 72.2414 43.7087 72.2573 43.4362C72.1568 42.4279 72.1025 41.8368 72.0946 41.663C72.1938 41.5288 72.2494 41.4774 72.2653 41.3155C72.1581 41.2563 72.0549 41.3787 71.9756 41.43C71.9888 41.1536 71.9941 40.9232 71.9914 40.739H71.8763C71.7295 41.4143 71.6501 42.1409 71.5509 42.8399C71.4716 42.828 71.3922 42.8201 71.3128 42.8083C70.5138 41.6894 70.1077 41.1115 70.0945 41.0746C70.4358 40.4507 70.789 39.8346 71.1422 39.2146C71.2321 39.441 71.2864 39.5634 71.3049 39.5819C71.8367 38.7012 72.3922 37.8285 72.9796 36.9873C72.9319 36.8412 72.8804 36.6635 72.7732 36.549C72.6938 36.5608 72.6224 36.5806 72.551 36.6003C72.551 36.5174 72.5788 36.4226 72.5351 36.3594H72.42C72.3565 36.466 72.297 36.5766 72.2414 36.6911C72.0589 36.6753 72.0668 36.7188 72.0549 36.8886C72.0311 36.8807 72.0073 36.8688 71.9875 36.8688C72.0232 36.8136 72.0073 36.699 71.9875 36.6398C72.1105 36.2962 72.0946 36.1225 72.4399 36.004C72.7692 36.1896 72.8208 36.2409 72.9121 36.6082C73.0312 36.7069 73.1462 36.8057 73.2693 36.9083C73.2534 36.9992 73.2415 37.09 73.2216 37.1887C73.1859 37.1334 73.1661 37.1295 73.1145 37.1097C72.9954 37.2756 72.928 37.3835 72.9121 37.4336C73.055 37.552 73.2256 37.7416 73.428 37.6863C73.5193 37.8996 73.7613 37.8956 73.9717 37.939C74.5114 38.4366 74.3288 39.3054 75.2575 39.2699C75.2945 39.2146 75.3196 39.187 75.3329 39.187C75.4003 39.2936 75.4718 39.4002 75.5392 39.5108C75.5194 39.5226 75.4956 39.5345 75.4797 39.5463C75.5154 40.0518 75.5035 40.1466 75.2217 40.5573C74.6543 40.2453 74.2336 39.5977 73.5947 39.574C73.4002 39.4673 73.1978 39.3647 73.0073 39.258C72.8208 38.8513 73.0312 38.8355 72.5748 38.6933C72.5311 38.5749 72.4875 38.4643 72.4438 38.3498C72.4716 38.3379 72.4994 38.33 72.5272 38.3261C72.5272 38.2234 72.5311 38.2076 72.4637 38.1247H72.42C72.3407 38.2431 71.3089 39.5779 71.4279 39.9412C71.5827 40.036 71.7494 40.1032 71.8009 40.1466C71.8882 40.3164 72.1819 40.8614 72.3922 40.81C72.3922 40.8311 72.3565 40.9548 72.2851 41.1813C72.3803 41.3919 72.4557 41.5406 72.5113 41.6275C72.7177 41.6275 72.9558 41.5446 73.1502 41.4972C73.1502 41.4024 73.1304 41.355 73.0986 41.2602C73.2137 41.2958 73.3328 41.3353 73.4518 41.3787C73.7455 42.133 73.9558 43.0966 74.6662 43.5744C74.7455 44.2063 74.7931 44.8697 74.8209 45.4976C75.0947 45.7188 76.567 46.5678 75.6146 46.9706L75.6225 46.9627ZM75.9162 46.1571C75.8448 46.0939 75.7733 46.0308 75.7019 45.9715C75.7019 45.9123 76.1781 45.7504 76.2456 45.7227C76.2416 45.7622 75.944 46.1413 75.9162 46.1532V46.1571ZM79.1822 45.5569C78.7854 45.4265 78.3885 45.2923 77.9957 45.1659C77.9957 44.9961 78.3092 44.9053 78.3092 44.692C78.206 44.5893 78.1108 44.4827 78.0115 44.3879C78.1028 44.1036 78.2258 43.5586 78.6386 43.5586C79.0156 43.7363 79.2576 43.7561 79.5711 43.4125C79.9164 43.5191 80.2696 43.6297 80.6228 43.7403C80.7498 43.6692 80.8847 43.6021 81.0117 43.5349C81.0434 43.7455 81.0686 43.8732 81.0871 43.918C81.1321 43.9311 81.3874 43.9404 81.853 43.9456C81.6585 44.1352 81.1149 43.9851 80.9323 44.226C80.9323 44.4235 80.9283 44.5103 80.8133 44.6683H80.4958C80.4164 44.8302 80.341 44.9961 80.2617 45.1619C79.8833 45.1698 79.6188 45.1817 79.468 45.1975C79.4005 45.316 79.3251 45.4344 79.2576 45.5411C79.2299 45.5411 79.2021 45.549 79.1822 45.5529V45.5569ZM68.9318 45.1185C68.5587 44.6525 68.3643 44.3089 68.1381 43.7561C67.765 43.6968 67.6936 44.1312 67.6182 44.3958H67.5865C67.4436 44.23 67.3007 44.0602 67.1618 43.8982C67.2095 43.681 67.4595 43.4757 67.6023 43.3059C67.5666 43.0018 67.4198 42.6898 67.3126 42.4015C66.5983 42.0185 66.8364 42.0027 67.0864 41.3511C67.0864 41.5485 67.0269 41.9553 67.142 42.1172H67.2095C67.3206 41.979 67.265 41.3274 67.265 41.1457H67.3047C67.3087 41.2365 67.3206 41.3313 67.3761 41.4064C67.4952 41.4064 67.5904 41.3116 67.6896 41.2365C67.6857 41.6551 67.6777 42.0698 67.6777 42.4884C67.9992 42.7925 68.1936 43.1282 68.6421 43.1795C68.6421 43.4836 68.6421 43.7837 68.65 44.0878C68.8484 44.7618 68.9437 45.1053 68.9357 45.1185H68.9318ZM94.2464 44.9526C94.1194 44.8263 94.3972 44.5933 94.4726 44.5024C94.2742 44.459 94.0282 44.4906 94.0559 44.2655C94.1631 44.2339 94.2702 44.1984 94.3814 44.1707C94.1036 43.918 93.9409 43.7166 93.5797 43.6376C93.417 43.3177 93.8139 42.8043 93.9805 42.5674C93.9091 42.5674 93.8416 42.5753 93.7781 42.5792C93.6988 42.6977 93.6154 42.8122 93.544 42.9307C93.3059 42.9307 93.0519 42.7096 92.8495 42.6029C92.8416 42.5674 92.8297 42.5358 92.8257 42.5042C93.0559 42.1251 93.2861 41.746 93.5202 41.3748C93.5361 41.3708 93.5559 41.3629 93.5758 41.3629C93.9924 42.4924 94.3496 43.6573 94.6591 44.8184C94.6591 44.8263 94.6512 44.8421 94.6433 44.8618C94.4554 44.9118 94.3258 44.9408 94.2544 44.9487L94.2464 44.9526ZM81.8371 44.147C81.9125 44.0917 81.9879 43.9772 82.0792 43.9772C82.1149 44.0128 82.1467 44.0444 82.1784 44.0759C82.1493 44.0944 82.0355 44.1181 81.8371 44.147ZM81.2141 43.764C81.1903 43.6139 81.1784 43.4678 81.1625 43.3256C80.8212 43.3256 80.7577 43.6139 80.3688 43.4915C80.5791 43.0926 80.595 43.1203 80.4799 42.6859C80.8887 42.5082 80.9045 42.7056 81.2498 43.0057C81.4244 43.0215 81.599 43.0452 81.7855 43.0689C81.7776 43.1479 81.7776 43.2229 81.7776 43.298C81.9641 43.4678 82.0038 43.4875 81.9681 43.7521C81.7141 43.7521 81.4641 43.76 81.2141 43.764ZM67.0428 43.6929C66.9793 43.2387 66.888 42.7846 66.8602 42.3265C67.2849 42.5397 67.2849 42.7925 67.4396 43.2427C67.3285 43.3691 67.138 43.531 67.0864 43.6929H67.0428ZM78.96 43.5428C78.8767 43.4954 78.7933 43.452 78.714 43.4085C78.5711 42.5674 78.0393 42.0303 77.5552 41.3353C77.6226 41.3274 77.7853 41.3827 77.8965 41.3787C77.9626 41.276 78.0314 41.147 78.1028 40.9917C78.3171 40.9799 78.5354 40.972 78.7497 40.9641C78.9441 41.1615 78.7894 41.1023 78.7894 41.3392C78.8806 41.4064 78.9798 41.4774 79.0791 41.5446C79.218 42.2515 79.845 42.6385 79.8767 43.3059C79.4481 43.1913 79.3846 43.4125 78.964 43.5428H78.96ZM74.7257 43.4164C74.563 43.2466 74.3963 43.065 74.2376 42.8991C74.0431 42.3857 73.5153 41.588 73.6304 41.0272C74.3169 40.9759 74.2336 41.0707 74.5908 40.5257C74.8328 40.5099 74.9043 40.5533 75.1186 40.6797C75.182 41.2207 75.2098 41.2642 74.8844 41.6749C74.8844 42.2317 74.9519 42.7846 74.9439 43.3375C74.9082 43.3217 74.8765 43.3098 74.8408 43.3019C74.7773 43.3375 74.7733 43.3493 74.7614 43.4204H74.7257V43.4164ZM80.1307 43.4164C80.0989 43.4007 80.0672 43.3888 80.0354 43.3809C80.0196 42.7254 79.7259 42.5161 79.333 41.979C79.2537 41.6354 79.2735 41.5051 78.9878 41.2997C78.9878 41.0509 79.1465 41.0351 78.7894 40.7982C78.6187 40.7942 78.4481 40.7942 78.2854 40.7942C78.4084 40.4902 78.5314 40.1821 78.6584 39.8781C78.8013 39.8781 78.9402 39.9175 79.087 39.9491C78.8727 40.6363 78.8925 40.4704 79.5632 40.7271C79.5831 40.7626 79.5989 40.7942 79.6108 40.8337C79.8251 40.893 80.0434 40.9522 80.2577 41.0154C80.3132 41.3195 80.3847 41.6275 80.4482 41.9395C80.5037 41.9908 80.6664 42.0619 80.7736 42.133C80.5315 42.1646 80.6506 42.2357 80.6506 42.445C80.2101 42.6464 80.2736 42.6187 80.4204 43.0571C80.3529 43.1677 80.2894 43.2782 80.2259 43.3927C80.1942 43.4006 80.1624 43.4125 80.1347 43.4204L80.1307 43.4164ZM68.5429 43.0097C68.273 42.9465 68.0428 42.6108 67.8404 42.4173V41.3906C67.9039 41.0035 68.0349 40.6323 68.1063 40.2493C68.2293 40.2137 68.3484 40.19 68.4754 40.1624C68.6897 39.7556 68.904 39.3489 69.1222 38.954C69.1342 38.9895 69.1421 39.0369 69.154 39.0803C68.8087 39.1435 69.4278 41.1497 69.4953 41.4143C69.408 41.663 69.3167 41.9158 69.2294 42.1646C68.6183 41.8368 68.6341 42.7411 68.6222 43.0176H68.5468L68.5429 43.0097ZM96.5719 43.0097C96.5164 42.8201 96.4926 42.7648 96.3576 42.6266C96.3695 42.6069 96.3775 42.5832 96.3933 42.5634C96.4568 42.5766 96.5309 42.6029 96.6156 42.6424C96.6076 42.753 96.6037 42.8794 96.5957 42.9978C96.5957 42.9978 96.5799 42.9978 96.5759 43.0057L96.5719 43.0097ZM81.722 42.8991C81.349 42.8636 80.9204 42.6938 80.8053 42.2989C80.9283 42.2989 81.2061 42.6187 81.3014 42.7096C81.4204 42.7017 81.6863 42.7096 81.7855 42.6464C81.7855 42.445 81.5474 42.2159 81.4403 42.058C81.4403 42.0264 81.4522 42.0066 81.4561 41.9829C81.9879 41.746 81.8054 42.0935 82.1308 42.0303C82.5792 41.7183 82.9562 42.1014 83.4404 42.2396C83.4404 42.2475 83.4483 42.2594 83.4523 42.2712C83.1983 42.3936 82.9483 42.524 82.6983 42.6543C82.1559 42.7385 81.8728 42.7899 81.849 42.8083C81.8371 42.832 81.8252 42.8636 81.8212 42.8991H81.726H81.722ZM95.3219 42.7333C95.179 42.2317 95.052 42.0185 95.2346 41.5327C95.2637 41.5433 95.425 41.6999 95.7187 42.0027C95.6592 42.3383 95.6235 42.5318 95.3219 42.7333ZM81.3569 42.5555C81.2339 42.445 81.1149 42.3265 80.9998 42.2159C80.9998 42.1962 81.0077 42.1804 81.0157 42.1606C81.095 42.129 81.1863 42.1014 81.2696 42.0738C81.3569 42.212 81.5196 42.3818 81.5593 42.5397C81.4879 42.5476 81.4204 42.5476 81.3569 42.5555ZM89.6589 42.212C89.016 41.8289 88.5001 41.975 87.8295 42.0974C87.6072 41.9197 87.389 41.746 87.1707 41.5762C86.6601 41.4314 86.3744 41.3445 86.3135 41.3155C86.2143 40.8693 86.1151 40.5533 85.7262 40.2493V40.2137C85.9127 40.115 86.0992 40.0202 86.2976 39.9215C86.7461 39.9531 87.1826 39.9886 87.6469 39.9886C87.8057 39.7754 87.6707 39.4594 87.8215 39.2067C87.9353 39.2199 88.0901 39.2515 88.2858 39.3015C88.6589 39.6885 88.5993 39.8346 89.0398 39.5187C89.3533 39.5463 90.0161 39.7161 90.2978 39.6253C90.7661 39.2896 90.9129 39.1791 91.4725 39.108C91.5796 39.8109 91.4923 39.6411 92.1035 39.5187C92.167 39.5858 92.2344 39.653 92.3059 39.724C92.282 39.8149 92.1312 39.8899 92.0479 39.9531C91.8415 40.1861 91.6431 40.427 91.4368 40.6718C91.2661 40.6955 91.0836 40.7074 90.9328 40.7863C90.9328 40.9206 91.0121 41.0272 91.0756 41.1457C91.0756 41.4735 89.9089 42.1646 89.6549 42.212H89.6589ZM83.6309 42.133C83.3293 42.0382 82.5872 41.6512 82.2975 41.7065C82.0752 41.8842 82.0911 41.8566 81.8887 41.6709C81.5395 41.6709 81.2299 41.979 80.8728 42.0185C80.7855 41.9395 80.7101 41.9 80.599 41.8526C80.5275 41.5288 80.4601 41.2128 80.3926 40.893C80.1664 40.8337 79.7338 40.8021 79.6783 40.5612C79.9799 40.1387 79.968 40.2098 79.8013 39.7003C79.6069 39.7003 79.4243 39.7754 79.2299 39.8307C79.0394 39.7754 78.8449 39.7201 78.6544 39.6687C78.5116 39.2028 78.5949 39.0527 78.9084 38.7842C78.964 38.6025 79.0235 38.4248 79.083 38.2392C79.583 38.2708 79.595 38.1839 79.7775 38.6025C79.8807 38.6459 80.1942 38.6459 80.2855 38.5906C80.2696 38.4722 80.2617 38.3537 80.2497 38.2273C80.3013 38.2194 80.349 38.2076 80.4045 38.1957C80.4204 38.1523 80.4442 38.1128 80.468 38.0733C80.7101 38.0536 80.6823 38.0259 80.6982 37.7929C81.1863 37.8048 81.6863 37.8206 82.1863 37.8364C82.23 37.9667 82.2816 38.101 82.3292 38.2352C82.4681 38.2787 82.611 38.3261 82.7499 38.3695C82.7578 38.4406 82.7737 38.4998 82.8253 38.5512C83.1613 38.4853 83.3517 38.4551 83.3967 38.4603C83.5197 38.8276 83.6428 39.1909 83.7737 39.5582C83.8491 39.6332 83.9364 39.57 84.0396 39.57C84.1468 39.7122 84.4245 39.6964 84.5912 39.7201C84.8333 39.9491 84.9047 40.0795 85.2301 40.0953C85.2659 40.1387 85.3016 40.1821 85.3413 40.2295C85.2817 40.4112 85.119 40.3125 85.0754 40.656C84.865 40.6718 84.6468 40.6876 84.4364 40.7034C84.4047 40.7666 84.3584 40.9338 84.2976 41.2049C83.5356 41.3708 83.7301 41.2879 83.6666 42.1251H83.6309V42.133ZM96.5561 42.0856C96.6751 41.6591 96.8577 41.588 97.2029 41.3116C97.2029 41.1694 97.1936 41.0009 97.1751 40.8061C97.2029 40.8021 97.2307 40.7982 97.2585 40.7982C97.5998 40.2098 97.2307 39.6766 97.2783 39.0645C97.691 39.3726 97.8299 40.0202 97.8894 40.5297C97.7307 40.5297 97.691 40.968 97.6513 41.0904C97.1196 41.2326 97.4847 41.2602 97.3855 41.6433C97.3735 41.6433 97.3616 41.6512 97.3497 41.6551C97.3061 41.6038 97.2664 41.5485 97.2307 41.4932H97.1315C96.9331 41.6907 96.7426 41.8881 96.5521 42.0895L96.5561 42.0856ZM94.6314 41.8842C94.6314 41.6512 94.675 41.3906 94.3893 41.4103C94.4409 41.1576 94.4885 40.9088 94.5401 40.6639C94.6234 40.6442 94.7107 40.6363 94.802 40.6284C94.8774 40.4033 94.8774 40.1663 94.9607 39.9373C95.0044 39.9294 95.056 39.9294 95.1036 39.9254C95.0957 40.0413 95.0983 40.2598 95.1115 40.581C94.8853 41.0667 94.6829 41.0944 95.1036 41.3985C94.9885 41.7934 95.0044 41.7855 94.6314 41.8921V41.8842ZM66.769 41.6709C66.7134 40.6244 66.7015 39.574 66.7729 38.5275C66.9753 39.2817 67.2174 40.1584 67.1301 40.9443C66.9528 41.2655 66.8311 41.5077 66.765 41.6709H66.769ZM72.5986 41.4498C72.4002 41.0193 72.5232 40.6955 72.928 40.427C72.9319 40.5415 72.9478 40.6521 72.9597 40.7705C73.0788 40.814 73.2097 40.8574 73.3328 40.9009C73.3513 41.0062 73.3592 41.0878 73.3566 41.1457C73.2058 41.0957 73.051 41.0523 72.8923 41.0154C72.8804 41.0351 72.8605 41.0588 72.8526 41.0825C72.8883 41.1773 72.928 41.2681 72.9716 41.3669C72.8446 41.3866 72.7256 41.4143 72.6026 41.4419L72.5986 41.4498ZM69.7374 41.3195C69.3524 41.0628 69.1818 39.7477 69.0905 39.2383C69.4437 39.1909 68.9357 37.9114 68.9714 37.7021C68.9913 37.6903 69.0072 37.6784 69.031 37.6666C69.0508 37.5362 69.0865 36.8254 69.1103 36.7701C69.4119 36.4265 69.6501 36.0277 70.0747 35.85C70.0932 35.979 70.1249 36.703 70.1699 38.022C70.2453 38.0852 70.3167 38.1326 70.408 38.172C70.5072 38.1247 70.5787 37.9864 70.6501 37.8996C70.9199 37.8996 71.0509 38.8039 71.0509 39.0487C70.2043 40.5441 69.7678 41.301 69.7413 41.3195H69.7374ZM67.4674 41.1931C67.4462 41.0825 67.4211 41.0075 67.392 40.968C67.3642 40.9601 67.3365 40.9562 67.3166 40.9562C67.2412 40.0913 67.011 39.3884 67.3999 38.638C67.4277 39.4555 67.4119 39.5582 67.8563 40.19C67.8127 40.5731 67.7889 40.9443 67.4674 41.1931ZM73.4915 40.9009C73.4558 40.7271 73.2693 40.7153 73.1185 40.6639C73.1105 40.581 73.1066 40.502 73.1066 40.427C73.2177 40.427 73.3288 40.427 73.4359 40.4309C73.6621 40.0913 73.2296 39.7043 73.9082 39.728C74.1304 39.9254 74.3566 40.1308 74.5868 40.3361C74.5815 40.3519 74.5378 40.3743 74.4558 40.4033C74.0391 41.1181 74.0272 40.5455 73.4915 40.9009ZM76.9242 40.5731C76.8607 40.552 76.5419 40.4902 75.9678 40.3875V39.9215C76.1027 39.957 76.2496 39.957 76.3091 40.0874C77.0036 40.1505 76.7456 39.5582 76.7694 38.9777C76.8567 38.8829 76.952 38.792 77.0432 38.7012C77.1266 38.7368 77.1147 38.8236 77.2139 38.8355C77.2536 39.3383 77.2734 39.6622 77.2734 39.807C77.1107 40.0597 76.8766 40.2611 76.9559 40.5731H76.9242ZM75.7853 40.3361C75.6225 40.1782 75.6741 39.8781 75.6583 39.6609C76.0869 39.6214 75.3289 39.1593 75.4598 38.8908C75.4559 38.7921 75.4479 38.7012 75.44 38.6064C75.6662 38.9935 75.8924 39.3844 76.1226 39.7754C76.0948 39.7833 75.9083 39.7082 75.8368 39.7082C75.7257 39.8583 75.7813 40.1545 75.7813 40.3401L75.7853 40.3361ZM73.2375 40.2809C73.2375 40.2809 73.2296 40.2611 73.2296 40.2532C73.2534 40.2256 73.2693 40.1979 73.297 40.1663C73.301 40.2019 73.309 40.2414 73.3129 40.2769H73.2375V40.2809ZM67.9952 40.0953C67.8682 39.9254 67.7412 39.7517 67.6222 39.5779C67.4992 39.1554 67.777 38.5749 67.515 38.2273H67.4396C67.3166 38.4524 67.2015 38.6775 67.0864 38.9066C67.0864 38.9066 67.0626 38.9105 67.0547 38.9184C66.9833 38.6499 66.9118 38.3853 66.8444 38.1247C67.269 37.7139 67.3523 37.6468 67.4833 37.0742C67.5904 37.5994 67.5904 37.6231 67.9595 37.2045C68.6698 37.7416 68.9238 37.8917 69.0032 38.7921C68.7929 39.1949 68.5865 39.5937 68.3762 39.9965C68.1778 40.0571 68.0481 40.0887 67.9873 40.0913L67.9952 40.0953ZM96.937 38.8394C96.937 38.8394 96.9172 38.8118 96.9053 38.796H96.9608C96.9608 38.8197 96.9529 38.8342 96.937 38.8394ZM96.8815 38.5709C96.8934 38.4761 96.9092 38.3853 96.9291 38.2984C96.8815 38.1957 96.687 37.9153 96.7148 37.8048C96.9767 37.8364 97.0164 37.8522 97.2347 37.7021C97.2823 37.7139 97.3299 37.7258 97.3775 37.7337C97.187 38.2352 97.4053 38.3103 96.8815 38.5709ZM88.7065 38.5512C88.643 38.4366 88.5835 38.3458 88.5477 38.2194C88.6033 38.2076 88.6628 38.1997 88.7224 38.1957C88.77 38.251 88.7859 38.2826 88.7859 38.3537L88.8335 38.3655C88.8255 38.4169 88.8255 38.4603 88.8255 38.5156C88.7859 38.5275 88.7462 38.5393 88.7065 38.5512ZM75.3289 38.1483C75.2971 37.9785 75.2694 37.8087 75.2376 37.6389C75.2733 37.8087 75.317 37.9746 75.3289 38.1483ZM66.8364 37.8956C66.9872 36.7741 67.1539 35.5419 67.5706 34.4954C67.6142 34.7205 67.5547 35.1826 67.8523 35.1431C68.3418 34.1163 68.6156 33.5608 68.6738 33.4766C68.6738 33.4766 68.7056 33.5121 68.7254 33.5279C68.3643 34.6652 68.1738 35.7591 67.9674 36.9399C67.8166 37.1295 67.7267 37.2295 67.6976 37.2401C67.6209 36.8688 67.5679 36.6503 67.5388 36.5845H67.4357C67.2968 37.1927 67.3047 37.4849 66.8404 37.8877L66.8364 37.8956ZM68.7611 37.6231C68.5548 37.4652 68.3563 37.3032 68.154 37.1492C68.154 35.6091 68.781 33.9899 69.2651 32.5485C69.3127 32.5169 69.3564 32.4814 69.4159 32.4814C69.5151 32.7183 69.5072 32.9197 69.785 32.9197C69.8009 33.0817 69.7612 33.208 69.9397 33.208C70.0509 33.0974 70.1659 32.979 70.281 32.8645C70.5469 33.3344 70.5866 33.9347 70.6898 34.4638C70.5588 34.61 70.3247 34.6021 70.1937 34.7008C69.8009 35.4511 69.4993 36.0316 68.9595 36.6635C68.8603 36.9597 68.8405 37.2993 68.7929 37.6034C68.7849 37.6113 68.773 37.6152 68.7651 37.6231H68.7611ZM74.7931 37.3269C74.7614 37.319 74.7257 37.3032 74.6979 37.2914C74.69 37.1887 74.686 37.0821 74.686 36.9794H74.8527V37.3269H74.7971H74.7931ZM71.7692 37.1611C71.7692 37.0347 71.7811 36.9952 71.8367 36.8649C71.916 36.8649 71.9557 36.8715 71.9557 36.8846H71.92C71.8962 37.011 71.8406 37.0544 71.7732 37.1571L71.7692 37.1611ZM75.563 37.1255C75.3606 37.0268 75.194 36.9992 75.0432 36.9518C74.9757 36.7148 74.6979 36.7148 74.9003 36.4502C74.8368 36.3594 74.7495 36.3278 74.6542 36.2686C74.6542 36.0672 74.8011 35.8184 74.8725 35.6288C74.8725 35.1905 74.3685 34.9259 74.3169 34.5586C74.436 34.531 74.5114 34.531 74.5392 34.4085C74.7614 34.377 74.9797 34.3533 75.2059 34.3256C75.5128 34.8021 75.694 35.0759 75.7495 35.147C76.3805 35.23 76.1702 35.4116 76.1067 35.9882C76.3051 36.3831 76.4374 36.6595 76.5035 36.8175C76.19 36.9241 75.8765 37.0229 75.567 37.1295L75.563 37.1255ZM73.3645 36.7583C73.1343 36.5687 73.0073 36.4937 73.0073 36.1817C73.0907 36.079 73.2097 35.8579 73.3328 35.8144C73.4955 36.0553 73.6502 36.2962 73.8169 36.5411C73.7613 36.6477 73.4836 36.6437 73.3685 36.7583H73.3645ZM73.9677 36.4858C73.7852 36.2093 73.6026 35.9368 73.424 35.6644C73.424 35.3129 73.8248 34.8351 73.5828 34.5586C73.5643 34.4665 73.5497 34.2637 73.5391 33.9505C73.637 33.9268 73.7296 33.9175 73.8169 33.9228C74.0431 34.373 74.2138 34.7956 74.5273 35.1865C74.7455 35.6288 74.6384 35.7433 74.4677 36.2172C74.2971 36.3041 74.1344 36.387 73.9677 36.4858ZM72.8129 36.0435C72.6343 35.9171 72.5708 35.8579 72.3605 35.8263C72.5827 35.4551 72.5827 35.0917 72.6343 34.6573C72.7931 34.2032 73.0669 33.8873 72.8129 33.4647C72.2335 33.4647 72.051 34.8706 72.0033 35.2971C71.9557 35.2971 71.9121 35.301 71.8763 35.305C71.797 35.4116 71.7097 35.5775 71.5906 35.6051C71.9676 35.0878 71.9914 34.5547 72.1184 33.9268C72.2454 33.7293 72.6184 33.2159 72.3962 32.9948C72.5907 32.7618 72.7851 32.5327 72.9835 32.3037C73.055 32.2958 73.1304 32.2918 73.2018 32.2839C73.2018 32.5248 73.2494 32.6749 73.0788 32.8408C73.1066 33.0817 73.1502 33.3265 73.1859 33.5674C73.1145 33.599 73.047 33.6385 72.9796 33.678C72.9796 33.7648 72.9796 33.8517 72.9875 33.9465C73.0193 33.9702 73.051 33.9899 73.0907 34.0176C73.0629 34.2269 72.9677 34.144 72.8724 34.2822C72.7891 34.5428 72.6621 34.8074 72.6343 35.0799C72.678 35.1115 72.7256 35.1352 72.7732 35.1628C72.7732 35.7789 72.5391 35.4353 72.8486 36.0474H72.8129V36.0435ZM73.0193 36.0079C72.9439 35.8855 72.8764 35.771 72.805 35.6565C72.9161 35.3366 73.182 34.8232 73.5113 34.7166C73.428 35.0128 73.2097 35.4551 73.2097 35.7512C73.2296 35.7631 73.2455 35.7828 73.2653 35.8065C73.1992 35.8697 73.1171 35.9382 73.0193 36.0119V36.0079ZM69.8048 35.771C69.9636 35.459 70.1302 35.151 70.2969 34.8469C70.5191 34.8469 70.5588 34.8469 70.7215 34.6968C70.908 34.8824 70.6144 35.1036 70.5033 35.226C70.0866 35.226 70.1659 35.2537 70.0866 35.6644C69.9953 35.6999 69.9001 35.7315 69.8048 35.771ZM72.8804 35.0404C72.8804 35.0404 72.8407 35.0128 72.8248 35.0009C72.8248 34.8074 72.9518 34.5586 73.0193 34.3691C73.182 34.3414 73.2296 34.1756 73.297 34.0334C73.305 34.2229 73.3724 34.4559 73.3724 34.606C73.2534 34.7166 73.0391 35.0049 72.8843 35.0365L72.8804 35.0404ZM75.9837 35.0207C75.6583 34.9456 75.4678 34.4283 75.2932 34.1598C75.4202 33.9899 75.563 33.832 75.7138 33.678C76.2138 34.0768 76.2099 33.52 76.6504 33.7372C76.5829 33.8241 76.5234 34.5902 76.4797 34.7995C76.1821 34.7008 76.1781 34.7008 76.0749 35.0207H75.9837ZM67.8087 34.8232C67.7373 34.4704 67.6963 34.2203 67.6857 34.0729C67.9516 33.3265 68.2293 32.6946 68.6103 31.9996C68.5786 32.1813 68.5508 32.3629 68.523 32.5406C68.7492 32.7499 68.8564 32.2681 69.0429 32.2681C69.023 32.3906 68.9834 32.5051 68.9953 32.6236C69.0072 32.6315 69.027 32.6433 69.0508 32.6591C68.9675 32.8921 68.8881 33.1251 68.8127 33.362C68.7333 33.3265 68.6341 33.2436 68.5508 33.2989C68.3008 33.8004 68.0508 34.3098 67.8047 34.8232H67.8087ZM74.186 34.294C73.8883 33.7056 74.0352 33.6701 73.932 33.0382C74.0352 32.7697 74.1026 32.5209 74.1582 32.2444C74.4003 32.201 74.7416 31.9325 74.9043 31.9325C74.9162 31.9443 74.9281 31.9522 74.9439 31.972C74.8884 32.3708 74.6225 32.4893 74.3209 32.7262C74.2455 33.3225 74.0907 33.7372 74.2971 34.2822C74.2614 34.2861 74.2177 34.294 74.186 34.298V34.294ZM74.4757 34.2545C74.2812 33.7964 74.3169 33.2633 74.4836 32.7894C74.6344 32.667 74.7812 32.5525 74.932 32.4379C75.3408 32.5367 75.2297 32.7618 75.3924 33.0224C75.4598 33.0224 75.5273 33.0303 75.5987 33.0343C75.5987 33.2949 75.9162 33.0106 76.0392 32.9908C76.1146 33.1843 76.194 33.3739 76.2694 33.5674C76.1107 33.8478 75.8408 33.5871 75.6979 33.4805C75.4757 33.5871 75.2575 33.9386 75.1066 34.14C75.0405 34.1611 74.8302 34.1979 74.4757 34.2506V34.2545ZM73.2891 33.9702V33.9307C73.2415 33.907 73.1978 33.8873 73.1502 33.8636V33.7648C73.2177 33.7333 73.2851 33.6977 73.3486 33.6701C73.3381 33.5279 73.3023 33.2699 73.2415 32.896C73.4082 32.6986 73.3685 32.5564 73.3724 32.2918C73.6621 32.122 73.674 32.0944 73.7653 31.7745C74.0034 31.6205 74.2534 31.3993 74.559 31.4388C74.5233 31.5257 74.5193 31.5415 74.5471 31.6323C74.6939 31.6323 74.8011 31.5533 74.9281 31.4862C74.682 31.9285 74.5154 31.9838 74.0193 32.1141C73.8248 32.5011 73.7733 33.1211 73.8645 33.5397C73.8487 33.5819 73.809 33.6464 73.7455 33.7333C73.6106 33.7451 73.4875 33.7569 73.3605 33.7727C73.3328 33.7964 73.305 33.9662 73.2891 33.9662V33.9702ZM76.8409 33.678C76.8726 33.5713 77.0353 33.5397 77.0909 33.4292C76.9837 33.2475 76.7059 32.8842 76.7059 32.6828C76.9401 32.5011 77.1385 32.3432 77.2536 32.0786C77.7457 31.7824 78.2179 31.4507 78.6862 31.1189C78.6822 31.1071 78.6743 31.0992 78.6743 31.0992C78.6386 31.0953 78.5949 31.0992 78.5632 31.1071C77.9917 31.4033 77.3091 31.0123 76.7099 31.4309C76.7099 31.5494 76.7416 31.5691 76.8567 31.6165C76.8329 31.66 76.8131 31.7034 76.7932 31.7469C76.6424 31.7469 76.5313 31.7469 76.4043 31.66C75.9003 31.66 75.8964 32.2326 75.4559 31.8298C75.7654 31.5573 76.0869 31.2848 76.4083 31.0123C76.6226 30.9847 76.8409 30.9531 77.0631 30.9294C77.2179 30.7517 77.3726 30.5779 77.5274 30.4002C77.702 30.4002 77.698 30.4831 77.7219 30.2659C77.8885 30.3647 78.0512 30.4634 78.2139 30.5661C78.7655 30.5661 78.8727 30.2462 79.4164 30.4792C79.4296 30.5266 79.4336 30.5911 79.4283 30.6727C79.0592 30.9452 78.6901 31.2177 78.3251 31.4981C78.1941 31.7113 77.9401 32.2365 77.7298 32.3629C77.7695 32.7973 77.9361 33.0303 77.7179 33.4292C77.4282 33.5121 77.1345 33.595 76.8409 33.6819V33.678ZM76.6226 33.5674C76.5551 33.5516 76.4916 33.5358 76.4242 33.5279C76.3646 33.3739 76.1702 33.0264 76.198 32.8684C76.2297 32.8447 76.2615 32.825 76.2972 32.8052C76.3051 32.8802 76.3131 32.9632 76.321 33.0461C76.4215 32.9513 76.4996 32.8855 76.5551 32.8487C76.6305 32.9829 76.8726 33.2831 76.8726 33.4292C76.7853 33.5042 76.7258 33.5397 76.6226 33.5753V33.5674ZM77.6107 33.2554C77.2086 32.8842 77.0022 32.6894 76.9917 32.6709C77.4956 32.1418 77.6782 32.6986 77.7258 33.1883C77.7179 33.2041 77.702 33.2199 77.6941 33.2436C77.6663 33.2436 77.6385 33.2475 77.6107 33.2554ZM69.9477 32.9434C69.904 32.7341 69.9001 32.7499 69.6858 32.7183C69.6104 32.5367 69.3723 32.1141 69.4119 31.9167C69.5429 31.8456 69.7453 31.656 69.9001 31.656C70.0112 31.8614 70.0628 31.8772 70.281 31.8337C70.2334 32.1141 70.2175 32.7815 69.9517 32.9434H69.9477ZM72.2414 32.9079C72.1859 32.8684 72.1303 32.8329 72.0827 32.8013C72.1224 32.2247 71.9954 31.893 72.2494 31.3125C72.3922 31.2453 72.5351 31.1861 72.678 31.1268C72.8248 30.9491 72.9915 30.5108 73.1542 30.4279C73.1542 30.5108 73.1621 30.5977 73.1701 30.6845C73.2455 30.7556 73.309 30.7003 73.3804 30.649C73.4359 31.036 73.3804 30.9294 73.8645 31.0716C73.9201 31.1505 73.9796 31.2256 74.0391 31.3085C74.0669 31.3085 74.2336 31.2651 74.2336 31.3243C73.5986 31.4586 73.7336 31.9167 73.3645 32.1141C73.2177 32.122 73.0669 32.126 72.924 32.1339C72.6978 32.3906 72.4716 32.6472 72.2494 32.9118L72.2414 32.9079ZM80.726 32.667C80.7577 32.6117 80.7974 32.5564 80.8331 32.509C80.8622 32.5327 80.8847 32.5617 80.9006 32.5959C80.8821 32.6143 80.8238 32.638 80.726 32.667ZM78.4838 32.5801C78.46 32.5564 78.2854 32.488 77.96 32.3748C77.9626 32.3484 78.0936 32.1312 78.3528 31.7232C78.7298 31.7232 78.7894 31.6442 78.8806 31.2611C79.1187 31.0795 79.3529 30.9057 79.591 30.7319C79.587 30.6451 79.587 30.5621 79.587 30.4792C80.9522 29.721 82.2697 28.8917 83.6547 28.169C83.8451 28.0821 84.9563 27.4621 85.1071 27.5134C85.127 27.5727 85.1587 27.62 85.1309 27.6793C83.2777 28.4296 81.5276 29.488 79.841 30.5463C79.8331 30.5621 79.8291 30.5819 79.8291 30.6095C79.9878 30.7003 79.9839 30.7517 80.1942 30.7872C80.1823 30.8188 80.1783 30.8465 80.1743 30.8702C79.71 31.3164 78.964 32.4222 78.4798 32.5841L78.4838 32.5801ZM79.9561 32.5406C79.8569 32.28 79.7577 32.0233 79.6584 31.7627C79.6307 31.7548 79.5989 31.739 79.5751 31.7311C79.7021 31.5612 79.9204 31.2453 80.1228 31.1979C80.2775 31.3519 80.3093 32.1378 80.3291 32.4143C80.1982 32.5209 80.1228 32.5209 79.9561 32.5367V32.5406ZM71.6382 32.3906C71.5549 32.2918 71.4993 32.2128 71.3803 32.1773C71.4636 32.0391 71.7414 31.6916 71.9121 31.423H72.0311C71.9121 31.7232 71.8922 31.9285 71.8644 32.2563C71.789 32.3037 71.7097 32.3471 71.6422 32.3906H71.6382ZM70.8446 32.3629C70.7692 32.3274 70.6898 32.2958 70.6223 32.2681C70.5945 32.1181 70.5668 31.9601 70.5469 31.814C70.5985 31.5297 70.7969 31.3046 70.8326 31.0084C71.1184 30.9096 71.4041 30.8109 71.6978 30.7201C71.7533 30.5424 71.797 30.1435 72.0668 30.1435C71.9835 30.7714 71.7335 31.9956 71.0073 32.2089C70.9715 32.276 70.9279 32.3471 70.8525 32.3629H70.8446ZM69.1976 32.3234C69.2135 32.2365 69.2294 32.1457 69.2532 32.0667H69.277C69.285 32.122 69.3008 32.1773 69.3207 32.2286C69.277 32.2563 69.2373 32.2918 69.1976 32.3234ZM95.3179 32.3076C95.0361 32.0391 94.7544 31.7903 94.4806 31.5297C94.5784 31.5955 94.6406 31.6284 94.6671 31.6284C94.5917 31.3993 94.0837 30.9886 94.5718 30.9294C94.9885 31.344 95.1115 31.7192 95.3298 32.2681C95.3258 32.28 95.3179 32.2918 95.3139 32.3076H95.3179ZM68.7413 32.2839C68.777 32.0865 68.8167 31.889 68.8524 31.6995C68.9873 31.656 69.1183 31.6126 69.2532 31.5731C69.2651 31.7074 69.285 31.8061 69.2175 31.9364C69.0349 31.9364 68.8683 32.1694 68.7413 32.2879V32.2839ZM75.1582 31.3559C75.309 31.2414 75.4837 31.0321 75.694 31.1268V31.1584C75.4876 31.3125 75.4043 31.3361 75.1582 31.3559ZM74.313 31.3006C74.3526 31.273 74.3884 31.2493 74.4241 31.2295C74.432 31.2453 74.44 31.2611 74.4439 31.2848C74.4003 31.2848 74.3566 31.2927 74.313 31.3006ZM76.5512 30.8228C76.5393 30.7951 76.5313 30.7754 76.5194 30.7517C76.3964 30.7517 76.3448 30.7596 76.2218 30.7991C76.1464 30.7517 76.071 30.7003 75.9876 30.6569C75.9876 30.57 76.0273 30.5068 76.067 30.4279C76.2337 30.4081 76.6464 30.4555 76.6464 30.2383C76.6147 30.2146 76.5789 30.1909 76.5551 30.1751C76.5591 30.1593 76.571 30.1475 76.5789 30.1396C76.5988 30.1396 76.6226 30.1475 76.6464 30.1554C76.6729 30.2238 76.702 30.2791 76.7337 30.3212C76.7575 30.3212 76.7813 30.3252 76.8091 30.3331C76.825 30.3212 76.8488 30.3015 76.8686 30.2896C76.8488 30.2028 76.829 30.1119 76.8131 30.029C76.829 30.029 76.8488 30.0369 76.8686 30.0408C76.8726 30.0566 76.8885 30.0764 76.8924 30.0961C77.1504 30.108 77.2377 30.0843 77.4163 30.2659C77.0591 30.6924 77.0829 30.7596 76.5472 30.8188L76.5512 30.8228ZM71.039 30.7714C71.2017 30.5898 71.3604 30.5305 71.5866 30.4279C71.5919 30.4621 71.588 30.5121 71.5747 30.5779C71.3922 30.6411 71.2136 30.7043 71.043 30.7714H71.039ZM73.8963 30.6293C73.8275 30.2659 73.7957 30.054 73.801 29.9935C73.9122 30.0843 73.9637 30.1356 74.1026 30.1198C74.1304 29.9895 74.1582 29.8592 74.1899 29.7328C74.3685 29.7684 74.5431 29.7999 74.7217 29.8315C74.4638 30.0922 74.2812 30.2186 74.1899 30.5621C74.0907 30.5819 73.9915 30.6056 73.8963 30.6332V30.6293ZM78.2735 30.4081C78.21 30.3607 78.1385 30.3133 78.083 30.2699C78.2735 30.2699 78.4679 30.2699 78.6584 30.2778V30.2975C78.5274 30.3291 78.4005 30.3686 78.2735 30.4081ZM74.9955 29.5472C74.9876 29.4959 74.9876 29.4406 74.9876 29.3971C75.2138 29.3063 75.3527 29.1839 75.5789 29.1247C75.5471 29.2194 75.5273 29.3142 75.5075 29.405C75.2138 29.4208 75.2336 29.4287 74.9955 29.5472ZM75.7972 29.1089C75.7694 29.101 75.7495 29.0852 75.7257 29.0812C75.7535 29.0694 75.7892 29.0615 75.821 29.0496C75.8091 29.0694 75.8011 29.0852 75.7972 29.1049V29.1089ZM82.8372 29.1089C82.8054 29.1049 82.7737 29.101 82.7459 29.0931V29.0536C82.7895 29.0654 82.8372 29.0773 82.8808 29.0891C82.861 29.097 82.8451 29.101 82.8372 29.1128V29.1089ZM81.8451 29.0536C81.8451 29.0536 81.8609 29.0338 81.9443 29.0417C81.9125 29.0457 81.8768 29.0536 81.8451 29.0536ZM78.0909 27.4186C78.0433 27.3949 78.0076 27.3713 77.9679 27.3515C77.9719 27.2014 77.9798 27.0474 77.9877 26.8974C78.1187 26.8065 78.2377 26.6802 78.3806 26.6367C78.3727 26.8697 78.4203 26.7354 78.4798 26.8618C78.3885 26.9566 78.3489 26.9566 78.3647 27.0988C78.4097 27.1119 78.4587 27.1146 78.5116 27.1067C78.4679 27.2449 78.2258 27.3594 78.0909 27.4226V27.4186ZM76.7734 22.8179C79.087 22.6284 81.4681 23.9118 83.3213 25.144C83.2975 25.1466 83.0673 25.0768 82.6308 24.9347C82.5461 24.8241 82.4959 24.7675 82.48 24.7648C82.3371 24.9149 82.0355 24.8794 81.849 24.8162C81.8371 24.7648 81.8212 24.7333 81.849 24.6898C81.8252 24.678 81.5554 24.6898 81.5038 24.678C81.5038 24.5437 81.5276 24.4726 81.5712 24.3502C80.976 23.8408 79.7537 24.0974 79.1148 24.3936C79.1148 24.5161 79.5315 24.4015 79.5315 24.6859C79.6545 24.7372 79.7735 24.7925 79.9005 24.8478C79.8966 24.9465 79.8807 25.0334 79.8331 25.1203C79.8648 25.144 79.8966 25.1716 79.9362 25.1992C79.9362 25.2229 79.9362 25.2506 79.9442 25.2822C79.8767 25.3493 79.7735 25.3533 79.7219 25.4322C79.7696 25.5231 79.8172 25.61 79.8727 25.7047C79.9323 25.7047 79.9997 25.7126 80.0672 25.7245C80.1704 25.8864 79.972 25.9219 79.8529 25.9693C79.8251 26.0602 79.7973 26.147 79.7735 26.2339C77.1385 26.1233 74.4082 26.0088 71.8684 26.8184C71.6462 26.9132 71.4993 26.9763 71.3922 27.0237C72.9161 25.3335 74.7336 23.9118 76.7655 22.8298L76.7734 22.8179ZM86.9008 26.7433C86.877 26.7196 86.8294 26.7012 86.758 26.6881C86.758 26.4195 88.6946 25.0729 88.9446 24.8754C88.6827 24.8675 88.6271 24.8517 88.4684 24.6543C88.6628 24.6187 89.1906 24.5555 89.3176 24.6148C89.606 24.4226 89.7714 24.3054 89.8137 24.2633C89.5597 24.1093 89.3057 23.9592 89.0557 23.8092C89.2462 23.5564 88.6112 23.5564 88.4485 23.4498C88.2303 23.0904 88.2263 23.2286 87.8295 23.434C87.4961 23.1892 87.258 23.1497 86.8334 23.1181C86.8254 23.126 86.8135 23.1299 86.8016 23.1418C86.6032 22.972 86.5318 23.0746 86.3413 23.2405C86.3413 23.4221 86.4326 23.4537 86.5596 23.5762C86.5596 23.6591 86.4961 23.7025 86.4445 23.7618C86.4127 23.7302 86.381 23.6946 86.3453 23.667C86.3373 24.6424 86.3254 25.6178 86.3254 26.5972H86.1587C86.1548 26.2497 86.1468 25.9061 86.1389 25.5626C86.0992 25.6021 86.0833 25.61 86.0357 25.6179C85.9524 25.527 85.873 25.4401 85.7937 25.3572C85.7989 25.3335 85.8214 25.3111 85.8611 25.2901C85.877 25.3177 85.8968 25.3493 85.9167 25.3849C85.9921 25.3928 86.0635 25.4085 86.1429 25.4204C86.1588 25.2308 86.1667 24.5213 86.1667 23.2918C86.0953 23.2484 86.0437 23.1931 85.9762 23.1734C85.9325 23.2089 85.8849 23.2602 85.8214 23.2602C85.754 23.1734 85.6865 23.0746 85.627 22.9838C85.75 22.972 85.8691 22.9601 85.9921 22.9483C86.0079 22.9219 86.0159 22.8824 86.0159 22.8298C86 22.814 85.8902 22.7784 85.6865 22.7232C85.8492 22.7113 86.0119 22.6995 86.1786 22.6955C86.1786 22.3519 86.1826 22.0084 86.1865 21.6727C85.1256 21.6148 84.5581 21.5792 84.4841 21.5661C84.2618 21.4002 84.1256 21.3081 84.0753 21.2896C83.7301 21.3844 83.0197 21.4871 83.6864 21.6964C83.5634 21.7596 83.4443 21.8228 83.3293 21.8899C83.3293 22.0834 83.5912 22.0755 83.7459 22.1229V22.1584C83.5316 22.2453 83.8809 22.3835 83.9245 22.3993C83.9245 22.4388 83.9325 22.4744 83.9404 22.5139C83.5991 22.5297 83.2578 22.5454 82.9126 22.5652C82.9126 22.5297 82.9126 22.4941 82.9205 22.4546C82.8649 22.4033 82.7737 22.4151 82.7022 22.4033V22.3283C82.6189 22.2453 82.5038 22.3282 82.4125 22.3598C82.1784 22.1229 81.8173 22.5139 81.7617 22.7548C81.5752 22.739 81.3927 22.7232 81.2101 22.7113C81.1704 22.6679 81.1863 22.6086 81.1466 22.5652C80.8966 22.5652 80.6148 22.656 80.3609 22.7074C80.4005 22.6758 80.4402 22.6521 80.4799 22.6244V22.5297C80.4601 22.5139 80.4363 22.4981 80.4164 22.4862C79.9561 22.6442 79.7153 22.7205 79.6942 22.7153C80.222 22.1229 81.1149 22.0834 81.7339 21.6372V21.5621C81.7022 21.5384 81.6744 21.5147 81.6546 21.5029C84.1269 20.5235 86.9961 21.3094 89.4645 21.7003C90.6034 22.1782 91.7304 22.6521 92.8654 23.1299C92.8654 23.5485 92.8575 23.6117 92.5678 23.9039C92.5678 24.0935 92.8495 24.1093 92.8773 24.3383C92.913 24.3462 92.9567 24.366 93.0003 24.3818C93.0321 24.5595 93.0638 24.7412 93.0956 24.9228C92.7186 25.0334 91.6034 25.5073 91.2503 25.4401C90.8494 24.6464 90.8733 24.7411 89.9923 24.6108C89.9843 24.5397 89.9804 24.4687 89.9804 24.3976C88.9089 25.14 87.9009 25.9022 86.9127 26.7473L86.9008 26.7433ZM80.5791 26.305C80.5474 26.2971 80.5275 26.2852 80.5077 26.2734C80.5553 26.2497 80.599 26.2379 80.6585 26.2458C80.6664 26.2616 80.6744 26.2852 80.6902 26.305H80.5791ZM80.3807 26.2852C80.2974 26.2773 80.214 26.2734 80.1347 26.2655C80.2021 26.1668 80.2458 26.0483 80.3807 26.0957C80.3926 26.1589 80.4005 26.2181 80.4125 26.2852H80.3807ZM86.7342 25.2308C86.7342 25.2308 86.7104 25.2071 86.7024 25.1992C86.7024 25.1992 86.7381 25.2071 86.7659 25.215C86.754 25.215 86.7421 25.2269 86.7342 25.2308ZM85.4008 24.9544C85.373 24.8636 85.2976 24.8636 85.2222 24.8122C85.3849 24.8122 85.8532 24.753 85.4722 24.8596C85.4444 24.8952 85.4206 24.9268 85.4008 24.9544ZM87.8334 24.9544C87.8136 24.9307 87.7937 24.9031 87.7699 24.8794C87.8136 24.8912 87.8572 24.9031 87.9049 24.9149C87.9049 24.9268 87.9128 24.9386 87.9168 24.9465C87.889 24.9465 87.8612 24.9544 87.8334 24.9544ZM87.381 24.7925C87.3691 24.7688 87.3572 24.7569 87.3453 24.7412C87.3612 24.7135 87.389 24.678 87.4247 24.6938C87.4167 24.7293 87.4167 24.7569 87.4167 24.7925H87.381ZM85.2738 24.5595C85.25 24.5332 85.2367 24.5068 85.2341 24.4805H85.5635V24.5003C85.4444 24.5161 85.3479 24.5345 85.2738 24.5555V24.5595ZM86.0199 24.5358C85.9921 24.5121 85.9683 24.4884 85.9484 24.4726C85.9762 24.4687 86.004 24.4647 86.0437 24.4647C86.0437 24.4805 86.0437 24.4924 86.0516 24.5161C86.0397 24.524 86.0278 24.5279 86.0199 24.5358ZM88.4208 24.4094C88.3533 24.2436 88.0874 24.2673 87.9287 24.2475C87.9128 24.1488 87.9128 24.054 87.8493 23.979C87.7461 23.979 87.6826 24.054 87.6072 24.1132C87.5715 23.8408 87.5874 23.821 87.381 23.6828C87.381 23.667 87.381 23.6551 87.385 23.6315C87.4326 23.6117 87.4802 23.588 87.5318 23.5722C87.9168 23.7973 88.266 23.7065 88.6628 23.821C88.6946 23.8684 88.7105 23.9158 88.7382 23.975C88.6231 23.9434 88.4128 23.8526 88.3096 23.9316C88.3096 23.9632 88.3017 23.9948 88.3017 24.0264C88.389 24.0738 88.4803 24.1132 88.5716 24.1567C88.5398 24.1764 88.516 24.1962 88.4882 24.2159V24.3028C88.516 24.3225 88.5398 24.3462 88.5716 24.3699C88.5345 24.3884 88.4829 24.4015 88.4168 24.4094H88.4208ZM85.1944 24.1369C85.1508 24.0382 85.0992 23.9434 85.0516 23.8526C84.8452 23.8526 84.6865 23.9948 84.4999 23.9948C84.3531 23.8052 83.8213 23.8645 83.5872 23.8526C83.5872 23.4735 82.603 23.6315 82.3808 23.6315V23.4853C82.6229 23.4695 82.8649 23.4616 83.111 23.4498C83.1295 23.4261 83.1388 23.3879 83.1388 23.3353C83.1202 23.3168 82.8517 23.2326 82.3332 23.0825C82.3332 23.0549 82.3411 23.0272 82.3451 23.0035C82.8292 22.9404 83.1348 22.9127 83.6031 23.043C83.6031 23.0667 83.611 23.0865 83.615 23.1141C83.6388 23.1339 83.6666 23.1497 83.7023 23.1655C83.7023 23.2602 83.615 23.2958 83.615 23.4024C84.0317 23.6394 84.4364 23.825 84.9008 23.6551C85.1494 23.6683 85.2883 23.6815 85.3174 23.6946C85.3293 23.825 85.3373 23.9592 85.3532 24.0895C85.2936 24.1053 85.246 24.1211 85.1944 24.1409V24.1369ZM86.8453 24.1172C86.8334 24.0777 86.8215 24.0343 86.8096 23.9908C86.8493 23.9908 86.8929 23.9987 86.9366 24.0106C86.9445 24.0382 86.9564 24.0659 86.9762 24.0974C86.9286 24.1014 86.885 24.1093 86.8413 24.1172H86.8453ZM85.6905 24.0422C85.6905 23.9237 85.5555 23.7934 85.4762 23.7104C85.582 23.7052 85.6905 23.7104 85.8016 23.7262C85.8571 23.8052 85.8294 23.896 85.8095 23.9948C85.7738 24.0145 85.7302 24.0303 85.6905 24.0461V24.0422ZM92.8416 24.0106C92.7067 23.9118 92.8337 23.8605 92.9289 23.7736C92.9474 23.7868 92.9659 23.8342 92.9845 23.9158C92.9051 23.9158 92.8853 23.9474 92.8376 24.0106H92.8416ZM93.0281 23.4972C93.0202 23.3432 93.0162 23.1931 93.0083 23.0391C93.0241 23.0338 93.0757 23.0799 93.163 23.1773C93.1392 23.1852 93.1194 23.1931 93.0916 23.2089C93.0863 23.3195 93.0916 23.4116 93.1075 23.4853C93.0797 23.4853 93.0519 23.4932 93.0241 23.4972H93.0281ZM85.1944 23.3866C85.0992 23.3392 85.0516 23.2247 84.9643 23.1418C85.1547 23.0272 85.3373 23.0154 85.5635 23.0154C85.4286 23.1339 85.2658 23.2207 85.1944 23.3866ZM78.4322 22.972C78.4587 22.9535 78.4811 22.9443 78.4997 22.9443C78.4759 22.9522 78.456 22.9641 78.4322 22.972ZM85.2738 22.7903C85.1785 22.7627 85.0833 22.735 84.996 22.7074C85.119 22.6916 85.2381 22.6758 85.3611 22.6679C85.3373 22.7153 85.3293 22.7745 85.2738 22.7903ZM92.7503 22.735C92.786 22.6402 92.8019 22.6442 92.9051 22.6679C92.8495 22.6876 92.8019 22.7074 92.7503 22.735ZM79.1703 22.7192C79.1545 22.7008 79.1227 22.6837 79.0751 22.6679C79.1108 22.6521 79.1465 22.6363 79.1862 22.6244C79.1822 22.6521 79.1743 22.6837 79.1703 22.7192ZM86.3492 22.7034V22.4981C86.4207 22.5165 86.4775 22.5389 86.5199 22.5652C86.5199 22.7113 86.4881 22.6916 86.3492 22.7034ZM86.3492 22.4823V21.6964C86.4008 21.7003 86.4484 21.7043 86.504 21.7122C86.5305 21.7517 86.5529 21.8122 86.5715 21.8938C87.2024 22.0123 86.6865 22.3677 86.3492 22.4823ZM93.4091 22.4823C91.0836 21.5463 88.8414 21.1001 86.3492 20.9658C86.3572 20.8276 86.3611 20.6933 86.3691 20.5512C89.1311 20.6143 91.7542 21.2501 94.1194 22.344C93.8813 22.3875 93.6432 22.4349 93.4131 22.4823H93.4091ZM80.8172 21.8425C81.1982 21.6766 81.4059 21.5937 81.4403 21.5937C81.2458 21.6766 81.0196 21.803 80.8172 21.8425Z" fill="white"/>
</svg>
