<svg width="104" height="63" viewBox="0 0 104 63" fill="none" xmlns="http://www.w3.org/2000/svg">
<mask id="mask0_2039_19" style="mask-type:luminance" maskUnits="userSpaceOnUse" x="0" y="0" width="104" height="64">
<path d="M103.951 0H0V63.3514H103.951V0Z" fill="white"/>
</mask>
<g mask="url(#mask0_2039_19)">
<path d="M17.5076 0.468994V28.8491H12.7776V4.553H4.73001V28.8491H0V0.468994H17.5076Z" fill="white"/>
<path d="M26.0484 27.7272C24.6315 26.4259 23.6009 24.7589 23.0703 22.9096C22.2936 20.3144 21.9242 17.6144 21.9754 14.9059C21.9253 12.1219 22.2944 9.34623 23.0703 6.67215C23.5914 4.76207 24.6206 3.02902 26.0484 1.65747C27.2969 0.586678 28.8873 -0.00195312 30.5321 -0.00195312C32.1768 -0.00195312 33.7673 0.586678 35.0157 1.65747C36.4513 3.01672 37.4788 4.74964 37.983 6.6612C38.76 9.33881 39.1291 12.1182 39.0779 14.9059C39.1287 17.618 38.7594 20.3215 37.983 22.9206C37.4659 24.7706 36.442 26.4393 35.0267 27.7381C33.7536 28.7647 32.1675 29.3244 30.5321 29.3244C28.8967 29.3244 27.3106 28.7647 26.0375 27.7381L26.0484 27.7272ZM27.209 20.5446C27.3941 21.7822 27.8502 22.9637 28.5449 24.0045C28.7636 24.3322 29.0576 24.6027 29.4025 24.7931C29.7473 24.9836 30.1328 25.0887 30.5267 25.0994C31.6982 25.0994 32.6179 24.2454 33.2968 22.5374C34.0823 20.0621 34.4234 17.4672 34.3041 14.873C34.3342 12.8995 34.1803 10.9274 33.8442 8.9824C33.6676 7.70356 33.2156 6.47828 32.5194 5.3911C32.324 5.03486 32.0364 4.73767 31.6868 4.53066C31.3372 4.32366 30.9384 4.21444 30.5321 4.21444C30.1258 4.21444 29.7269 4.32366 29.3773 4.53066C29.0277 4.73767 28.7402 5.03486 28.5449 5.3911C27.857 6.47945 27.4022 7.69853 27.209 8.97149C26.869 10.9124 26.7114 12.8808 26.7383 14.8511C26.7083 16.7598 26.866 18.6668 27.209 20.5446Z" fill="white"/>
<path d="M54.7001 0.468994V11.3524H52.1927C51.2839 11.4022 50.3762 11.2372 49.5431 10.8706C48.8856 10.5216 48.3819 9.93993 48.1307 9.2392C47.7962 8.26437 47.644 7.23626 47.6817 6.20632V0.468994H42.9517V6.18442C42.8142 8.64984 43.5509 11.0848 45.0321 13.0604C45.8098 13.9243 46.7739 14.6 47.8514 15.0363C48.9289 15.4726 50.0914 15.6581 51.2511 15.5787H54.7001V28.8491H59.4301V0.468994H54.7001Z" fill="white"/>
<path d="M80.1762 4.553H74.625V28.8491H69.895V4.553H64.3438V0.468994H80.1762V4.553Z" fill="white"/>
<path d="M89.7051 0.464378H93.4933C95.0543 0.380046 96.6059 0.761116 97.9496 1.55929C99.1228 2.34322 100.035 3.4606 100.567 4.76737C101.218 6.38858 101.627 8.09661 101.782 9.8368L103.972 28.7896H99.2421L97.7093 15.5522H89.6829V28.8444H84.9532V0.464378H89.7051ZM89.7051 11.5229H97.2603L97.0634 9.8915C96.9757 8.84322 96.7584 7.80982 96.4167 6.81485C96.1773 6.14536 95.7078 5.58271 95.0918 5.22722C94.2977 4.84648 93.42 4.6732 92.5407 4.72357H89.7051V11.5229Z" fill="white"/>
<path d="M5.21177 34.4997C6.78881 34.458 8.34536 34.8643 9.70089 35.6713C11.0299 36.5172 12.066 37.7521 12.6681 39.2079C13.4372 41.0629 13.8102 43.0581 13.763 45.0656C13.8117 46.9645 13.4727 48.8534 12.7667 50.6168C12.2436 51.9714 11.398 53.1778 10.3031 54.1315C9.56277 54.829 8.60268 55.2471 7.58771 55.314C7.062 55.3508 6.53461 55.2719 6.04273 55.0826C5.55086 54.8935 5.10648 54.5987 4.74096 54.2191V62.8798H0V34.4997H5.21177ZM5.00373 49.1934C5.12037 49.7006 5.36116 50.1709 5.70447 50.5621C5.81632 50.6997 5.95619 50.8118 6.11478 50.8911C6.27337 50.9704 6.44702 51.015 6.62419 51.0219C7.0398 50.9988 7.43115 50.8189 7.71911 50.5183C8.16131 50.0587 8.47802 49.4931 8.6388 48.8759C8.90481 47.9325 9.02666 46.9542 9.00016 45.9744C9.00016 43.3247 8.6826 41.4524 8.02567 40.3575C7.75673 39.8516 7.35184 39.4308 6.85661 39.1425C6.36137 38.8543 5.79549 38.7101 5.22272 38.7261H4.74096V47.0036C4.72636 47.7422 4.8148 48.4792 5.00373 49.1934Z" fill="white"/>
<path d="M18.9853 61.7441C17.5621 60.4435 16.5306 58.7711 16.0071 56.9155C15.2297 54.3204 14.8603 51.6204 14.9122 48.9118C14.862 46.1314 15.2311 43.3594 16.0071 40.689C16.5238 38.7803 17.5538 37.0496 18.9853 35.6853C20.2337 34.6145 21.8242 34.0259 23.4689 34.0259C25.1137 34.0259 26.7041 34.6145 27.9526 35.6853C29.3818 37.0451 30.4084 38.7727 30.9197 40.6781C31.6959 43.3559 32.065 46.1352 32.0146 48.9228C32.0849 51.632 31.734 54.3359 30.9745 56.9374C30.4601 58.7887 29.4358 60.458 28.0182 61.755C26.7486 62.7893 25.1611 63.3539 23.5237 63.3539C21.8861 63.3539 20.2987 62.7893 19.0291 61.755L18.9853 61.7441ZM20.1568 54.5725C20.3488 55.7793 20.8008 56.9299 21.4816 57.9448C21.6982 58.2695 21.9889 58.5381 22.3296 58.7285C22.6703 58.9188 23.0515 59.0255 23.4415 59.0397C24.6094 59.0397 25.5291 58.1857 26.2007 56.4776C26.9971 54.0046 27.342 51.4085 27.2189 48.8133C27.2488 46.8397 27.0948 44.8677 26.7591 42.9226C26.5774 41.6519 26.1257 40.4348 25.4342 39.3533C25.2389 38.997 24.9514 38.6998 24.6018 38.4928C24.2522 38.2858 23.8533 38.1766 23.447 38.1766C23.0407 38.1766 22.6419 38.2858 22.2923 38.4928C21.9427 38.6998 21.6551 38.997 21.4597 39.3533C20.7706 40.4738 20.3265 41.7276 20.1568 43.0321C19.8177 44.9732 19.6601 46.9416 19.686 48.9118C19.6585 50.8095 19.8161 52.7054 20.1568 54.5725Z" fill="white"/>
<path d="M35.2465 40.9081C36.4009 38.7697 38.2183 37.0638 40.4254 36.0467C43.0093 34.9248 45.811 34.3937 48.6263 34.492V38.7512C45.2539 38.7512 42.6809 39.5943 40.8962 41.3023C39.1115 43.0104 38.2137 45.5396 38.2137 48.9667C38.2137 52.3937 39.1006 54.6602 40.8853 56.2587C42.6699 57.8574 45.2648 58.6676 48.6263 58.6676V62.872C43.7868 62.872 40.0531 61.7041 37.4254 59.3683C34.7975 57.0325 33.4837 53.5471 33.4837 48.9119C33.3796 46.1374 33.9865 43.3823 35.2465 40.9081Z" fill="white"/>
<path d="M51.1654 40.9156C52.3207 38.7739 54.1427 37.0672 56.3553 36.0542C58.9218 34.9222 61.7083 34.3761 64.5123 34.4556V38.7148C61.151 38.7148 58.5779 39.5579 56.7822 41.266C54.9866 42.974 54.0997 45.547 54.0997 48.9194C54.0997 52.2916 54.9866 54.6129 56.7713 56.2114C58.556 57.81 61.151 58.6203 64.5014 58.6203V62.8794C59.6619 62.8794 55.9282 61.7115 53.3005 59.3757C50.6727 57.04 49.3588 53.5545 49.3588 48.9194C49.2683 46.141 49.8902 43.3857 51.1654 40.9156Z" fill="white"/>
<path d="M71.4643 34.4983V44.6263L79.5008 37.8488L84.2308 33.8633V62.8784H79.5008V43.5642L71.4643 50.3417V62.8784H66.7233V34.4983H71.4643Z" fill="white"/>
<path d="M91.186 34.4928V44.6207L99.2226 37.8432L103.93 33.8796V62.8728H99.2004V43.5586L91.1638 50.3361V62.8728H86.4554V34.4928H91.186Z" fill="white"/>
</g>
</svg>
