<svg width="193" height="60" viewBox="0 0 193 60" fill="none" xmlns="http://www.w3.org/2000/svg">
<g clip-path="url(#clip0_2039_121)">
<path d="M44.7547 15.1677C39.6447 10.0489 32.9278 7.48291 26.2153 7.48291C19.5027 7.48291 12.9215 9.98748 7.82909 15.0054L7.67584 15.1677L7.59264 15.2422L7.5182 15.3256C5.00921 17.8828 3.12637 20.8304 1.87406 23.971C-1.90038 33.4366 0.0350039 44.6611 7.67146 52.3108C12.777 57.4296 19.4983 59.9868 26.2109 59.9955C32.9234 59.9868 39.6404 57.4296 44.7503 52.3108C54.9746 42.0688 54.9746 25.4053 44.7503 15.1633L44.7547 15.1677ZM38.7515 46.3015C35.4062 49.6527 30.953 51.4993 26.2109 51.4993C21.4687 51.4993 17.02 49.6527 13.6703 46.3015C10.325 42.9504 8.48152 38.4896 8.48152 33.7392C8.48152 28.9889 10.2286 24.7605 13.4163 21.4401V21.4269L13.6747 21.1681C17.0156 17.8214 21.4687 15.9791 26.2153 15.9791C30.9618 15.9879 35.4149 17.8345 38.7515 21.1769C45.6654 28.1028 45.6654 39.3712 38.7515 46.2972V46.3015Z" fill="white"/>
<path d="M174.281 0C163.939 0 155.553 8.39096 155.553 18.7514C155.553 29.1118 163.939 37.5115 174.281 37.5115C184.624 37.5115 193 29.1118 193 18.7514C193 8.39096 184.615 0 174.281 0ZM184.181 30.704C184.181 31.1689 183.813 31.419 183.468 31.419C183.152 31.419 182.898 31.2347 182.789 30.9277C178.677 19.1812 173.848 14.3432 162.113 10.2244C161.719 10.0753 161.596 9.71124 161.649 9.42613C161.697 9.15418 161.907 8.83398 162.353 8.83398H180.95C182.732 8.83398 184.181 10.2858 184.181 12.0711V30.6996V30.704Z" fill="white"/>
<path d="M100.697 8.73315H90.9982C90.1137 8.73315 89.273 9.11038 88.6775 9.76832L44.654 58.7456H54.3572C55.2417 58.7456 56.0824 58.3684 56.6779 57.7104L94.1421 16.0275V33.1735H100.382C102.107 33.1735 103.504 31.7743 103.504 30.0461V8.73315H100.697Z" fill="white"/>
<path d="M152.751 8.73315H143.468C142.584 8.73315 141.743 9.11038 141.147 9.76832L119.976 33.3183V8.73315H113.719C112.007 8.73315 110.615 10.1148 110.615 11.8167V58.75H119.976V34.1692L141.143 57.7192C141.734 58.3771 142.579 58.7544 143.464 58.7544H152.751L130.275 33.7481L152.751 8.74193V8.73315Z" fill="white"/>
<path d="M82.1882 38.1343C81.8729 38.1343 81.7197 38.3624 81.689 38.5554C81.654 38.7527 81.7241 39.0203 82.0262 39.1256C93.5903 43.1873 98.3544 47.9552 102.409 59.5437C102.514 59.8464 102.781 59.9122 102.978 59.8815C103.171 59.8464 103.399 59.6973 103.399 59.3814V41.1257C103.399 39.4809 102.063 38.1387 100.417 38.1387H82.1926L82.1882 38.1343Z" fill="white"/>
</g>
<defs>
<clipPath id="clip0_2039_121">
<rect width="193" height="60" fill="white"/>
</clipPath>
</defs>
</svg>
