<svg width="1440" height="283" viewBox="0 0 1440 283" fill="none" xmlns="http://www.w3.org/2000/svg">
<mask id="mask0_1_9" style="mask-type:luminance" maskUnits="userSpaceOnUse" x="0" y="0" width="1440" height="283">
<path d="M0 283H1440V0H0V283Z" fill="white"/>
</mask>
<g mask="url(#mask0_1_9)">
<path d="M1408.25 282.939C1407.75 282.883 1407.29 282.746 1407 282.552C1406.37 282.128 1406.58 281.562 1407.5 281.272L1440.12 270.926V273.151L1409.7 282.786C1409.29 282.919 1408.75 282.98 1408.25 282.919V282.939ZM1286.96 282.939C1286.42 282.903 1285.95 282.786 1285.63 282.612C1284.91 282.204 1285.04 281.623 1285.92 281.312L1440.17 221.461V223.844L1288.45 282.725C1288.04 282.883 1287.5 282.96 1287 282.939H1286.96ZM1165.62 282.939C1165.09 282.939 1164.58 282.843 1164.17 282.669C1163.42 282.322 1163.42 281.74 1164.17 281.389L1440.21 143.721V146.415L1167.08 282.628C1166.71 282.806 1166.21 282.919 1165.71 282.939H1165.62ZM1044.33 282.939C1043.84 282.98 1043.29 282.919 1042.87 282.786C1041.96 282.515 1041.71 281.95 1042.34 281.526L1440.12 3.80399V7.09918L1045.58 282.532C1045.3 282.746 1044.88 282.883 1044.38 282.939H1044.33ZM921.71 282.939C920.712 282.746 920.208 282.204 920.625 281.74L1162.34 0.428009H1166.58L924.288 282.418C923.872 282.883 922.752 283.113 921.71 282.919V282.939ZM800.625 282.939C799.54 282.863 798.793 282.398 798.915 281.894L879.627 0.37149H883.585L802.83 282.128C802.708 282.628 801.71 282.98 800.625 282.919V282.939ZM679.67 282.939C678.585 283 677.587 282.649 677.457 282.144L596.71 0.37149H600.668L681.337 281.894C681.502 282.398 680.747 282.883 679.67 282.939ZM558.542 282.939C557.543 283.113 556.372 282.903 555.955 282.418L313.663 0.428009H317.917L559.627 281.74C560.043 282.225 559.54 282.746 558.498 282.939H558.542ZM435.92 282.939C435.417 282.883 434.957 282.746 434.67 282.532L30.5816 0.391663H35.3299L437.96 281.526C438.542 281.934 438.333 282.515 437.413 282.786C436.997 282.919 436.458 282.98 435.92 282.919V282.939ZM314.67 282.939C314.123 282.919 313.663 282.806 313.29 282.628L0.0434028 126.393V123.699L316.207 281.389C316.962 281.74 316.962 282.322 316.207 282.669C315.79 282.843 315.295 282.939 314.748 282.939H314.67ZM193.333 282.939C192.795 282.96 192.292 282.883 191.875 282.725L0 208.28V205.898L194.418 281.312C195.295 281.623 195.417 282.204 194.705 282.612C194.375 282.786 193.915 282.903 193.377 282.939H193.333ZM71.9965 282.939C71.5017 282.98 70.9549 282.919 70.5382 282.786L0 260.398V258.189L72.7517 281.272C73.6632 281.562 73.8715 282.144 73.2465 282.552C72.9601 282.746 72.5 282.903 71.9965 282.939ZM0 30.6058H1440.12V32.4472H0V30.6058ZM0 77.086H1440.12V78.9072H0V77.086ZM0 116.762H1440.12V118.603H0V116.762ZM0 150.368H1440.12V152.209H0V150.368ZM0 178.51H1440.12V180.332H0V178.51ZM0 201.868H1440.12V203.689H0V201.868ZM0 220.997H1440.12V222.838H0V220.997ZM0 236.403H1440.12V238.244H0V236.403ZM0 248.635H1440.12V250.476H0V248.635ZM0 258.209H1440.12V260.03H0V258.209ZM0 265.458H1440.12V267.299H0V265.458ZM0 270.865H1440.12V272.686H0V270.865ZM0 274.701H1440.12V276.543H0V274.701ZM0 277.379H1440.12V279.2H0V277.379ZM0 279.103H1440.12V280.945H0V279.103ZM0 280.149H1440.12V281.97H0V280.149ZM0 280.751H1440.12V282.572H0V280.751ZM0 281.021H1440.12V282.843H0V281.021ZM0 281.159H1440.12V283H0V281.159ZM0 281.159H1440.12V283H0V281.159ZM0 281.159H1440.12V283H0V281.159Z" fill="url(#paint0_linear_1_9)" fill-opacity="0.2"/>
</g>
<defs>
<linearGradient id="paint0_linear_1_9" x1="720.104" y1="283" x2="720.104" y2="0.37149" gradientUnits="userSpaceOnUse">
<stop stop-color="white"/>
<stop offset="1" stop-color="white" stop-opacity="0"/>
</linearGradient>
</defs>
</svg>
