<svg width="128" height="128" viewBox="0 0 128 128" fill="none" xmlns="http://www.w3.org/2000/svg">
<g clip-path="url(#clip0_2039_51)">
<path d="M128 0H0V128H128V0Z" fill="white"/>
<path d="M73.9542 55.4656C66.8849 55.4656 61.1552 49.736 61.1552 42.6641C61.1552 35.5923 66.8849 29.8651 73.9542 29.8651C76.7212 29.8651 79.2825 30.7457 81.3772 32.2408L86.3242 25.2894C82.8347 22.8009 78.5676 21.3308 73.9542 21.3308C65.5102 21.3308 58.2126 26.2377 54.7557 33.3572C51.2988 26.2377 44.0012 21.3308 35.5547 21.3308C23.7717 21.3308 14.2214 30.8811 14.2214 42.6641C14.2214 54.4471 23.7717 63.9975 35.5547 63.9975C43.9987 63.9975 51.2988 59.0906 54.7557 51.9711C58.2126 59.0906 65.5102 63.9975 73.9542 63.9975C78.5676 63.9975 82.8347 62.5274 86.3242 60.0389L81.3772 53.0875C79.2825 54.5801 76.7237 55.4606 73.9542 55.4606V55.4656ZM35.5547 55.4656C28.4854 55.4656 22.7557 49.736 22.7557 42.6641C22.7557 35.5923 28.4854 29.8651 35.5547 29.8651C42.624 29.8651 48.3537 35.5948 48.3537 42.6641C48.3537 49.7334 42.624 55.4656 35.5547 55.4656Z" fill="#040505"/>
<path d="M113.776 21.6895H101.333L84.6208 42.6666L101.333 63.6437H113.776L94.9338 42.6666L113.776 21.6895Z" fill="#040505"/>
<path d="M21.6469 93.2055C21.4487 93.7298 21.2204 94.0986 20.9671 94.3168C20.7112 94.5351 20.3901 94.643 20.0063 94.643H19.4042V93.7524H19.916C20.0589 93.7524 20.1718 93.7273 20.2546 93.6772C20.3374 93.627 20.4051 93.5442 20.4603 93.4288C20.4704 93.4012 20.4829 93.3761 20.4929 93.3535C20.503 93.331 20.5155 93.3109 20.5256 93.2883L18.7269 88.8882H19.9084L20.5858 90.737C20.6786 90.9904 20.7639 91.2262 20.8391 91.447C20.9119 91.6677 20.9746 91.8484 21.0248 91.9914H21.0674L21.5215 90.6693C21.5315 90.6367 21.5566 90.5715 21.5917 90.4761C21.6268 90.3808 21.667 90.2679 21.7121 90.1425C21.7548 90.0146 21.8024 89.8841 21.8526 89.7461C21.9028 89.6082 21.9479 89.4802 21.9931 89.3573C22.0357 89.2369 22.0734 89.134 22.1035 89.0487C22.1336 88.9634 22.1511 88.9108 22.1562 88.8882H23.28L21.6544 93.2055H21.6469Z" fill="black"/>
<path d="M24.9282 93.5792C25.0537 93.4864 25.1615 93.3735 25.2493 93.2456C25.3371 93.1177 25.4099 92.9571 25.4676 92.7715C25.5253 92.5833 25.5704 92.3651 25.603 92.1142C25.6357 91.8633 25.6607 91.5673 25.6758 91.2262L25.7837 88.8906H29.6319C29.6319 89.6783 29.6319 90.461 29.6369 91.2387C29.6369 92.0189 29.6419 92.8016 29.6419 93.5893H30.1361V95.8521H29.1051V94.5802H25.5378V95.8521H24.5043V93.5818H24.9257L24.9282 93.5792ZM26.8022 89.8891L26.7369 91.2512C26.7269 91.4921 26.7119 91.7229 26.6968 91.9411C26.6818 92.1594 26.6567 92.3651 26.6216 92.5607C26.5889 92.7564 26.5413 92.9395 26.4811 93.1151C26.4209 93.2882 26.3381 93.4463 26.2327 93.5893H28.5206V89.8891H26.8022Z" fill="black"/>
<path d="M36.6937 92.7615C36.6937 93.0701 36.636 93.3385 36.5206 93.5693C36.4052 93.8001 36.2472 93.9958 36.0515 94.1563C35.8533 94.3169 35.6225 94.4373 35.3541 94.515C35.0882 94.5953 34.8072 94.6355 34.5087 94.6355C34.2102 94.6355 33.9292 94.5953 33.6633 94.515C33.3974 94.4348 33.1641 94.3169 32.9659 94.1563C32.7677 93.9983 32.6122 93.8026 32.4968 93.5693C32.3814 93.3385 32.3237 93.0676 32.3237 92.7615V90.6718C32.3237 90.3683 32.3839 90.1024 32.5043 89.8716C32.6247 89.6408 32.7878 89.4476 32.991 89.2946C33.1942 89.1416 33.4275 89.0262 33.6909 88.9484C33.9543 88.8706 34.2252 88.833 34.5062 88.833C34.7871 88.833 35.0581 88.8732 35.3215 88.9559C35.5849 89.0387 35.8182 89.1591 36.0214 89.3147C36.2246 89.4702 36.3876 89.6659 36.5081 89.9017C36.6285 90.135 36.6887 90.4034 36.6887 90.7069V92.764L36.6937 92.7615ZM35.5623 90.9026C35.5623 90.7145 35.5322 90.5564 35.472 90.4285C35.4118 90.298 35.3315 90.1927 35.2312 90.1099C35.1333 90.0271 35.0204 89.9669 34.8975 89.9293C34.7746 89.8917 34.6467 89.8716 34.5137 89.8716C34.3807 89.8716 34.2528 89.8917 34.1249 89.9293C33.9969 89.9669 33.884 90.0296 33.7862 90.1099C33.6884 90.1927 33.6081 90.298 33.5479 90.4285C33.4877 90.5589 33.4576 90.717 33.4576 90.9026V92.5633C33.4576 92.7515 33.4877 92.9095 33.5479 93.0425C33.6081 93.1754 33.6884 93.2808 33.7862 93.3636C33.884 93.4464 33.9969 93.5041 34.1249 93.5417C34.2528 93.5768 34.3807 93.5944 34.5137 93.5944C34.6467 93.5944 34.7746 93.5768 34.8975 93.5417C35.0204 93.5066 35.1333 93.4464 35.2312 93.3636C35.329 93.2808 35.4093 93.1729 35.472 93.0425C35.5322 92.9095 35.5623 92.7515 35.5623 92.5633V90.9026Z" fill="black"/>
<path d="M42.3858 90.2679C42.2102 90.1199 42.0195 90.017 41.8163 89.9593C41.6131 89.9016 41.4149 89.8715 41.2218 89.8715C41.0938 89.8715 40.9684 89.8891 40.8405 89.9242C40.715 89.9593 40.6021 90.0195 40.5018 90.1023C40.4014 90.1851 40.3212 90.293 40.2585 90.4234C40.1957 90.5564 40.1631 90.7144 40.1631 90.9026V92.5633C40.1631 92.7514 40.1932 92.9095 40.2585 93.0374C40.3212 93.1678 40.404 93.2732 40.5068 93.356C40.6097 93.4388 40.7226 93.499 40.8455 93.5366C40.9684 93.5742 41.0938 93.5943 41.2218 93.5943C41.4149 93.5943 41.6081 93.5667 41.8038 93.5115C41.9994 93.4563 42.1951 93.351 42.3933 93.1979L42.9301 94.0735C42.7219 94.2491 42.4635 94.387 42.1625 94.4849C41.859 94.5852 41.5404 94.6329 41.2042 94.6329C40.9333 94.6329 40.6699 94.5952 40.4115 94.5175C40.1531 94.4397 39.9223 94.3268 39.7166 94.1738C39.5134 94.0233 39.3478 93.8326 39.2224 93.6043C39.0945 93.3761 39.0317 93.1076 39.0317 92.7991V90.6693C39.0317 90.3657 39.0945 90.0998 39.2174 89.8715C39.3403 89.6432 39.5034 89.4526 39.7041 89.297C39.9047 89.1415 40.133 89.0261 40.3939 88.9508C40.6523 88.8731 40.9182 88.8354 41.1866 88.8354C41.5178 88.8354 41.8339 88.8806 42.1399 88.9684C42.446 89.0562 42.7069 89.1967 42.9276 89.3899L42.3833 90.2654L42.3858 90.2679Z" fill="black"/>
<path d="M47.4632 89.9042V94.5777H46.3318V89.9042H44.8216V88.8882H48.9658V89.9042H47.4632Z" fill="black"/>
<path d="M53.7573 88.8882C54.0383 88.8882 54.2791 88.9409 54.4848 89.0488C54.688 89.1567 54.8586 89.2946 54.9915 89.4652C55.1245 89.6358 55.2248 89.8265 55.2901 90.0397C55.3528 90.2529 55.3854 90.4586 55.3854 90.6618C55.3854 90.865 55.3478 91.0808 55.2725 91.289C55.1998 91.4972 55.0919 91.6879 54.9514 91.8585C54.8109 92.029 54.6378 92.167 54.4321 92.2749C54.2264 92.3828 53.9906 92.4354 53.7272 92.4354H52.3475V94.5753H51.2161V88.8857H53.7598L53.7573 88.8882ZM52.3449 91.4245H53.5014C53.7598 91.4245 53.9555 91.3517 54.0884 91.2087C54.2214 91.0657 54.2866 90.8851 54.2866 90.6694C54.2866 90.4536 54.2189 90.2655 54.0834 90.12C53.948 89.977 53.7548 89.9042 53.5014 89.9042H52.3449V91.4245Z" fill="black"/>
<path d="M61.7849 92.7615C61.7849 93.0701 61.7272 93.3385 61.6118 93.5693C61.4964 93.8001 61.3409 93.9958 61.1427 94.1563C60.9445 94.3169 60.7137 94.4373 60.4453 94.515C60.1794 94.5953 59.8984 94.6355 59.5999 94.6355C59.3013 94.6355 59.0204 94.5953 58.7545 94.515C58.4885 94.4348 58.2552 94.3169 58.0571 94.1563C57.8589 93.9983 57.7033 93.8026 57.588 93.5693C57.4726 93.3385 57.4149 93.0676 57.4149 92.7615V90.6718C57.4149 90.3683 57.4751 90.1024 57.5955 89.8716C57.7159 89.6408 57.879 89.4476 58.0822 89.2946C58.2853 89.1416 58.5187 89.0262 58.7821 88.9484C59.0455 88.8706 59.3164 88.833 59.5974 88.833C59.8783 88.833 60.1493 88.8732 60.4127 88.9559C60.6761 89.0387 60.9094 89.1591 61.1126 89.3147C61.3158 89.4702 61.4788 89.6659 61.5992 89.9017C61.7197 90.135 61.7799 90.4034 61.7799 90.7069V92.764L61.7849 92.7615ZM60.6535 90.9026C60.6535 90.7145 60.6234 90.5564 60.5632 90.4285C60.503 90.298 60.4227 90.1927 60.3224 90.1099C60.2245 90.0271 60.1116 89.9669 59.9887 89.9293C59.8658 89.8917 59.7353 89.8716 59.6049 89.8716C59.4744 89.8716 59.344 89.8917 59.216 89.9293C59.0881 89.9669 58.9777 90.0296 58.8774 90.1099C58.7795 90.1927 58.6993 90.298 58.6391 90.4285C58.5789 90.5589 58.5488 90.717 58.5488 90.9026V92.5633C58.5488 92.7515 58.5789 92.9095 58.6391 93.0425C58.6993 93.1754 58.7795 93.2808 58.8774 93.3636C58.9752 93.4464 59.0881 93.5041 59.216 93.5417C59.3415 93.5768 59.4719 93.5944 59.6049 93.5944C59.7378 93.5944 59.8658 93.5768 59.9887 93.5417C60.1116 93.5066 60.2245 93.4464 60.3224 93.3636C60.4202 93.2808 60.5005 93.1729 60.5632 93.0425C60.6234 92.9095 60.6535 92.7515 60.6535 92.5633V90.9026Z" fill="black"/>
<path d="M67.7027 90.87L67.1408 91.738C67.0755 91.8433 66.9928 91.9713 66.8974 92.1218C66.8021 92.2748 66.6942 92.4379 66.5788 92.6135C66.4634 92.7891 66.3455 92.9722 66.2251 93.1579C66.1047 93.346 65.9868 93.5266 65.8739 93.7022C65.761 93.8778 65.6557 94.0434 65.5553 94.1939C65.455 94.3444 65.3747 94.4749 65.307 94.5777H64.2834V88.8882H65.4148V92.6285H65.4475L66.634 90.7697L67.8457 88.8882H68.8767V94.5777H67.7453V90.87H67.7052H67.7027Z" fill="black"/>
<path d="M73.7409 89.9042V94.5777H72.6096V89.9042H71.0994V88.8882H75.2436V89.9042H73.7409Z" fill="black"/>
<path d="M77.4888 88.8882H81.4098V89.9042H78.6202V91.2087H81.0059V92.2247H78.6202V93.5617H81.4098V94.5777H77.4888V88.8882Z" fill="black"/>
<path d="M85.7498 89.9042V91.4144C85.7498 91.8885 85.7222 92.3175 85.667 92.7038C85.6118 93.0901 85.514 93.4213 85.3685 93.7022C85.2255 93.9832 85.0248 94.209 84.7714 94.3796C84.5155 94.5502 84.1869 94.663 83.7855 94.7182L83.5372 93.7925C83.773 93.7148 83.9636 93.6169 84.1066 93.494C84.2496 93.3736 84.36 93.2206 84.4403 93.0324C84.5206 92.8443 84.5732 92.621 84.5958 92.3626C84.6209 92.1042 84.6334 91.7982 84.6334 91.447V88.8882H88.3813V94.5777H87.2349V89.9042H85.7498Z" fill="black"/>
<path d="M91.0104 94.5777V88.8882H92.1418V91.0506H93.4538C93.7347 91.0506 93.9856 91.0958 94.2038 91.1836C94.4246 91.2714 94.6103 91.3943 94.7658 91.5473C94.9213 91.7029 95.0392 91.886 95.122 92.1017C95.2048 92.3175 95.2449 92.5508 95.2449 92.8041C95.2449 93.0149 95.2123 93.2231 95.1471 93.4338C95.0819 93.6445 94.979 93.8327 94.8385 94.0008C94.698 94.1688 94.5174 94.3068 94.2967 94.4147C94.0759 94.5226 93.81 94.5752 93.4964 94.5752H91.0104V94.5777ZM92.1418 93.5617H93.3133C93.5667 93.5617 93.7699 93.489 93.9204 93.346C94.0709 93.203 94.1487 93.0249 94.1462 92.8092C94.1462 92.5884 94.0709 92.4103 93.9204 92.2723C93.7699 92.1343 93.5642 92.0666 93.3058 92.0666H92.1418V93.5617Z" fill="black"/>
<path d="M100.583 94.5777V92.1996H98.4861V94.5777H97.3547V88.8882H98.4861V91.1836H100.583V88.8882H101.732V94.5777H100.586H100.583Z" fill="black"/>
<path d="M16.1505 90.2679C15.9749 90.1199 15.7843 90.017 15.5811 89.9593C15.3779 89.9016 15.1797 89.8715 14.9865 89.8715C14.8611 89.8715 14.7332 89.8891 14.6077 89.9242C14.4798 89.9593 14.3694 90.0195 14.2691 90.1023C14.1712 90.1851 14.0884 90.293 14.0257 90.4234C13.963 90.5564 13.9304 90.7144 13.9304 90.9026V92.5633C13.9304 92.7514 13.963 92.9095 14.0257 93.0374C14.0884 93.1678 14.1712 93.2732 14.2741 93.356C14.3769 93.4388 14.4898 93.499 14.6127 93.5366C14.7357 93.5742 14.8611 93.5943 14.989 93.5943C15.1822 93.5943 15.3754 93.5667 15.571 93.5115C15.7667 93.4563 15.9624 93.351 16.1606 93.1979L16.6974 94.0735C16.4867 94.2491 16.2308 94.387 15.9298 94.4849C15.6262 94.5852 15.3076 94.6329 14.9715 94.6329C14.7005 94.6329 14.4371 94.5952 14.1788 94.5175C13.9204 94.4397 13.6896 94.3268 13.4839 94.1738C13.2807 94.0233 13.1151 93.8326 12.9897 93.6043C12.8642 93.3761 12.799 93.1076 12.799 92.7991V90.6693C12.799 90.3657 12.8617 90.0998 12.9846 89.8715C13.1076 89.6432 13.2706 89.4526 13.4713 89.297C13.672 89.1415 13.9028 89.0261 14.1612 88.9508C14.4196 88.8731 14.683 88.8354 14.9539 88.8354C15.2851 88.8354 15.6011 88.8806 15.9072 88.9684C16.2132 89.0562 16.4767 89.1967 16.6949 89.3899L16.1505 90.2654V90.2679Z" fill="black"/>
<path d="M107.387 93.4062H105.405L105.034 94.5777H103.829L105.826 88.8882H106.983L108.965 94.5777H107.735L107.389 93.4062H107.387ZM105.744 92.4554H107.113L106.89 91.7279L106.443 90.2253H106.411L105.974 91.7029L105.744 92.4529V92.4554Z" fill="black"/>
<path d="M115.199 88.8882V94.5778H114.067V92.3226H113.407C113.292 92.3226 113.187 92.3326 113.094 92.3552C113.001 92.3777 112.916 92.4154 112.838 92.4706C112.76 92.5257 112.692 92.601 112.632 92.6963C112.572 92.7917 112.519 92.9171 112.477 93.0726L112.048 94.5753H110.801L111.28 93.0149C111.345 92.8067 111.421 92.6211 111.503 92.458C111.586 92.295 111.714 92.167 111.892 92.0742C111.722 92.024 111.579 91.9488 111.463 91.8459C111.348 91.7431 111.252 91.6277 111.18 91.4947C111.104 91.3618 111.052 91.2213 111.019 91.0682C110.987 90.9177 110.969 90.7672 110.969 90.6192C110.969 90.4035 111.004 90.1927 111.072 89.982C111.14 89.7738 111.247 89.5882 111.39 89.4251C111.533 89.262 111.714 89.1316 111.93 89.0338C112.148 88.9359 112.404 88.8857 112.7 88.8857H115.204L115.199 88.8882ZM114.1 89.9042H112.961C112.68 89.9042 112.474 89.972 112.341 90.11C112.208 90.2479 112.143 90.4336 112.143 90.6719C112.143 90.8926 112.211 91.0582 112.349 91.1711C112.487 91.284 112.685 91.3392 112.943 91.3392H114.1V89.9017V89.9042Z" fill="black"/>
<path d="M31.4281 106.667V100.977H32.5594V103.265H33.1364C33.2468 103.265 33.3497 103.255 33.445 103.235C33.5403 103.215 33.6306 103.18 33.7084 103.127C33.7887 103.075 33.8589 103.002 33.9241 102.904C33.9868 102.809 34.0445 102.686 34.0922 102.538L34.5864 100.977H35.7429L35.2311 102.638C35.1433 102.919 35.0304 103.152 34.8925 103.34C34.7545 103.529 34.599 103.651 34.4208 103.712C34.6567 103.789 34.8423 103.925 34.9752 104.121C35.1082 104.316 35.2161 104.555 35.2963 104.836L35.8407 106.669H34.6115L34.1399 105.019C34.0947 104.863 34.042 104.738 33.9793 104.637C33.9166 104.54 33.8439 104.462 33.7636 104.407C33.6833 104.351 33.5955 104.314 33.4952 104.296C33.3973 104.276 33.2895 104.266 33.1741 104.266H32.5544V106.669H31.423L31.4281 106.667Z" fill="black"/>
<path d="M62.4848 104.851C62.4848 105.159 62.4271 105.428 62.3117 105.661C62.1963 105.892 62.0408 106.087 61.8426 106.248C61.6444 106.408 61.4136 106.529 61.1452 106.607C60.8793 106.687 60.5983 106.727 60.2998 106.727C60.0013 106.727 59.7228 106.687 59.4544 106.607C59.1885 106.526 58.9552 106.406 58.757 106.248C58.5588 106.09 58.4033 105.894 58.2879 105.661C58.1725 105.43 58.1148 105.159 58.1148 104.851V102.761C58.1148 102.46 58.175 102.191 58.2954 101.961C58.4158 101.73 58.5789 101.537 58.7821 101.384C58.9853 101.231 59.2186 101.113 59.482 101.038C59.7454 100.96 60.0189 100.922 60.2973 100.922C60.5758 100.922 60.8492 100.962 61.1126 101.045C61.376 101.128 61.6093 101.248 61.8125 101.404C62.0157 101.559 62.1788 101.755 62.2992 101.991C62.4196 102.224 62.4798 102.493 62.4798 102.796V104.853L62.4848 104.851ZM61.3534 102.994C61.3534 102.806 61.3233 102.648 61.2631 102.52C61.2029 102.39 61.1226 102.284 61.0248 102.202C60.927 102.119 60.8141 102.059 60.6912 102.021C60.5682 101.983 60.4403 101.963 60.3073 101.963C60.1744 101.963 60.0464 101.983 59.9185 102.021C59.7931 102.059 59.6777 102.119 59.5798 102.202C59.4795 102.284 59.4017 102.39 59.339 102.52C59.2788 102.651 59.2487 102.809 59.2487 102.994V104.655C59.2487 104.843 59.2788 105.001 59.339 105.134C59.3992 105.267 59.4795 105.372 59.5798 105.458C59.6777 105.54 59.7906 105.598 59.9185 105.636C60.0439 105.671 60.1744 105.689 60.3073 105.689C60.4403 105.689 60.5682 105.671 60.6912 105.636C60.8141 105.601 60.927 105.54 61.0248 105.458C61.1252 105.375 61.2029 105.267 61.2631 105.134C61.3233 105.001 61.3534 104.843 61.3534 104.655V102.994Z" fill="black"/>
<path d="M67.5271 100.977C67.8081 100.977 68.0489 101.03 68.2546 101.138C68.4578 101.246 68.6284 101.384 68.7614 101.554C68.8968 101.725 68.9947 101.916 69.0599 102.129C69.1226 102.34 69.1552 102.548 69.1552 102.751C69.1552 102.954 69.1176 103.17 69.0423 103.378C68.9671 103.586 68.8617 103.777 68.7212 103.948C68.5808 104.118 68.4077 104.256 68.202 104.364C67.9963 104.472 67.7604 104.525 67.497 104.525H66.1173V106.664H64.9859V100.975H67.5296L67.5271 100.977ZM66.1148 103.511H67.2713C67.5296 103.511 67.7253 103.438 67.8583 103.295C67.9912 103.152 68.0565 102.972 68.0565 102.756C68.0565 102.54 67.9887 102.352 67.8558 102.209C67.7203 102.066 67.5271 101.993 67.2738 101.993H66.1173V103.511H66.1148Z" fill="black"/>
<path d="M54.4698 106.667V101.993H52.3725V106.667H51.2411V100.977H55.6162V106.667H54.4672H54.4698Z" fill="black"/>
<path d="M47.4406 100.977C47.7216 100.977 47.9624 101.03 48.1681 101.138C48.3713 101.246 48.5419 101.384 48.6748 101.554C48.8103 101.725 48.9081 101.916 48.9709 102.129C49.0336 102.34 49.0662 102.548 49.0662 102.751C49.0662 102.954 49.0285 103.17 48.9558 103.378C48.8805 103.586 48.7752 103.777 48.6347 103.948C48.4942 104.118 48.3211 104.256 48.1154 104.364C47.9097 104.472 47.6739 104.525 47.4105 104.525H46.0307V106.664H44.8994V100.975H47.4431L47.4406 100.977ZM46.0282 103.511H47.1847C47.4431 103.511 47.6388 103.438 47.7717 103.295C47.9047 103.152 47.9699 102.972 47.9699 102.756C47.9699 102.54 47.9022 102.352 47.7667 102.209C47.6312 102.066 47.4381 101.993 47.1847 101.993H46.0282V103.511Z" fill="black"/>
<path d="M42.3983 104.851C42.3983 105.159 42.3406 105.428 42.2252 105.661C42.1098 105.892 41.9543 106.087 41.7561 106.248C41.5579 106.408 41.3271 106.529 41.0587 106.607C40.7928 106.687 40.5118 106.727 40.2133 106.727C39.9147 106.727 39.6363 106.687 39.3679 106.607C39.1019 106.526 38.8686 106.406 38.6705 106.248C38.4723 106.09 38.3168 105.894 38.2014 105.661C38.086 105.43 38.0283 105.159 38.0283 104.851V102.761C38.0283 102.46 38.0885 102.191 38.2089 101.961C38.3293 101.73 38.4924 101.537 38.6956 101.384C38.8988 101.231 39.1321 101.113 39.3955 101.038C39.6589 100.96 39.9323 100.922 40.2108 100.922C40.4892 100.922 40.7627 100.962 41.0261 101.045C41.2895 101.128 41.5228 101.248 41.726 101.404C41.9292 101.559 42.0922 101.755 42.2126 101.991C42.3331 102.224 42.3933 102.493 42.3933 102.796V104.853L42.3983 104.851ZM41.2669 102.994C41.2669 102.806 41.2368 102.648 41.1766 102.52C41.1164 102.39 41.0361 102.284 40.9358 102.202C40.8379 102.119 40.725 102.059 40.6021 102.021C40.4792 101.983 40.3512 101.963 40.2183 101.963C40.0853 101.963 39.9574 101.983 39.8295 102.021C39.704 102.059 39.5886 102.119 39.4908 102.202C39.3904 102.284 39.3127 102.39 39.25 102.52C39.1898 102.651 39.1597 102.809 39.1597 102.994V104.655C39.1597 104.843 39.1898 105.001 39.25 105.134C39.3102 105.267 39.3904 105.372 39.4908 105.458C39.5886 105.54 39.7015 105.598 39.8295 105.636C39.9549 105.671 40.0853 105.689 40.2183 105.689C40.3512 105.689 40.4792 105.671 40.6021 105.636C40.725 105.601 40.8379 105.54 40.9358 105.458C41.0361 105.375 41.1139 105.267 41.1766 105.134C41.2368 105.001 41.2669 104.843 41.2669 104.655V102.994Z" fill="black"/>
<path d="M74.2226 105.493H72.2408L71.8695 106.664H70.6629L72.6623 100.975H73.8188L75.8006 106.664H74.5713L74.2252 105.493H74.2226ZM72.5469 104.542H73.9166L73.6933 103.815L73.2468 102.312H73.2142L72.7777 103.79L72.5469 104.542Z" fill="black"/>
<path d="M82.2728 100.977V105.676H82.767V107.946H81.7335V106.667H77.8953V100.977H79.0266V105.658H81.1239V100.977H82.2728Z" fill="black"/>
<path d="M88.5193 102.959L87.9574 103.827C87.8921 103.932 87.8094 104.06 87.714 104.211C87.6187 104.364 87.5108 104.527 87.3954 104.703C87.28 104.878 87.1621 105.061 87.0392 105.247C86.9163 105.433 86.8009 105.616 86.688 105.791C86.5751 105.967 86.4698 106.133 86.3694 106.283C86.2716 106.434 86.1888 106.564 86.121 106.667H85.0975V100.977H86.2289V104.718H86.2615L87.4481 102.859L88.6598 100.977H89.6883V106.667H88.5569V102.959H88.5143H88.5193Z" fill="black"/>
<path d="M96.5719 100.977V106.667H95.4405V104.412H94.7808C94.6654 104.412 94.56 104.422 94.4672 104.444C94.3744 104.467 94.2891 104.504 94.2113 104.56C94.1336 104.615 94.0658 104.69 94.0056 104.788C93.9454 104.883 93.8927 105.009 93.8501 105.164L93.4211 106.667H92.1743L92.6535 105.106C92.7187 104.898 92.794 104.713 92.8767 104.55C92.9595 104.387 93.09 104.259 93.2656 104.166C93.095 104.116 92.952 104.04 92.8366 103.94C92.7212 103.837 92.6259 103.719 92.5506 103.589C92.4779 103.456 92.4227 103.315 92.3901 103.162C92.3574 103.012 92.3399 102.861 92.3399 102.713C92.3399 102.498 92.375 102.287 92.4427 102.076C92.5105 101.868 92.6183 101.682 92.7588 101.519C92.9018 101.356 93.0824 101.226 93.2982 101.128C93.5164 101.03 93.7723 100.98 94.0683 100.98H96.5744L96.5719 100.977ZM95.4405 101.993H94.3016C94.0207 101.993 93.815 102.061 93.682 102.199C93.549 102.337 93.4838 102.523 93.4838 102.761C93.4838 102.982 93.5541 103.147 93.6895 103.26C93.8275 103.373 94.0257 103.428 94.2841 103.428H95.4405V101.991V101.993Z" fill="black"/>
<path d="M38.3017 82.4886V77.79H36.6083V76.7991H39.433V78.9615H40.7551C41.0361 78.9615 41.2869 79.0067 41.5077 79.0945C41.7284 79.1823 41.9141 79.3052 42.0696 79.4582C42.2226 79.6137 42.3431 79.7969 42.4258 80.0126C42.5086 80.2284 42.5488 80.4617 42.5488 80.715C42.5488 80.9258 42.5161 81.134 42.4484 81.3447C42.3832 81.5554 42.2803 81.7436 42.1399 81.9116C41.9994 82.0797 41.8188 82.2177 41.598 82.3256C41.3772 82.4334 41.1113 82.4861 40.7977 82.4861H38.3042L38.3017 82.4886ZM39.433 81.4726H40.6146C40.868 81.4726 41.0687 81.3999 41.2167 81.2569C41.3647 81.1139 41.4399 80.9358 41.4399 80.72C41.4399 80.5043 41.3647 80.3212 41.2117 80.1832C41.0611 80.0452 40.8579 79.9775 40.6046 79.9775H39.433V81.4726Z" fill="black"/>
<path d="M44.646 76.7991H48.567V77.8151H45.7774V79.1195H48.1631V80.1355H45.7774V81.4726H48.567V82.4886H44.646V76.7991Z" fill="black"/>
<path d="M96.1631 81.3171H94.1813L93.81 82.4886H92.6033L94.6002 76.7991H95.7567L97.7385 82.4886H96.5093L96.1631 81.3171ZM94.5199 80.3663H95.8896L95.6664 79.6413L95.2198 78.1387H95.1872L94.7507 79.6163L94.5199 80.3663Z" fill="black"/>
<path d="M103.975 76.7991V82.4886H102.844V80.2359H102.184C102.068 80.2359 101.963 80.2459 101.87 80.2685C101.777 80.2911 101.692 80.3287 101.614 80.3839C101.537 80.4391 101.469 80.5143 101.409 80.6097C101.348 80.705 101.296 80.8304 101.253 80.986L100.824 82.4886H99.5773L100.056 80.9283C100.122 80.72 100.197 80.5344 100.28 80.3713C100.363 80.2083 100.49 80.0803 100.669 79.9875C100.498 79.9374 100.355 79.8621 100.24 79.7618C100.124 79.6589 100.029 79.5435 99.9561 79.4105C99.8834 79.2776 99.8282 79.1371 99.7956 78.9841C99.763 78.8336 99.7454 78.683 99.7454 78.535C99.7454 78.3193 99.7805 78.1086 99.8483 77.9004C99.916 77.6921 100.024 77.5065 100.167 77.3434C100.31 77.1804 100.49 77.0499 100.706 76.9521C100.924 76.8517 101.18 76.8041 101.476 76.8041H103.982L103.975 76.7991ZM102.876 77.8151H101.737C101.456 77.8151 101.251 77.8853 101.118 78.0208C100.985 78.1587 100.919 78.3444 100.919 78.5827C100.919 78.8035 100.987 78.969 101.125 79.0819C101.263 79.1948 101.461 79.25 101.72 79.25H102.876V77.8126V77.8151Z" fill="black"/>
<path d="M62.0081 78.781L61.4462 79.6464C61.381 79.7518 61.2982 79.8797 61.2029 80.0302C61.1075 80.1808 60.9997 80.3463 60.8843 80.5219C60.7689 80.6975 60.651 80.8807 60.528 81.0663C60.4076 81.2545 60.2897 81.4351 60.1768 81.6107C60.0639 81.7863 59.9586 81.9519 59.8582 82.1024C59.7579 82.2529 59.6751 82.3833 59.6099 82.4862H58.5864V76.7966H59.7178V80.537H59.7504L60.9369 78.6781L62.1486 76.7966H63.1771V82.4862H62.0458V78.7784H62.0056L62.0081 78.781Z" fill="black"/>
<path d="M69.0348 82.4886V80.1105H66.9376V82.4886H65.8062V76.7991H66.9376V79.0945H69.0348V76.7991H70.1813V82.4886H69.0348Z" fill="black"/>
<path d="M72.8077 76.7991H76.7287V77.8151H73.9391V79.1195H76.3248V80.1355H73.9391V81.4726H76.7287V82.4886H72.8077V76.7991Z" fill="black"/>
<path d="M82.3581 82.4886V80.1105H80.2608V82.4886H79.1295V76.7991H80.2608V79.0945H82.3581V76.7991H83.5045V82.4886H82.3581Z" fill="black"/>
<path d="M89.3596 82.4886V80.1105H87.2624V82.4886H86.131V76.7991H87.2624V79.0945H89.3596V76.7991H90.5061V82.4886H89.3596Z" fill="black"/>
<path d="M51.0455 81.4904C51.1709 81.3976 51.2788 81.2847 51.3666 81.1567C51.4544 81.0263 51.5271 80.8682 51.5848 80.6826C51.6425 80.4945 51.6877 80.2762 51.7203 80.0253C51.7529 79.7745 51.778 79.4785 51.7956 79.1373L51.9034 76.8018H55.7516C55.7516 77.5895 55.7516 78.3722 55.7567 79.1498C55.7592 79.93 55.7617 80.7127 55.7617 81.5004H56.2559V83.7632H55.2248V82.4913H51.6576V83.7632H50.624V81.4929H51.0455V81.4904ZM52.9194 77.8002L52.8542 79.1624C52.8442 79.4057 52.8291 79.634 52.8141 79.8522C52.7965 80.0705 52.7714 80.2762 52.7388 80.4719C52.7062 80.6675 52.6585 80.8507 52.5983 81.0238C52.5381 81.1969 52.4553 81.3549 52.35 81.4979H54.6378V77.7977H52.9194V77.8002Z" fill="black"/>
<path d="M30.8912 76.7991H34.6065V77.8151H32.0226V78.9616H33.3195C33.6055 78.9616 33.8614 79.0067 34.0822 79.0945C34.3054 79.1823 34.4936 79.3053 34.6466 79.4583C34.7996 79.6138 34.92 79.7969 35.0028 80.0127C35.0856 80.2284 35.1257 80.4617 35.1257 80.7151C35.1257 80.9258 35.0931 81.134 35.0254 81.3448C34.9602 81.5555 34.8548 81.7436 34.7118 81.9117C34.5688 82.0798 34.3857 82.2178 34.1624 82.3256C33.9392 82.4335 33.6707 82.4862 33.3572 82.4862H30.8887V76.7966L30.8912 76.7991ZM31.9072 81.4727H33.0636C33.317 81.4727 33.5227 81.4 33.6783 81.257C33.8338 81.114 33.9141 80.9359 33.9141 80.7201C33.9141 80.5044 33.8363 80.3212 33.6783 80.1833C33.5227 80.0453 33.3145 79.9776 33.0561 79.9776H31.9072V81.4727Z" fill="black"/>
<path d="M28.3901 80.6724C28.3901 80.981 28.3324 81.2494 28.217 81.4827C28.1016 81.7135 27.9461 81.9091 27.7479 82.0697C27.5497 82.2303 27.3189 82.3507 27.0505 82.4284C26.7846 82.5087 26.5036 82.5488 26.2051 82.5488C25.9066 82.5488 25.6281 82.5087 25.3597 82.4284C25.0938 82.3482 24.8605 82.2277 24.6623 82.0697C24.4641 81.9117 24.3086 81.716 24.1932 81.4827C24.0778 81.2519 24.0201 80.981 24.0201 80.6724V78.5827C24.0201 78.2817 24.0803 78.0133 24.2007 77.7825C24.3211 77.5517 24.4842 77.3585 24.6874 77.2055C24.8906 77.0525 25.1239 76.9345 25.3873 76.8593C25.6507 76.7815 25.9241 76.7439 26.2026 76.7439C26.481 76.7439 26.7545 76.784 27.0179 76.8668C27.2813 76.9496 27.5146 77.07 27.7178 77.2255C27.921 77.3811 28.0841 77.5768 28.2045 77.8126C28.3249 78.0459 28.3851 78.3143 28.3851 78.6178V80.6749L28.3901 80.6724ZM27.2587 78.816C27.2587 78.6279 27.2286 78.4698 27.1684 78.3419C27.1082 78.2114 27.0279 78.1061 26.9276 78.0233C26.8297 77.9405 26.7169 77.8803 26.5939 77.8427C26.471 77.805 26.3431 77.785 26.2101 77.785C26.0772 77.785 25.9492 77.805 25.8213 77.8427C25.6958 77.8803 25.583 77.9405 25.4826 78.0233C25.3823 78.1061 25.3045 78.2114 25.2418 78.3419C25.1816 78.4723 25.1515 78.6304 25.1515 78.816V80.4767C25.1515 80.6649 25.1816 80.8229 25.2418 80.9559C25.302 81.0888 25.3823 81.1942 25.4826 81.2795C25.5804 81.3623 25.6933 81.42 25.8213 81.4576C25.9467 81.4927 26.0772 81.5103 26.2101 81.5103C26.3431 81.5103 26.471 81.4927 26.5939 81.4576C26.7169 81.4225 26.8297 81.3623 26.9276 81.2795C27.0279 81.1967 27.1057 81.0888 27.1684 80.9559C27.2286 80.8229 27.2587 80.6649 27.2587 80.4767V78.816Z" fill="black"/>
</g>
<defs>
<clipPath id="clip0_2039_51">
<rect width="128" height="128" fill="white"/>
</clipPath>
</defs>
</svg>
