<svg width="276" height="33" viewBox="0 0 276 33" fill="none" xmlns="http://www.w3.org/2000/svg">
<g clip-path="url(#clip0_8_930)">
<path d="M14.0676 26.4816C9.14748 24.2098 5.80732 20.1638 4.83341 15.851C4.64966 15.008 4.63801 14.1365 4.79916 13.2889C4.96031 12.4412 5.29094 11.6348 5.77125 10.918C6.38445 9.95875 7.12751 9.89384 7.12751 9.89384C7.12751 9.89384 6.36281 9.53324 5.3384 9.38178C4.05427 9.18706 2.38058 9.3313 1.31288 10.9468C0.498233 12.8508 0.0714925 14.8981 0.0576172 16.9689C0.0792597 21.0798 1.63031 25.8253 6.36281 29.59C7.67579 30.5709 9.14748 31.3426 10.7346 31.8691C10.951 31.9412 11.1819 31.9989 11.3911 32.0566C12.0909 32.2513 12.7762 32.3883 13.4327 32.4965C13.4832 32.4965 13.5337 32.5037 13.577 32.5181L14.1758 32.5758C14.486 32.6047 14.7818 32.6335 15.0848 32.648L15.532 32.6552H15.6907L16.542 32.6335L17.4149 32.5614L17.5159 32.547C17.754 32.5181 17.9849 32.4749 18.2229 32.4388L18.6269 32.3667L18.7135 32.3451C21.325 31.8114 23.4893 30.6286 25.163 29.4025C26.1369 28.6525 27.0098 27.7942 27.7745 26.8422C23.9366 28.6813 18.8361 28.6885 14.0676 26.4816ZM5.68468 8.28555C6.87253 6.76407 8.35027 5.49305 10.0325 4.54598C11.7147 3.59891 13.5679 2.99457 15.4852 2.76789C17.4024 2.54122 19.3456 2.6967 21.2024 3.22536C23.0592 3.75402 24.7927 4.64536 26.3028 5.84786C23.4129 3.14247 19.5994 1.64124 15.6402 1.65043C10.1935 1.65043 5.39611 4.44151 2.61144 8.68221C3.57549 8.2541 4.64348 8.11625 5.68468 8.28555Z" fill="white"/>
<path d="M14.8395 25.3204C16.7873 26.4239 18.9155 27.0369 21.0364 27.2388C21.9238 27.0225 22.7751 26.7051 23.5181 26.2724C26.5264 24.4045 35.371 12.1367 35.371 12.1367C35.371 12.1367 30.5519 11.1415 28.4598 12.6704C26.3677 14.1994 24.795 16.6226 22.4721 19.2478C20.1635 21.8586 19.1391 23.5102 17.0903 24.0294C15.5681 24.4189 14.1325 24.3468 12.8339 24.0583C13.4543 24.491 14.118 24.9021 14.8395 25.3204Z" fill="white"/>
<path d="M29.1452 25.8685C31.0064 24.5126 35.3349 18.6204 35.3349 18.6204C35.3349 18.6204 32.0164 16.8895 29.0009 18.6204C25.9709 20.3729 26.0647 20.82 23.0708 23.2866C20.0842 25.7459 17.8478 26.0272 16.1957 25.8974C16.0947 25.8974 16.0154 25.8757 15.9144 25.8685C20.2284 27.8735 25.8555 28.2052 29.1452 25.8685Z" fill="white"/>
<path d="M35.3205 1.65043C35.3205 1.65043 30.5664 0.345041 26.7645 3.63375C24.0231 5.99931 18.1219 21.8731 13.4904 22.7746C12.773 22.931 12.0363 22.9797 11.3045 22.9189C12.0764 22.991 12.9854 22.9621 14.0243 22.7602C18.6702 21.8587 24.8022 7.21094 27.6374 4.95356C30.4798 2.71782 33.8777 3.28757 33.8777 3.28757L31.0136 8.34324L35.3205 1.65043ZM46.8127 4.1386L42.3976 11.0983H51.2206L48.7317 30.2896H57.4248L59.9064 11.0983H67.0485L67.9142 4.1386H46.8127ZM249.805 3.99435L248.954 10.9468H256.637L254.134 30.2608H262.812L265.316 10.9468H271.592L276 3.99435H249.805ZM222.442 10.8603L223.293 4.00878H201.896L198.556 30.1886H219.953L220.797 23.3372H208.129L208.591 20.0629L221.215 20.0124L221.98 14.0913L209.341 14.1418L209.803 10.8603H222.442ZM115.124 4.11696H102.412C101.547 4.11696 100.681 4.66508 100.421 5.40071L91.3314 30.2896H100.19L101.684 25.8398L110.153 25.7388L110.622 30.2896H119.496L116.74 5.38629C116.682 4.62902 116.018 4.11696 115.124 4.11696ZM104.187 19.1974L106.892 11.9853H108.624L109.432 19.1974H104.187ZM137.545 15.9664L133.801 4.11696H125.072L121.725 30.2968H130.461L131.897 19.2046L135.72 30.2968H144.94L148.287 4.11696H139.06L137.545 15.9664ZM222.788 30.1886H231.517L232.816 20.0629L241.798 20.0124L242.519 14.0913L233.573 14.1418L234.028 10.8603H243.154L247.518 4.00878H226.136L222.788 30.1886ZM91.7715 5.60986C91.329 5.1287 90.7882 4.74829 90.1858 4.49444C89.5833 4.24059 88.9333 4.11923 88.2798 4.1386L70.8215 4.12417L68.4552 25.8974L67.842 30.2896H76.6L77.4152 24.08H79.2188L80.9863 30.2896H89.1383L87.277 23.8564C89.3331 23.2795 91.0068 21.5846 91.2737 19.6013L92.6227 8.62451C92.7057 8.09038 92.6725 7.54466 92.5256 7.02447C92.3787 6.50428 92.1215 6.02181 91.7715 5.60986ZM78.9302 12.3387L79.1034 11.0478H83.6844L82.9125 16.4785C82.8818 16.6632 82.7868 16.8311 82.6442 16.9526C82.5016 17.074 82.3206 17.1411 82.1333 17.142H78.2665L78.9302 12.3387ZM166.864 4.11696H157.421C155.552 4.12625 153.75 4.81301 152.349 6.0498C151.174 7.0589 150.407 8.46137 150.192 9.99481L149.766 13.3917C149.478 15.6924 150.149 17.0915 152.371 17.9858C156.786 19.7528 162.413 21.7938 162.413 21.7938L162.362 22.2698L162.29 22.8035L157.32 22.7963L157.464 21.1591H148.742L148.338 24.3757C147.977 27.6356 150.56 30.2896 154.102 30.2896H163.553C165.378 30.2896 167.217 29.5828 168.602 28.3423C169.762 27.3162 170.517 25.9094 170.731 24.3757L171.221 20.5172C171.481 18.4329 170.81 17.2285 168.379 16.327L158.575 12.6416C158.669 12.043 158.719 11.6319 158.719 11.5598L158.791 10.9829L159.339 10.9973L163.286 11.0189H163.848L163.596 12.6777H172.275L172.722 9.06445C173.155 5.40071 169.836 4.11696 166.864 4.11696ZM190.007 4.11696L188.478 15.9664L184.842 4.11696H176.105L172.765 30.304H181.494L182.937 19.2046L186.667 30.3112H195.901L199.227 4.10254L190.007 4.11696Z" fill="white"/>
</g>
<defs>
<clipPath id="clip0_8_930">
<rect width="276" height="33" fill="white"/>
</clipPath>
</defs>
</svg>
