<svg width="256" height="54" viewBox="0 0 256 54" fill="none" xmlns="http://www.w3.org/2000/svg">
<g clip-path="url(#clip0_2039_23)">
<path fill-rule="evenodd" clip-rule="evenodd" d="M0 27C0 41.9052 12.102 54 27.0161 54C41.9302 54 54.0322 41.9052 54.0322 27C54.0322 12.0948 41.9302 0 27.0161 0C12.102 0 0 12.0948 0 27ZM0.9541 27C0.9541 12.5967 12.6544 0.903346 27.0663 0.903346C41.4782 0.903346 53.1785 12.5967 53.1785 27C53.1785 41.3532 41.4782 53.0465 27.0663 53.0465C12.6544 53.0967 0.9541 41.4033 0.9541 27Z" fill="white"/>
<path fill-rule="evenodd" clip-rule="evenodd" d="M8.43627 19.6227C15.366 15.106 22.9988 12.4461 35.9545 14.7045C36.6575 14.303 37.0593 13.9015 37.2601 13.0484C34.0463 11.8941 30.5312 11.4926 26.0118 11.5428C21.9443 11.6432 14.6128 13.1487 10.696 15.4573L11.9012 13.9517C14.663 12.3458 21.7937 10.238 27.1165 10.0874C30.8827 10.0372 32.8411 10.238 37.3103 11.4424C36.9086 10.6896 36.0047 10.2881 34.6489 9.68592C30.3303 7.72867 22.1954 7.57811 15.5669 10.4889C16.4206 9.93685 17.224 9.43499 18.3288 8.93313C20.5383 7.92941 24.1036 6.97588 28.5728 7.02607C32.1381 7.07625 36.4065 8.3309 39.0177 10.8904C39.4696 11.3922 39.7207 11.9443 39.8211 12.396C41.88 13.4499 43.0852 14.4034 43.738 15.5577C43.989 16.1599 44.1397 16.8123 43.989 17.5149C44.8427 18.0168 45.2444 18.4684 45.6964 19.0205C45.9977 19.4722 46.2487 20.0242 46.299 20.5261C46.3994 21.1785 46.4496 21.8811 45.7968 22.7342C46.4998 23.0855 47.0522 24.0391 47.1526 24.4907C47.4539 26.0465 46.4998 27.5521 45.144 28.7565C43.6375 30.1116 40.2731 31.6673 37.5614 32.3699C32.1381 33.725 27.3676 34.3272 23.5512 35.0298C25.2586 35.4313 27.5685 35.9833 31.3849 35.9833C39.4696 35.9833 46.6003 32.1692 46.6003 32.1692C46.6003 32.1692 46.4496 32.671 46.299 33.1227C41.177 36.2342 32.9918 37.5391 29.5269 37.3885C25.9616 37.238 22.9988 36.6859 20.0863 35.7826C19.1824 36.0335 18.3288 36.2844 17.4751 36.6859C21.8941 38.6934 25.2586 39.145 29.075 39.4461C32.9416 39.7473 39.319 38.7937 44.7423 36.8365C44.4912 37.0874 44.3908 37.4889 44.1397 37.6896C41.3778 39.145 35.5026 40.6004 32.5901 40.7008C29.6775 40.8012 26.1122 40.7008 22.9988 40.1487C20.3374 39.6469 18.1279 38.7937 15.8682 37.79C15.4665 38.0911 15.2656 38.4926 15.1652 38.9443C23.8525 43.5614 32.1883 43.6618 41.6791 40.7008L40.8254 41.5539C30.3806 45.7696 22.2456 44.1134 15.9184 41.1023C15.7176 41.0019 15.4665 40.9015 15.2656 40.8012C15.8682 41.8049 20.6889 45.3179 26.062 45.7696C29.778 46.0707 34.2974 45.4183 37.009 44.3644L35.4021 45.1673C34.0965 45.8197 30.6316 47.2751 25.8109 46.9238C19.3833 46.4722 15.7678 43.6618 14.1107 42.1562C13.3574 41.4536 13.0059 40.6506 12.7548 39.6469C11.2986 38.8941 10.3947 38.0911 9.64145 36.9368C9.18951 36.2342 9.28994 35.4815 9.39037 34.829L9.54102 34.2268C8.838 33.7249 8.13498 33.1729 7.83368 32.6209C7.18088 31.4666 7.5826 30.5131 8.03454 29.7101C7.63282 29.2584 7.28131 28.8569 7.13066 28.4052C6.98001 27.8532 6.9298 27.3513 6.98001 26.7993C7.08044 25.8458 7.63282 24.9424 8.28562 24.1896C9.69166 22.5837 11.9012 21.329 15.7176 20.0744C19.4335 18.8699 20.8898 18.6692 23.7019 18.0168C26.9659 17.264 30.8827 17.0131 34.1467 15.8588C25.0577 14.2528 15.5669 15.7082 7.8839 21.0279L8.43627 19.6227ZM39.4194 14.0019C39.319 14.4536 38.8168 14.9554 38.5155 15.3067C39.5198 15.5577 40.5241 15.909 41.4782 16.3105C41.3276 15.4071 40.3233 14.5539 39.4194 14.0019ZM11.399 32.1692C10.7964 31.8179 10.3947 31.6171 9.94274 31.2658C9.69166 31.8179 10.1938 32.4703 10.696 32.7714C10.8968 32.5707 11.1479 32.3699 11.399 32.1692ZM42.0808 20.2751C42.7336 20.5763 43.3362 20.8272 43.8886 21.2287C44.2903 20.4257 44.0393 19.9238 43.1856 19.2212C42.8843 19.6227 42.4826 19.974 42.0808 20.2751ZM40.1224 21.4796C38.8168 22.0818 36.8584 22.7342 34.1467 23.4368C31.9373 23.9889 26.4637 24.7919 20.5885 26.0465C18.7305 26.448 13.7089 27.6525 11.2484 29.7101C11.9514 30.2621 12.3531 30.4127 13.1566 30.8142C14.1609 30.1618 15.5669 29.5595 17.6258 29.0075C21.2413 28.0539 23.9027 27.6525 27.1668 27.1004C30.3806 26.5986 36.4065 25.3439 39.7709 24.1394C40.8757 23.738 41.88 23.2361 42.6332 22.6339C42.3821 22.4331 40.2229 21.3792 40.1224 21.4796ZM14.8137 35.4815C15.3158 35.1803 15.9184 34.8792 16.5712 34.6283C15.6171 34.2268 14.663 33.8253 13.7089 33.3736C13.257 33.6246 12.8553 33.9257 12.554 34.2268C13.3072 34.6283 14.0102 35.08 14.8137 35.4815ZM11.7003 35.7826C11.7003 36.3848 12.0518 36.9368 12.8553 37.5893C12.9557 37.238 13.1063 37.0372 13.3574 36.7361C12.7548 36.435 12.2527 36.0837 11.7003 35.7826ZM16.2699 24.6413C22.8482 22.7342 29.778 22.132 36.8082 20.2751C34.0463 19.5223 32.5901 19.2212 29.6775 19.5725C25.4594 20.0744 20.8396 20.9777 16.8725 22.132C15.3158 22.5837 7.13066 24.8922 9.4908 28.1543C9.4908 28.2045 10.8968 26.2473 16.2699 24.6413ZM40.9761 17.9164C39.9216 17.4145 38.5657 16.9629 37.1095 16.5614C36.4567 17.0632 35.7537 17.5149 34.6489 17.9164C36.4065 18.2175 37.7623 18.7194 39.2688 19.171C39.57 19.3216 40.7752 18.1673 40.9761 17.9164ZM44.2401 24.2398C44.0393 24.3904 43.8384 24.5911 43.5873 24.7417C42.0808 25.896 39.7207 26.7993 36.4567 27.7026C29.6775 29.5093 24.7564 29.8105 19.1322 31.1655C18.0275 31.4164 16.9227 31.8179 15.8682 32.2194C16.9227 32.7714 18.0275 33.2231 19.1824 33.6748C21.4422 33.0223 22.5469 32.7212 25.8611 32.1692C27.1165 31.9684 30.9832 31.2658 33.7952 30.6636C38.8168 29.6599 46.1985 27.3012 44.2401 24.2398Z" fill="white"/>
<path fill-rule="evenodd" clip-rule="evenodd" d="M79.8933 38.7433H85.4673L86.1201 34.6782H89.9365L90.5893 38.7433H96.1632L91.4429 15.1057H84.5132L79.8933 38.7433ZM88.0785 22.2321L89.133 29.4589H87.0742L88.0785 22.2321Z" fill="white"/>
<path fill-rule="evenodd" clip-rule="evenodd" d="M101.486 24.2898C102.39 24.2898 103.997 23.7378 103.997 21.9813C103.997 19.9237 102.089 19.7731 101.587 19.7731C100.934 19.7731 99.7788 19.8735 98.5736 20.4255L98.5234 15.3066C100.381 14.8549 101.737 14.7043 103.294 14.7043C107.763 14.7043 109.822 17.8661 109.822 20.9274C109.822 23.9385 108.064 25.7452 106.407 26.4478V26.6988C108.014 27.2006 110.173 28.7564 110.173 32.3698C110.173 36.8363 107.06 39.2954 103.093 39.2954C100.934 39.2954 99.5779 38.9943 97.9208 38.091L98.0212 33.1727C99.5779 33.8252 100.632 33.8753 101.687 33.8753C103.445 33.8753 104.148 32.5705 104.148 31.617C104.148 30.3122 103.294 29.4088 101.436 29.4088H99.1762V24.2898H101.486Z" fill="white"/>
<path fill-rule="evenodd" clip-rule="evenodd" d="M127.749 38.7433H122.225V20.7767H118.258V38.7433H112.734V15.1057H127.749V38.7433Z" fill="white"/>
<path fill-rule="evenodd" clip-rule="evenodd" d="M130.862 38.7433H136.336V30.9644H138.194C143.617 30.9644 145.324 26.0964 145.324 22.9849C145.324 19.9236 143.416 15.1057 138.194 15.1057H130.862V38.7433ZM136.336 20.325H137.641C138.897 20.325 139.65 21.0778 139.65 23.0351C139.65 25.5946 138.344 25.7451 137.641 25.7451H136.336V20.325Z" fill="white"/>
<path fill-rule="evenodd" clip-rule="evenodd" d="M155.468 39.0446C161.996 39.0446 164.155 32.9721 164.155 26.8996C164.155 20.8271 161.946 14.7546 155.468 14.7546C148.94 14.7546 146.781 20.8271 146.781 26.8996C146.781 32.9721 148.99 39.0446 155.468 39.0446ZM155.468 33.3234C153.56 33.3234 152.556 31.0651 152.556 26.8996C152.556 22.7342 153.56 20.4758 155.468 20.4758C157.426 20.4758 158.381 22.7342 158.381 26.8996C158.431 31.0651 157.426 33.3234 155.468 33.3234Z" fill="white"/>
<path fill-rule="evenodd" clip-rule="evenodd" d="M188.058 38.7433H194.636C196.042 38.7433 201.968 38.141 202.018 31.0146C202.018 24.9923 197.398 23.9384 194.436 23.9384H193.481V20.8269H200.763V15.1057H188.108V38.7433H188.058ZM193.481 34.0258V28.6559H194.285C194.938 28.6559 196.645 28.7061 196.645 31.115C196.645 33.6243 194.887 34.0258 194.285 34.0258H193.481Z" fill="white"/>
<path fill-rule="evenodd" clip-rule="evenodd" d="M236.315 38.7433H230.993V29.3083H227.126V38.7433H221.753V15.1057H227.126V23.6373H230.993V15.1057H236.315V38.7433Z" fill="white"/>
<path fill-rule="evenodd" clip-rule="evenodd" d="M255.397 15.1057L251.179 26.3473L256 38.7433H249.673L246.61 29.2581H245.304V38.7433H239.931V15.1057H245.304V23.6373H246.459L249.572 15.1057H255.397Z" fill="white"/>
<path fill-rule="evenodd" clip-rule="evenodd" d="M69.2978 15.1057H80.5461V21.0276H74.8717V38.7433H69.2978V15.1057Z" fill="white"/>
<path fill-rule="evenodd" clip-rule="evenodd" d="M178.919 38.7433V24.3399L175.605 28.4552L172.29 24.3399V38.7433H166.817V15.1057H171.487L175.605 20.6763L179.722 15.1057H184.392V38.7433H178.919Z" fill="white"/>
<path fill-rule="evenodd" clip-rule="evenodd" d="M203.073 38.7936H208.647L209.299 34.7285H213.116L213.819 38.7936H219.393L214.672 15.156H207.743L203.073 38.7936ZM211.258 22.2824L212.312 29.5092H210.253L211.258 22.2824Z" fill="white"/>
</g>
<defs>
<clipPath id="clip0_2039_23">
<rect width="256" height="54" fill="white"/>
</clipPath>
</defs>
</svg>
