<svg width="21" height="21" fill="none" xmlns="http://www.w3.org/2000/svg"><path d="M7.781 10.383c-.664-.961-1.059-2.12-1.14-2.219.972-.678 2.874-1.53 2.98-2.752C9.757 3.832 7.081.53 6.568.5 5.164.515 2.594 2.891 2.29 3.609c-.566 1.484-.286 2.866.687 4.866 1.24 2.975 5.841 8.618 8.474 10.39 1.742 1.337 3.014 1.862 4.534 1.545.707-.134 3.258-2.227 3.514-3.643.062-.525-2.904-4.005-4.438-4.143-1.191-.11-2.333 1.672-3.152 2.544-.081-.104-.779-.648-1.528-1.51-.975-1.025-1.881-2.228-2.6-3.275z" fill="#fff"/></svg>