<svg width="12" height="12" viewBox="0 0 12 12" fill="none" xmlns="http://www.w3.org/2000/svg">
<path d="M5.625 6.375V10.5C5.625 10.5995 5.66451 10.6948 5.73484 10.7652C5.80516 10.8355 5.90054 10.875 6 10.875C6.09946 10.875 6.19484 10.8355 6.26517 10.7652C6.33549 10.6948 6.375 10.5995 6.375 10.5V6.375H10.5C10.5995 6.375 10.6948 6.33549 10.7652 6.26516C10.8355 6.19484 10.875 6.09946 10.875 6C10.875 5.90054 10.8355 5.80516 10.7652 5.73483C10.6948 5.66451 10.5995 5.625 10.5 5.625H6.375V1.5C6.375 1.40054 6.33549 1.30516 6.26517 1.23483C6.19484 1.16451 6.09946 1.125 6 1.125C5.90054 1.125 5.80516 1.16451 5.73484 1.23483C5.66451 1.30516 5.625 1.40054 5.625 1.5V5.625H1.5C1.40054 5.625 1.30516 5.66451 1.23483 5.73483C1.16451 5.80516 1.125 5.90054 1.125 6C1.125 6.09946 1.16451 6.19484 1.23483 6.26516C1.30516 6.33549 1.40054 6.375 1.5 6.375H5.625Z" fill="white"/>
</svg>
