<?xml version="1.0" encoding="utf-8"?>
<!-- Generator: Adobe Illustrator 27.0.0, SVG Export Plug-In . SVG Version: 6.00 Build 0)  -->
<svg width="151" height="150" version="1.1" id="Logo" xmlns="http://www.w3.org/2000/svg" xmlns:xlink="http://www.w3.org/1999/xlink" x="0px" y="0px"
	 viewBox="0 0 404.42 400.76" style="enable-background:new 0 0 404.42 400.76;" xml:space="preserve">
<style type="text/css">
	.st0{fill:#FFFFFF;}
</style>
<g>
	<g>
		<path class="st0" d="M222.15,119.63c-12.21-11-31.03-10.02-42.04,2.19s-10.02,31.03,2.19,42.04c12.21,11,31.02,10.02,42.02-2.18
			C235.33,149.46,234.36,130.65,222.15,119.63z"/>
		<path class="st0" d="M116.96,28.5C97.34,43.3,81.88,62.93,72.1,85.48c11.78,2.9,47.04,14.38,63.22,58.06
			c4.87-1.59,15.36-7.7,22.63-31.3c9.76-31.6,28.27-61.99,52.28-72.2C186.29,16.35,154.75,10.77,116.96,28.5z"/>
		<path class="st0" d="M311.36,51.35L311.36,51.35c-48.29-58.34-133.9-68.4-194.4-22.85c52.45-24.61,92.88-4.31,117.63,47.01
			C274.03,82.58,300.81,62.96,311.36,51.35z"/>
		<path class="st0" d="M146.79,272.16c22.62,9.6,47.35,13.17,71.77,10.37c-3.37-11.65-11.07-47.93,18.67-83.78
			c-3.81-3.42-14.34-9.45-38.42-3.95c-32.24,7.35-67.82,6.51-88.66-9.18C101.61,218.2,112.55,248.3,146.79,272.16z"/>
		<path class="st0" d="M69.38,92.37l-0.01,0c-26.36,70.99,7.73,150.17,77.43,179.79c-47.54-33.12-50.17-78.29-18.11-125.39
			C115.09,109.09,84.71,95.71,69.38,92.37z"/>
		<path class="st0" d="M342.88,124.5c-3-24.4-12.27-47.6-26.91-67.34c-8.4,8.75-35.97,33.55-81.88,25.72
			c-1.06,5.01-1.01,17.15,15.79,35.25c22.48,24.25,39.55,55.48,36.38,81.38C318.74,190.62,339.34,166.08,342.88,124.5z"/>
		<path class="st0" d="M225.89,281.44L225.89,281.44c74.66-12.66,126.18-81.78,116.99-156.95c-4.92,57.73-42.71,82.6-99.52,78.38
			C217.52,233.49,221.12,266.5,225.89,281.44z"/>
	</g>
	<g>
		<path class="st0" d="M12.17,399.79H0v-56.78h19.55c3.25-0.04,6.5,0.34,9.65,1.14c2.65,0.65,5.14,1.83,7.34,3.45
			c2.03,1.55,3.64,3.58,4.66,5.92c1.14,2.68,1.69,5.57,1.62,8.48c0.05,2.92-0.51,5.83-1.66,8.52c-1.08,2.45-2.74,4.61-4.83,6.29
			c-2.29,1.79-4.91,3.12-7.71,3.89c-3.33,0.93-6.77,1.38-10.22,1.34h-6.25V399.79z M11.92,371.32h6.65c3.68,0,6.54-0.72,8.6-2.15
			c2.05-1.43,3.08-3.66,3.08-6.69c0-3.19-1-5.45-3-6.77c-2-1.32-4.87-1.99-8.6-1.99h-6.73V371.32z"/>
		<path class="st0" d="M79.65,400.76c-3.83,0.05-7.64-0.6-11.23-1.91c-3.29-1.21-6.27-3.14-8.72-5.64
			c-2.52-2.63-4.44-5.77-5.64-9.21c-1.39-4.06-2.06-8.32-1.99-12.61c-0.08-4.29,0.62-8.57,2.07-12.61c1.24-3.43,3.19-6.57,5.72-9.21
			c2.43-2.49,5.38-4.41,8.64-5.64c3.46-1.3,7.13-1.94,10.83-1.91c4-0.07,7.98,0.62,11.72,2.03c3.29,1.26,6.26,3.24,8.68,5.8
			c2.44,2.66,4.28,5.81,5.39,9.25c1.29,3.97,1.92,8.12,1.86,12.29c0.09,4.45-0.61,8.89-2.07,13.1c-1.22,3.44-3.18,6.58-5.76,9.17
			c-2.46,2.41-5.42,4.24-8.68,5.35C86.99,400.21,83.33,400.8,79.65,400.76z M80.06,390.06c1.95,0.02,3.89-0.37,5.68-1.14
			c1.75-0.77,3.28-1.95,4.46-3.45c1.33-1.72,2.31-3.69,2.88-5.8c0.72-2.7,1.06-5.48,1.01-8.27c0-6.44-1.35-11.15-4.06-14.15
			c-2.73-3.01-6.65-4.66-10.71-4.5c-1.94-0.01-3.86,0.37-5.64,1.14c-1.78,0.77-3.35,1.95-4.58,3.45c-1.39,1.72-2.43,3.71-3.04,5.84
			c-0.77,2.67-1.14,5.45-1.1,8.23c-0.06,2.8,0.34,5.6,1.18,8.27c0.67,2.13,1.76,4.1,3.2,5.8c1.3,1.51,2.94,2.69,4.79,3.45
			C76.01,389.69,78.03,390.07,80.06,390.06L80.06,390.06z"/>
		<path class="st0" d="M161.49,397.54c-0.76,0.38-1.58,0.75-2.47,1.13c-1.03,0.42-2.09,0.77-3.16,1.05
			c-1.39,0.35-2.8,0.61-4.22,0.77c-1.82,0.2-3.65,0.29-5.48,0.28c-4.01,0.05-8-0.58-11.8-1.87c-3.39-1.15-6.49-3.02-9.08-5.48
			c-2.59-2.52-4.58-5.58-5.84-8.96c-1.44-3.95-2.15-8.13-2.07-12.33c-0.08-4.4,0.62-8.78,2.07-12.94
			c2.48-7.2,8.18-12.83,15.41-15.21c4.04-1.35,8.28-2.01,12.53-1.95c2.79-0.03,5.58,0.24,8.31,0.81c2.05,0.41,4.05,1.04,5.96,1.87
			l-2.68,10.22c-1.71-0.59-3.48-1.02-5.27-1.3c-1.53-0.25-3.07-0.38-4.62-0.4c-2.59-0.03-5.18,0.32-7.66,1.06
			c-2.19,0.65-4.22,1.77-5.92,3.29c-1.71,1.57-3.03,3.52-3.85,5.69c-0.97,2.61-1.44,5.38-1.38,8.17c0,6.02,1.69,10.54,5.07,13.58
			c3.38,3.03,7.93,4.55,13.67,4.55c1.58-0.03,3.16-0.21,4.7-0.53c1.84-0.35,3.64-0.91,5.35-1.66L161.49,397.54z"/>
		<path class="st0" d="M207.72,387.38h-21.82l-4.06,12.41h-12l19.39-56.78h15.82l19.14,56.78h-12.41L207.72,387.38z M189.23,376.67
			h15.17l-7.54-23.85L189.23,376.67z"/>
		<path class="st0" d="M251.85,399.79h-12.17V354.2h-16.14v-11.19h44.37v11.19h-16.06V399.79z"/>
		<path class="st0" d="M301.17,400.76c-3.83,0.05-7.64-0.6-11.23-1.91c-3.29-1.21-6.27-3.14-8.72-5.64
			c-2.52-2.63-4.44-5.77-5.64-9.21c-1.39-4.06-2.07-8.32-1.99-12.61c-0.08-4.29,0.62-8.57,2.07-12.61c1.24-3.43,3.19-6.57,5.72-9.21
			c2.43-2.49,5.38-4.41,8.64-5.64c3.46-1.29,7.13-1.94,10.83-1.91c4-0.07,7.98,0.62,11.72,2.03c3.29,1.26,6.26,3.24,8.68,5.8
			c2.44,2.66,4.28,5.82,5.39,9.25c1.29,3.97,1.92,8.12,1.86,12.29c0.09,4.45-0.61,8.89-2.07,13.1c-1.22,3.45-3.18,6.58-5.76,9.17
			c-2.46,2.41-5.42,4.23-8.68,5.35C308.51,400.21,304.85,400.8,301.17,400.76z M301.57,390.06c1.95,0.02,3.88-0.37,5.68-1.14
			c1.75-0.77,3.28-1.95,4.46-3.45c1.34-1.72,2.31-3.69,2.88-5.8c0.72-2.7,1.06-5.48,1.01-8.27c0-6.44-1.35-11.15-4.06-14.15
			c-2.73-3.01-6.65-4.66-10.71-4.5c-1.94-0.01-3.86,0.37-5.64,1.14c-1.78,0.77-3.35,1.95-4.58,3.45c-1.4,1.72-2.43,3.71-3.04,5.84
			c-0.77,2.67-1.14,5.45-1.09,8.23c-0.06,2.8,0.34,5.6,1.17,8.27c0.67,2.13,1.76,4.1,3.2,5.8c1.3,1.51,2.94,2.69,4.78,3.45
			C297.53,389.69,299.54,390.07,301.57,390.06L301.57,390.06z"/>
		<path class="st0" d="M404.42,399.79h-12.25l-3.08-37.72l-11.68,37.72h-11.6l-11.52-37.55l-3.08,37.55h-12.25l5.68-56.78h14.52
			l12.82,42.83l12.65-42.83h14.03L404.42,399.79z"/>
	</g>
</g>
</svg>
