<?xml version="1.0" encoding="utf-8"?>
<!-- Generator: Adobe Illustrator 27.0.0, SVG Export Plug-In . SVG Version: 6.00 Build 0)  -->
<svg width="300" height="128" version="1.1" id="Layer_1" xmlns="http://www.w3.org/2000/svg" xmlns:xlink="http://www.w3.org/1999/xlink" x="0px" y="0px"
	 viewBox="0 0 371 158" style="enable-background:new 0 0 371 158;" xml:space="preserve">
<style type="text/css">
	.st0{fill:#FFFFFF;}
</style>
<g>
	<path class="st0" d="M252,14v5.77h49.5c3.3,0,8.25,0,11.5,3.3s3.3,8.25,3.3,11.5v49.5c0,3.3,0,8.25-3.3,11.5
		c-3.3,3.3-8.25,3.3-11.5,3.3h-23.9c-4.12,0-9.49,0-11.5-4.54c-2.06-4.54,0.82-8.66,3.3-12l32.2-42.9h-49.5l-19.8,26.4
		c-3.32,4.42-6.19,8.25-6.19,13.2s2.67,8.51,6.19,13.2l4.95,6.6c4.95,6.6,9.9,13.2,16.5,16.5s14.4,3.3,25.2,3.3h21.4
		c12.4,0,30.9,0,43.3-12.4s12.4-30.5,12.4-37.1v-19.8c0-6.6,0-24.7-12.4-37.1s-30.9-12.4-43.3-12.4l-34.2-0.01
		c-3.3,0-7.42,0-10.7,3.3c-3.3,3.3-3.3,7.42-3.3,10.7"/>
	<polyline class="st0" points="193,39.6 242,39.6 183,119 134,119 193,39.6 	"/>
	<path class="st0" d="M0,53.6c0-3.3,0-7.42,3.3-10.7s7.42-3.3,10.7-3.3h82.9c10.7,0,18.6,0,25.2,3.3s11.5,9.9,16.5,16.5l4.95,6.6
		c3.51,4.68,6.19,8.25,6.19,13.2s-2.87,8.78-6.19,13.2l-19.8,26.4h-49.5l32.2-42.9c2.47-3.3,5.36-7.42,3.3-12
		c-2.06-4.54-7.42-4.54-11.5-4.54h-38.8v99h-39.6v-99H0.05v-5.78"/>
</g>
</svg>
